{"glyphs":{"0":{"ha":725,"x_min":0,"x_max":0,"o":"m 633 264 l 633 725 b 363 997 633 889 517 997 b 92 725 208 997 92 889 l 92 264 b 363 -8 92 100 208 -8 b 633 264 517 -8 633 100 z m 533 269 b 363 81 533 161 472 81 b 192 269 253 81 192 161 l 192 719 b 363 908 192 828 253 908 b 533 719 472 908 533 828 z "},"1":{"ha":725,"x_min":0,"x_max":0,"o":"m 458 0 l 458 989 l 358 989 l 174 829 l 174 715 l 358 878 l 358 0 z "},"2":{"ha":725,"x_min":0,"x_max":0,"o":"m 640 0 l 640 89 l 215 89 l 561 531 b 640 731 615 600 640 651 b 368 997 640 893 531 997 b 96 729 203 997 96 885 l 196 729 b 368 908 196 857 276 908 b 540 731 476 908 540 838 b 485 585 540 676 522 633 l 94 89 l 94 0 z "},"3":{"ha":725,"x_min":0,"x_max":0,"o":"m 639 269 b 488 511 639 393 588 474 b 621 731 576 551 621 626 b 349 999 621 892 510 999 b 71 744 199 999 82 904 l 171 744 b 349 910 181 846 244 910 b 521 729 444 910 521 847 b 344 550 521 618 465 550 l 324 550 l 324 463 l 344 463 b 539 271 479 463 539 390 b 349 79 539 150 456 79 b 158 251 254 79 167 128 l 58 251 b 349 -10 67 72 193 -10 b 639 269 510 -10 639 88 z "},"4":{"ha":725,"x_min":0,"x_max":0,"o":"m 669 157 l 669 247 l 549 247 l 549 528 l 450 528 l 450 247 l 163 247 l 519 989 l 413 989 l 56 247 l 56 157 l 450 157 l 450 0 l 549 0 l 549 157 z "},"5":{"ha":725,"x_min":0,"x_max":0,"o":"m 642 326 b 560 592 642 419 632 519 b 389 654 521 631 463 654 b 211 586 311 654 250 629 l 211 900 l 621 900 l 621 989 l 121 989 l 121 469 l 211 469 b 375 567 231 528 289 567 b 542 326 518 567 542 447 b 488 125 542 256 539 176 b 365 79 458 96 414 79 b 197 233 261 79 210 135 l 97 233 b 167 61 103 163 124 106 b 365 -10 210 18 279 -10 b 563 64 453 -10 517 18 b 642 326 633 135 642 228 z "},"6":{"ha":725,"x_min":0,"x_max":0,"o":"m 639 285 b 382 565 639 447 536 565 b 278 544 343 565 308 558 l 499 989 l 396 989 l 153 499 b 90 276 111 415 90 347 b 365 -8 90 106 197 -8 b 639 285 533 -8 639 117 z m 539 281 b 364 81 539 160 469 81 b 190 281 258 81 190 160 b 364 481 190 403 258 481 b 539 281 478 481 539 390 z "},"7":{"ha":725,"x_min":0,"x_max":0,"o":"m 654 900 l 654 989 l 106 989 l 106 744 l 204 744 l 204 900 l 549 900 l 206 0 l 311 0 z "},"8":{"ha":725,"x_min":0,"x_max":0,"o":"m 654 272 b 507 513 654 388 590 465 b 635 732 585 557 635 629 b 363 997 635 886 519 997 b 90 732 206 997 90 886 b 219 513 90 629 142 557 b 71 272 136 465 71 388 b 363 -8 71 106 199 -8 b 654 272 526 -8 654 106 z m 554 274 b 363 81 554 164 471 81 b 171 274 254 81 171 164 b 363 467 171 383 254 467 b 554 274 471 467 554 383 z m 535 731 b 363 554 535 626 464 554 b 190 731 261 554 190 626 b 363 908 190 833 261 908 b 535 731 464 908 535 833 z "},"9":{"ha":725,"x_min":0,"x_max":0,"o":"m 635 713 b 360 997 635 883 528 997 b 86 704 192 997 86 872 b 342 424 86 542 188 424 b 447 444 381 424 417 431 l 225 0 l 329 0 l 572 490 b 635 713 614 574 635 642 z m 535 708 b 360 508 535 586 465 508 b 186 708 246 508 186 599 b 360 908 186 829 254 908 b 535 708 465 908 535 829 z "},"\u0000":{"ha":0,"x_min":0,"x_max":0,"o":""},"\r":{"ha":346,"x_min":0,"x_max":0,"o":""}," ":{"ha":346,"x_min":0,"x_max":0,"o":""},"!":{"ha":439,"x_min":0,"x_max":0,"o":"m 299 989 l 183 989 l 197 278 l 283 278 z m 300 0 l 300 117 l 181 117 l 181 0 z "},"\"":{"ha":588,"x_min":0,"x_max":0,"o":"m 465 753 l 465 989 l 356 989 l 356 753 z m 232 753 l 232 989 l 122 989 l 122 753 z "},"#":{"ha":907,"x_min":0,"x_max":0,"o":"m 836 600 l 836 692 l 715 692 l 763 990 l 661 990 l 614 692 l 393 692 l 442 990 l 338 990 l 290 692 l 150 692 l 150 600 l 278 600 l 246 404 l 107 404 l 107 315 l 231 315 l 181 0 l 283 0 l 332 315 l 554 315 l 504 0 l 607 0 l 657 315 l 794 315 l 794 404 l 671 404 l 703 600 z m 600 600 l 568 404 l 347 404 l 379 600 z "},"$":{"ha":828,"x_min":0,"x_max":0,"o":"m 750 272 b 665 468 750 354 719 422 b 486 538 624 504 578 522 l 443 544 l 443 904 b 638 821 528 899 585 868 l 706 889 b 447 996 629 957 554 990 l 447 1119 l 364 1119 l 364 996 b 85 718 190 982 85 875 b 161 533 85 639 111 578 b 342 458 200 500 267 465 l 369 456 l 369 88 b 131 194 275 92 204 121 l 58 122 b 364 -8 144 36 233 -3 l 364 -158 l 447 -158 l 447 -6 b 750 272 631 7 750 111 z m 644 269 b 443 88 644 163 568 96 l 443 444 b 596 393 501 436 550 433 b 644 269 628 365 644 321 z m 369 554 b 233 608 322 561 272 576 b 189 722 203 635 189 674 b 369 904 189 825 254 894 z "},"%":{"ha":1157,"x_min":0,"x_max":0,"o":"m 1068 178 l 1068 324 b 881 511 1068 438 988 511 b 693 324 772 511 693 438 l 693 178 b 881 -10 693 64 772 -10 b 1068 178 988 -10 1068 64 z m 465 665 l 465 811 b 278 999 465 925 385 999 b 90 811 169 999 90 925 l 90 665 b 278 479 90 553 169 479 b 465 665 385 479 465 553 z m 853 989 l 769 989 l 306 0 l 389 0 z m 989 181 b 881 60 989 107 956 60 b 772 181 804 60 772 106 l 772 321 b 881 442 772 396 804 442 b 989 321 956 442 989 394 z m 386 668 b 278 549 386 594 353 549 b 169 668 203 549 169 593 l 169 808 b 278 929 169 883 201 929 b 386 808 353 929 386 882 z "},"&":{"ha":1026,"x_min":0,"x_max":0,"o":"m 932 0 l 781 182 b 872 485 844 258 871 360 l 772 485 b 717 258 771 374 757 319 l 464 563 b 538 613 488 579 538 613 b 647 789 600 656 647 710 b 432 997 647 907 556 997 b 214 790 306 997 214 908 b 321 575 214 701 272 633 b 107 279 213 503 107 428 b 419 -8 107 107 228 -8 b 711 108 578 -8 671 71 l 800 0 z m 651 181 b 418 85 567 104 492 85 b 210 282 296 85 210 164 b 379 508 210 394 294 450 z m 549 789 b 460 665 549 732 506 697 b 407 629 460 665 424 640 b 318 792 342 708 318 746 b 432 907 318 858 364 907 b 549 789 499 907 549 856 z "},"'":{"ha":354,"x_min":0,"x_max":0,"o":"m 232 753 l 232 989 l 122 989 l 122 753 z "},"(":{"ha":414,"x_min":0,"x_max":0,"o":"m 325 -62 b 250 28 293 -31 268 -8 b 228 140 236 56 228 94 l 228 849 b 250 961 228 894 236 933 b 325 1051 268 997 293 1019 l 257 1119 b 157 1000 213 1075 182 1046 b 128 857 132 954 128 906 l 128 132 b 157 -11 128 83 132 35 b 257 -131 182 -57 213 -86 z "},")":{"ha":414,"x_min":0,"x_max":0,"o":"m 285 132 l 285 857 b 257 1000 285 906 282 954 b 157 1119 232 1046 201 1075 l 86 1049 b 163 958 118 1017 144 994 b 182 849 176 931 182 893 l 182 140 b 163 31 182 96 176 58 b 86 -60 144 -6 118 -28 l 157 -131 b 257 -11 201 -86 232 -57 b 285 132 282 35 285 83 z "},"*":{"ha":658,"x_min":0,"x_max":0,"o":"m 565 656 l 399 746 l 565 838 l 526 904 l 364 806 l 369 996 l 289 996 l 294 806 l 133 904 l 93 838 l 260 746 l 93 656 l 133 588 l 294 686 l 289 496 l 369 496 l 364 686 l 526 588 z "},"+":{"ha":725,"x_min":0,"x_max":0,"o":"m 653 325 l 653 418 l 410 418 l 410 660 l 317 660 l 317 418 l 72 418 l 72 325 l 317 325 l 317 81 l 410 81 l 410 325 z "},",":{"ha":367,"x_min":0,"x_max":0,"o":"m 244 -90 l 244 122 l 122 122 l 122 -200 z "},"-":{"ha":592,"x_min":0,"x_max":0,"o":"m 486 328 l 486 421 l 106 421 l 106 328 z "},".":{"ha":375,"x_min":0,"x_max":0,"o":"m 253 0 l 253 131 l 122 131 l 122 0 z "},"/":{"ha":493,"x_min":0,"x_max":0,"o":"m 494 1092 l 396 1092 l 0 -103 l 99 -103 z "},":":{"ha":413,"x_min":0,"x_max":0,"o":"m 290 418 l 290 549 l 160 549 l 160 418 z m 290 0 l 290 131 l 160 131 l 160 0 z "},";":{"ha":413,"x_min":0,"x_max":0,"o":"m 285 -90 l 285 122 l 163 122 l 163 -200 z m 290 418 l 290 549 l 160 549 l 160 418 z "},"<":{"ha":725,"x_min":0,"x_max":0,"o":"m 592 94 l 592 201 l 244 374 l 592 546 l 592 653 l 132 419 l 132 328 z "},"=":{"ha":725,"x_min":0,"x_max":0,"o":"m 653 444 l 653 538 l 72 538 l 72 444 z m 653 210 l 653 301 l 72 301 l 72 210 z "},">":{"ha":725,"x_min":0,"x_max":0,"o":"m 592 328 l 592 419 l 132 653 l 132 546 l 479 374 l 132 201 l 132 94 z "},"?":{"ha":690,"x_min":0,"x_max":0,"o":"m 626 744 b 367 997 626 893 513 997 b 106 743 217 997 106 885 l 206 743 b 367 908 206 831 268 908 b 526 744 460 908 526 838 b 481 626 526 697 507 665 l 368 464 b 325 333 339 422 325 388 l 325 278 l 425 278 l 425 332 b 450 413 425 354 433 388 l 564 576 b 626 744 600 629 626 679 z m 435 0 l 435 117 l 315 117 l 315 0 z "},"@":{"ha":990,"x_min":0,"x_max":0,"o":"m 890 -1 l 890 689 b 811 913 890 783 865 858 b 597 990 758 965 686 990 l 392 990 b 178 913 301 990 229 965 b 100 689 125 858 100 783 l 100 222 b 208 -12 100 99 124 50 l 276 56 b 197 224 213 103 197 136 l 197 692 b 253 850 197 768 211 808 b 404 906 293 890 339 906 l 585 906 b 739 850 650 906 700 889 b 793 692 779 808 793 765 l 793 583 b 607 671 746 642 688 671 b 415 585 526 671 456 639 b 358 331 372 528 358 453 b 419 75 358 204 372 133 b 608 -10 463 21 531 -10 b 794 76 693 -10 749 18 l 794 0 z m 793 331 b 625 76 793 201 771 76 b 457 331 479 76 457 201 b 625 585 457 460 479 585 b 793 331 771 585 793 460 z "},"A":{"ha":849,"x_min":0,"x_max":0,"o":"m 832 0 l 469 989 l 381 989 l 17 0 l 129 0 l 208 224 l 640 224 l 719 0 z m 610 315 l 240 315 l 426 838 z "},"B":{"ha":928,"x_min":0,"x_max":0,"o":"m 822 274 b 661 508 822 392 756 474 b 807 725 744 539 807 621 b 515 989 807 890 688 989 l 143 989 l 143 0 l 528 0 b 822 274 703 0 822 94 z m 717 276 b 518 94 717 165 640 94 l 249 94 l 249 457 l 518 457 b 717 276 640 457 717 388 z m 701 724 b 507 551 701 606 617 551 l 249 551 l 249 894 l 507 894 b 701 724 617 894 701 842 z "},"C":{"ha":885,"x_min":0,"x_max":0,"o":"m 794 286 l 689 286 b 451 86 663 165 575 86 b 281 156 386 86 324 111 b 211 494 218 219 211 288 b 281 833 211 701 218 769 b 451 903 324 878 386 903 b 686 703 575 903 660 824 l 794 703 b 451 997 761 889 629 997 b 199 894 354 997 265 961 b 106 494 106 801 106 704 b 199 94 106 285 106 188 b 451 -8 265 28 354 -8 b 794 286 628 -8 763 100 z "},"D":{"ha":935,"x_min":0,"x_max":0,"o":"m 829 506 b 732 897 829 643 835 794 b 482 989 672 957 585 989 l 143 989 l 143 0 l 482 0 b 732 92 585 0 672 32 b 829 506 835 194 829 368 z m 724 506 b 658 167 724 385 726 238 b 464 94 607 114 540 94 l 249 94 l 249 894 l 464 894 b 658 822 540 894 607 875 b 724 506 726 751 724 626 z "},"E":{"ha":833,"x_min":0,"x_max":0,"o":"m 757 0 l 757 94 l 249 94 l 249 451 l 682 451 l 682 546 l 249 546 l 249 894 l 757 894 l 757 989 l 143 989 l 143 0 z "},"F":{"ha":806,"x_min":0,"x_max":0,"o":"m 757 894 l 757 989 l 143 989 l 143 0 l 249 0 l 249 436 l 682 436 l 682 531 l 249 531 l 249 894 z "},"G":{"ha":903,"x_min":0,"x_max":0,"o":"m 800 361 l 800 518 l 451 518 l 451 425 l 694 425 l 694 350 b 639 171 694 274 679 219 b 451 86 593 115 524 86 b 281 156 386 86 324 111 b 211 494 218 219 211 288 b 281 832 211 701 218 768 b 451 903 324 876 386 903 b 692 701 575 903 664 826 l 797 701 b 451 997 768 875 640 997 b 199 894 353 997 265 961 b 106 494 106 801 106 704 b 199 94 106 285 106 188 b 451 -8 265 28 354 -8 b 715 106 553 -8 646 31 b 800 361 776 171 800 247 z "},"H":{"ha":967,"x_min":0,"x_max":0,"o":"m 824 0 l 824 989 l 718 989 l 718 546 l 249 546 l 249 989 l 143 989 l 143 0 l 249 0 l 249 451 l 718 451 l 718 0 z "},"I":{"ha":392,"x_min":0,"x_max":0,"o":"m 249 0 l 249 989 l 143 989 l 143 0 z "},"J":{"ha":696,"x_min":0,"x_max":0,"o":"m 567 300 l 567 989 l 461 989 l 461 314 b 258 86 461 168 388 86 b 103 151 176 86 139 115 l 32 81 b 258 -8 93 19 164 -8 b 567 300 439 -8 567 110 z "},"K":{"ha":903,"x_min":0,"x_max":0,"o":"m 883 0 l 528 607 l 839 989 l 710 989 l 249 421 l 249 989 l 143 989 l 143 0 l 249 0 l 249 276 l 457 526 l 758 0 z "},"L":{"ha":796,"x_min":0,"x_max":0,"o":"m 754 0 l 754 94 l 249 94 l 249 989 l 143 989 l 143 0 z "},"M":{"ha":1133,"x_min":0,"x_max":0,"o":"m 990 0 l 990 989 l 885 989 l 571 288 l 249 989 l 143 989 l 143 0 l 249 0 l 249 751 l 524 156 l 614 156 l 885 751 l 885 0 z "},"N":{"ha":1017,"x_min":0,"x_max":0,"o":"m 874 0 l 874 989 l 768 989 l 768 199 l 243 989 l 143 989 l 143 0 l 249 0 l 249 793 l 774 0 z "},"O":{"ha":903,"x_min":0,"x_max":0,"o":"m 797 494 b 704 894 797 704 797 801 b 451 997 638 961 550 997 b 199 894 353 997 265 961 b 106 494 106 801 106 704 b 199 94 106 285 106 188 b 451 -8 265 28 353 -8 b 704 94 550 -8 638 28 b 797 494 797 188 797 285 z m 692 494 b 622 157 692 288 685 221 b 451 86 579 113 517 86 b 281 157 386 86 324 113 b 211 494 218 221 211 288 b 281 832 211 701 218 768 b 451 903 324 876 386 903 b 622 832 517 903 579 876 b 692 494 685 768 692 701 z "},"P":{"ha":875,"x_min":0,"x_max":0,"o":"m 817 699 b 511 989 817 876 692 989 l 143 989 l 143 0 l 249 0 l 249 407 l 511 407 b 817 699 692 407 817 521 z m 711 699 b 501 501 711 568 625 501 l 249 501 l 249 894 l 501 894 b 711 699 625 894 711 829 z "},"Q":{"ha":901,"x_min":0,"x_max":0,"o":"m 838 15 l 729 124 b 797 494 797 208 797 306 b 704 894 797 704 797 801 b 451 997 638 961 550 997 b 199 894 353 997 265 961 b 106 494 106 801 106 704 b 199 94 106 285 106 188 b 451 -8 265 28 353 -8 b 664 61 531 -8 604 15 l 774 -49 z m 692 494 b 651 201 692 336 688 260 l 531 322 l 467 258 l 592 133 b 451 86 551 103 504 86 b 281 157 386 86 324 113 b 211 494 218 221 211 288 b 281 832 211 701 218 768 b 451 903 324 876 386 903 b 622 832 517 903 579 876 b 692 494 685 768 692 701 z "},"R":{"ha":911,"x_min":0,"x_max":0,"o":"m 835 0 l 600 449 b 815 714 728 475 815 569 b 522 989 815 885 694 989 l 143 989 l 143 0 l 249 0 l 249 439 l 486 439 l 711 0 z m 710 713 b 513 532 710 592 628 532 l 249 532 l 249 894 l 513 894 b 710 713 628 894 710 833 z "},"S":{"ha":817,"x_min":0,"x_max":0,"o":"m 739 272 b 656 468 739 354 710 422 b 475 538 614 504 568 524 l 367 554 b 233 608 315 563 264 582 b 189 722 203 635 189 674 b 397 906 189 832 265 906 b 628 821 501 906 567 876 l 696 889 b 401 997 611 965 528 997 b 85 718 206 997 85 886 b 160 533 85 639 110 578 b 342 458 203 496 264 471 l 457 440 b 586 393 529 429 554 421 b 633 269 618 365 633 321 b 400 86 633 154 544 86 b 131 194 289 86 213 113 l 58 122 b 397 -8 151 29 249 -8 b 739 272 603 -8 739 99 z "},"T":{"ha":761,"x_min":0,"x_max":0,"o":"m 719 894 l 719 989 l 42 989 l 42 894 l 328 894 l 328 0 l 433 0 l 433 894 z "},"U":{"ha":949,"x_min":0,"x_max":0,"o":"m 819 326 l 819 989 l 714 989 l 714 335 b 474 86 714 185 618 86 b 235 335 329 86 235 185 l 235 989 l 129 989 l 129 326 b 474 -8 129 129 274 -8 b 819 326 674 -8 819 129 z "},"V":{"ha":758,"x_min":0,"x_max":0,"o":"m 747 989 l 636 989 l 379 189 l 122 989 l 11 989 l 336 0 l 422 0 z "},"W":{"ha":1186,"x_min":0,"x_max":0,"o":"m 1164 989 l 1051 989 l 858 192 l 640 989 l 546 989 l 328 192 l 135 989 l 22 989 l 275 0 l 374 0 l 593 792 l 813 0 l 911 0 z "},"X":{"ha":765,"x_min":0,"x_max":0,"o":"m 744 0 l 439 507 l 724 989 l 601 989 l 382 599 l 163 989 l 40 989 l 324 507 l 21 0 l 140 0 l 382 415 l 622 0 z "},"Y":{"ha":714,"x_min":0,"x_max":0,"o":"m 703 989 l 589 989 l 358 515 l 125 989 l 11 989 l 306 408 l 306 0 l 411 0 l 411 408 z "},"Z":{"ha":772,"x_min":0,"x_max":0,"o":"m 693 0 l 693 94 l 194 94 l 693 900 l 693 989 l 99 989 l 99 894 l 574 894 l 79 100 l 79 0 z "},"[":{"ha":435,"x_min":0,"x_max":0,"o":"m 374 -103 l 374 -14 l 228 -14 l 228 1003 l 374 1003 l 374 1092 l 128 1092 l 128 -103 z "},"\\":{"ha":493,"x_min":0,"x_max":0,"o":"m 493 -103 l 99 1088 l 0 1088 l 394 -103 z "},"]":{"ha":435,"x_min":0,"x_max":0,"o":"m 307 -103 l 307 1092 l 61 1092 l 61 1006 l 211 1006 l 211 -17 l 61 -17 l 61 -103 z "},"^":{"ha":746,"x_min":0,"x_max":0,"o":"m 646 574 l 419 997 l 328 997 l 100 574 l 203 574 l 374 890 l 543 574 z "},"_":{"ha":746,"x_min":0,"x_max":0,"o":"m 746 -229 l 746 -158 l 0 -158 l 0 -229 z "},"`":{"ha":694,"x_min":0,"x_max":0,"o":"m 415 825 l 293 1038 l 174 1038 l 324 825 z "},"a":{"ha":731,"x_min":0,"x_max":0,"o":"m 613 0 l 613 464 b 339 692 613 613 522 692 b 97 590 228 692 158 669 l 165 528 b 338 606 206 585 250 606 b 513 456 463 606 513 556 l 513 390 l 307 390 b 71 193 154 390 71 313 b 122 54 71 139 89 88 b 315 -8 165 10 221 -8 b 513 65 407 -8 457 10 l 513 0 z m 513 242 b 478 124 513 185 501 146 b 325 78 435 82 383 78 b 168 194 217 78 168 115 b 321 315 168 274 218 315 l 513 315 z "},"b":{"ha":757,"x_min":0,"x_max":0,"o":"m 668 342 b 585 632 668 449 654 563 b 418 692 549 668 488 692 b 225 604 343 692 281 675 l 225 989 l 125 989 l 125 0 l 225 0 l 225 82 b 418 -8 281 10 343 -8 b 585 51 488 -8 549 15 b 668 342 654 121 668 235 z m 568 342 b 397 81 568 208 546 81 b 225 342 249 81 225 208 b 397 603 225 475 249 603 b 568 342 546 603 568 475 z "},"c":{"ha":681,"x_min":0,"x_max":0,"o":"m 615 93 l 547 158 b 390 81 496 101 456 81 b 232 158 324 81 268 107 b 188 342 200 203 188 256 b 232 525 188 428 200 481 b 390 603 268 576 324 603 b 547 526 456 603 496 583 l 615 590 b 390 692 544 667 485 692 b 88 342 218 692 88 575 b 390 -8 88 108 218 -8 b 615 93 485 -8 544 17 z "},"d":{"ha":757,"x_min":0,"x_max":0,"o":"m 632 0 l 632 989 l 532 989 l 532 604 b 339 692 476 675 414 692 b 172 632 269 692 208 668 b 89 342 103 563 89 449 b 172 51 89 235 103 121 b 339 -8 208 15 269 -8 b 533 82 414 -8 478 10 l 533 0 z m 532 342 b 361 81 532 208 510 81 b 189 342 213 81 189 208 b 361 603 189 475 213 603 b 532 342 510 603 532 475 z "},"e":{"ha":736,"x_min":0,"x_max":0,"o":"m 649 315 l 649 361 b 368 692 649 564 544 692 b 88 342 194 692 88 563 b 386 -8 88 100 206 -8 b 636 97 503 -8 567 28 l 568 157 b 389 79 514 103 468 79 b 188 315 258 79 188 165 z m 549 390 l 188 390 b 208 504 190 446 193 467 b 368 607 235 567 296 607 b 528 504 440 607 501 567 b 549 390 543 467 546 446 z "},"f":{"ha":436,"x_min":0,"x_max":0,"o":"m 393 603 l 393 679 l 247 679 l 247 806 b 339 906 247 868 275 906 l 393 906 l 393 992 l 321 992 b 147 808 204 992 147 910 l 147 679 l 60 679 l 60 603 l 147 603 l 147 0 l 247 0 l 247 603 z "},"g":{"ha":754,"x_min":0,"x_max":0,"o":"m 629 -21 l 629 683 l 531 683 l 531 603 b 339 692 475 675 414 692 b 172 632 269 692 208 668 b 89 347 104 564 89 458 b 172 63 89 236 104 131 b 338 1 208 26 268 1 b 529 90 411 1 474 19 l 529 -17 b 342 -226 529 -133 474 -226 b 178 -158 263 -226 228 -203 l 113 -222 b 344 -314 185 -287 242 -314 b 629 -21 524 -314 629 -190 z m 529 347 b 360 92 529 219 508 92 b 189 347 211 92 189 219 b 360 603 189 475 211 603 b 529 347 508 603 529 475 z "},"h":{"ha":781,"x_min":0,"x_max":0,"o":"m 663 0 l 663 439 b 417 692 663 593 571 692 b 225 608 340 692 275 665 l 225 989 l 125 989 l 125 0 l 225 0 l 225 422 b 396 603 225 540 293 603 b 563 422 499 603 563 542 l 563 0 z "},"i":{"ha":351,"x_min":0,"x_max":0,"o":"m 225 0 l 225 683 l 125 683 l 125 0 z m 232 878 l 232 990 l 119 990 l 119 878 z "},"j":{"ha":351,"x_min":0,"x_max":0,"o":"m 225 -124 l 225 679 l 125 679 l 125 -119 b 33 -219 125 -186 103 -219 l -21 -219 l -21 -307 l 51 -307 b 225 -124 171 -307 225 -228 z m 232 878 l 232 990 l 119 990 l 119 878 z "},"k":{"ha":744,"x_min":0,"x_max":0,"o":"m 699 0 l 426 422 l 658 683 l 533 683 l 225 328 l 225 989 l 125 989 l 125 0 l 225 0 l 225 197 l 358 350 l 575 0 z "},"l":{"ha":413,"x_min":0,"x_max":0,"o":"m 368 0 l 368 86 l 314 86 b 222 186 244 86 222 119 l 222 989 l 122 989 l 122 182 b 296 0 122 78 176 0 z "},"m":{"ha":1221,"x_min":0,"x_max":0,"o":"m 1103 0 l 1103 438 b 1029 628 1103 517 1078 581 b 853 692 988 668 926 692 b 628 578 757 692 681 653 b 418 692 586 653 513 692 b 225 608 342 692 274 664 l 225 683 l 125 683 l 125 0 l 225 0 l 225 421 b 396 603 225 540 293 603 b 564 421 499 603 564 542 l 564 0 l 664 0 l 664 432 b 835 603 664 540 735 603 b 1003 421 938 603 1003 542 l 1003 0 z "},"n":{"ha":781,"x_min":0,"x_max":0,"o":"m 663 0 l 663 438 b 592 628 663 517 640 581 b 417 692 550 669 490 692 b 225 608 340 692 274 664 l 225 683 l 125 683 l 125 0 l 225 0 l 225 421 b 394 603 225 540 292 603 b 563 421 497 603 563 542 l 563 0 z "},"o":{"ha":736,"x_min":0,"x_max":0,"o":"m 647 342 b 564 614 647 447 633 543 b 368 692 517 661 451 692 b 172 614 285 692 219 661 b 89 342 103 543 89 447 b 172 69 89 236 103 140 b 368 -8 219 22 285 -8 b 564 69 451 -8 517 22 b 647 342 633 140 647 236 z m 547 342 b 493 131 547 265 543 181 b 368 81 461 99 417 81 b 244 131 319 81 276 99 b 189 342 194 181 189 265 b 244 553 189 418 194 503 b 368 603 276 585 319 603 b 493 553 417 603 461 585 b 547 342 543 503 547 418 z "},"p":{"ha":757,"x_min":0,"x_max":0,"o":"m 668 342 b 585 632 668 449 654 563 b 418 692 549 668 488 692 b 225 603 343 692 281 675 l 225 683 l 125 683 l 125 -306 l 225 -306 l 225 81 b 418 -8 281 10 343 -8 b 585 51 488 -8 549 15 b 668 342 654 121 668 235 z m 568 342 b 397 81 568 208 546 81 b 225 342 249 81 225 208 b 397 603 225 475 249 603 b 568 342 546 603 568 475 z "},"q":{"ha":757,"x_min":0,"x_max":0,"o":"m 632 -306 l 632 683 l 533 683 l 533 603 b 339 692 478 675 414 692 b 172 632 269 692 208 668 b 89 342 103 563 89 449 b 172 51 89 235 103 121 b 339 -8 208 15 269 -8 b 532 81 414 -8 476 10 l 532 -306 z m 532 342 b 361 81 532 208 510 81 b 189 342 213 81 189 208 b 361 603 189 475 213 603 b 532 342 510 603 532 475 z "},"r":{"ha":585,"x_min":0,"x_max":0,"o":"m 581 628 b 417 692 532 676 482 692 b 225 600 338 692 263 657 l 225 683 l 125 683 l 125 0 l 225 0 l 225 419 b 389 603 225 524 289 603 b 507 553 442 603 469 590 z "},"s":{"ha":689,"x_min":0,"x_max":0,"o":"m 618 200 b 417 385 618 328 536 374 l 307 394 b 188 494 221 401 188 436 b 340 607 188 564 240 607 b 522 553 411 607 474 590 l 588 618 b 342 692 526 668 439 692 b 90 492 196 692 90 617 b 294 308 90 379 161 319 l 407 299 b 521 199 486 292 521 258 b 339 78 521 118 451 78 b 126 157 254 78 181 100 l 60 90 b 340 -8 135 18 225 -8 b 618 200 506 -8 618 68 z "},"t":{"ha":461,"x_min":0,"x_max":0,"o":"m 388 0 l 388 86 l 335 86 b 242 186 271 86 242 124 l 242 603 l 388 603 l 388 679 l 242 679 l 242 893 l 142 893 l 142 679 l 56 679 l 56 603 l 142 603 l 142 183 b 317 0 142 82 200 0 z "},"u":{"ha":781,"x_min":0,"x_max":0,"o":"m 656 0 l 656 683 l 556 683 l 556 263 b 385 81 556 143 488 81 b 218 263 282 81 218 142 l 218 683 l 118 683 l 118 247 b 188 56 118 168 139 103 b 364 -8 229 14 290 -8 b 557 76 440 -8 508 21 l 557 0 z "},"v":{"ha":621,"x_min":0,"x_max":0,"o":"m 606 683 l 497 683 l 310 135 l 124 683 l 15 683 l 265 0 l 354 0 z "},"w":{"ha":1006,"x_min":0,"x_max":0,"o":"m 990 683 l 882 683 l 726 135 l 546 683 l 460 683 l 281 135 l 124 683 l 15 683 l 232 0 l 325 0 l 503 531 l 682 0 l 775 0 z "},"x":{"ha":664,"x_min":0,"x_max":0,"o":"m 618 0 l 386 349 l 608 683 l 488 683 l 333 431 l 176 683 l 56 683 l 278 349 l 46 0 l 167 0 l 333 265 l 497 0 z "},"y":{"ha":621,"x_min":0,"x_max":0,"o":"m 606 683 l 497 683 l 311 135 l 124 683 l 15 683 l 261 14 l 213 -119 b 100 -204 190 -182 169 -204 l 69 -204 l 69 -293 l 113 -293 b 246 -246 161 -293 210 -281 b 294 -165 265 -228 281 -203 z "},"z":{"ha":638,"x_min":0,"x_max":0,"o":"m 565 0 l 565 89 l 183 89 l 565 599 l 565 683 l 90 683 l 90 594 l 450 594 l 69 86 l 69 0 z "},"{":{"ha":492,"x_min":0,"x_max":0,"o":"m 424 -103 l 424 -14 l 392 -14 b 310 4 343 -14 324 -10 b 290 94 294 19 290 44 l 290 356 b 203 494 290 435 256 469 b 290 633 256 519 290 554 l 290 894 b 310 985 290 944 294 969 b 392 1003 324 999 343 1003 l 424 1003 l 424 1092 l 372 1092 b 232 1050 303 1092 261 1079 b 190 913 201 1019 190 985 l 190 647 b 165 564 190 608 182 581 b 103 539 151 550 129 539 l 67 539 l 67 450 l 103 450 b 165 425 129 450 151 439 b 190 342 182 408 190 381 l 190 76 b 232 -61 190 4 201 -31 b 372 -103 261 -90 303 -103 z "},"|":{"ha":453,"x_min":0,"x_max":0,"o":"m 276 -103 l 276 1092 l 176 1092 l 176 -103 z "},"}":{"ha":492,"x_min":0,"x_max":0,"o":"m 424 450 l 424 539 l 389 539 b 326 564 363 539 340 550 b 301 647 310 581 301 608 l 301 913 b 260 1050 301 985 290 1019 b 119 1092 231 1079 189 1092 l 67 1092 l 67 1003 l 100 1003 b 181 985 149 1003 167 999 b 201 894 196 969 201 944 l 201 633 b 289 494 201 554 236 519 b 201 356 236 469 201 435 l 201 94 b 181 4 201 44 196 19 b 100 -14 167 -10 149 -14 l 67 -14 l 67 -103 l 119 -103 b 260 -61 189 -103 231 -90 b 301 76 290 -31 301 4 l 301 342 b 326 425 301 381 310 408 b 389 450 340 439 363 450 z "},"~":{"ha":749,"x_min":0,"x_max":0,"o":"m 681 386 l 618 449 b 501 386 564 394 540 386 b 393 419 464 386 432 401 b 247 463 340 443 296 463 b 68 368 185 463 146 446 l 129 306 b 246 368 183 360 207 368 b 354 335 283 368 315 353 b 501 292 407 311 453 292 b 681 386 564 292 603 308 z "}," ":{"ha":346,"x_min":0,"x_max":0,"o":""},"¡":{"ha":439,"x_min":0,"x_max":0,"o":"m 256 -306 l 240 406 l 154 406 l 140 -306 z m 257 567 l 257 683 l 138 683 l 138 567 z "},"¢":{"ha":692,"x_min":0,"x_max":0,"o":"m 622 263 l 554 326 b 415 250 508 275 471 254 l 415 767 b 554 690 471 763 508 742 l 622 754 b 421 857 558 824 503 851 l 421 989 l 339 989 l 339 854 b 88 508 186 832 88 708 b 339 163 88 308 186 185 l 339 0 l 421 0 l 421 160 b 622 263 503 165 558 193 z m 344 253 b 233 325 299 261 261 286 b 188 508 201 369 188 422 b 233 692 188 594 201 647 b 344 764 261 731 299 756 z "},"£":{"ha":761,"x_min":0,"x_max":0,"o":"m 689 0 l 689 94 l 260 94 l 260 458 l 463 458 l 463 533 l 260 533 l 260 675 b 463 903 260 821 333 903 b 617 838 544 903 581 874 l 689 908 b 463 997 628 969 557 997 b 153 689 282 997 153 879 l 153 533 l 65 533 l 65 458 l 153 458 l 153 0 z "},"¤":{"ha":917,"x_min":0,"x_max":0,"o":"m 808 90 l 706 193 b 767 376 743 243 767 307 b 706 560 767 446 743 510 l 808 661 l 744 725 l 640 624 b 458 683 590 661 528 683 b 275 624 389 683 325 661 l 172 725 l 108 661 l 211 560 b 150 376 174 510 150 446 b 211 193 150 307 174 243 l 108 90 l 172 26 l 275 129 b 458 68 325 92 389 68 b 640 129 528 68 590 92 l 744 26 z m 674 376 b 458 160 674 257 578 160 b 242 376 339 160 242 257 b 458 592 242 496 339 592 b 674 376 578 592 674 496 z "},"¥":{"ha":714,"x_min":0,"x_max":0,"o":"m 703 989 l 590 989 l 358 515 l 125 989 l 11 989 l 229 557 l 90 557 l 90 482 l 268 482 l 304 408 l 304 336 l 90 336 l 90 260 l 304 260 l 304 0 l 411 0 l 411 260 l 624 260 l 624 336 l 411 336 l 411 408 l 447 482 l 624 482 l 624 557 l 485 557 z "},"¦":{"ha":465,"x_min":0,"x_max":0,"o":"m 276 606 l 276 1092 l 176 1092 l 176 606 z m 276 -103 l 276 383 l 176 383 l 176 -103 z "},"§":{"ha":774,"x_min":0,"x_max":0,"o":"m 653 353 b 463 607 653 478 583 572 l 354 638 b 238 771 285 657 238 697 b 388 908 238 861 294 908 b 540 779 476 908 533 871 l 640 779 b 388 997 635 914 532 997 b 138 769 242 997 138 904 b 267 578 138 668 188 614 b 121 350 192 542 121 464 b 311 96 121 224 189 131 l 419 65 b 542 -76 497 43 542 -12 b 388 -222 542 -169 482 -222 b 226 -90 294 -222 235 -176 l 125 -90 b 388 -314 133 -239 250 -314 b 643 -75 531 -314 643 -219 b 508 125 643 26 588 96 b 653 353 582 161 653 239 z m 551 351 b 507 224 551 292 535 254 b 388 174 478 192 436 174 b 268 224 339 174 297 192 b 222 351 242 253 222 292 b 268 479 222 408 236 444 b 388 529 297 511 339 529 b 507 479 436 529 475 511 b 551 351 542 444 551 404 z "},"¨":{"ha":694,"x_min":0,"x_max":0,"o":"m 544 836 l 544 960 l 444 960 l 444 836 z m 250 836 l 250 960 l 150 960 l 150 836 z "},"©":{"ha":1224,"x_min":0,"x_max":0,"o":"m 1114 494 b 611 997 1114 772 889 997 b 108 494 333 997 108 772 b 611 -8 108 217 333 -8 b 1114 494 889 -8 1114 217 z m 1033 494 b 611 67 1033 260 844 67 b 190 494 378 67 190 260 b 611 922 190 729 378 922 b 1033 494 844 922 1033 729 z m 800 285 l 750 335 b 618 282 704 294 669 282 b 449 494 492 282 449 378 b 618 708 449 611 492 708 b 750 654 669 708 704 694 l 800 704 b 618 778 743 754 696 778 b 371 494 457 778 371 657 b 618 213 371 332 457 213 b 800 285 696 213 746 236 z "},"ª":{"ha":624,"x_min":0,"x_max":0,"o":"m 507 443 l 507 811 b 292 994 507 929 438 994 b 97 911 204 994 147 975 l 154 860 b 290 921 188 906 222 921 b 425 804 389 921 425 882 l 425 754 l 265 754 b 78 596 144 754 78 692 b 119 486 78 553 93 514 b 272 436 154 451 197 436 b 426 493 343 436 383 451 l 426 443 z m 425 636 b 399 543 425 590 417 560 b 279 508 365 511 325 508 b 160 599 196 508 160 538 b 276 692 160 660 197 692 l 425 692 z "},"«":{"ha":769,"x_min":0,"x_max":0,"o":"m 347 81 l 347 204 l 181 372 l 347 539 l 347 664 l 56 372 z m 661 81 l 661 204 l 493 372 l 661 539 l 661 664 l 369 372 z "},"¬":{"ha":725,"x_min":0,"x_max":0,"o":"m 654 143 l 654 426 l 71 426 l 71 333 l 561 333 l 561 143 z "},"­":{"ha":592,"x_min":0,"x_max":0,"o":"m 486 328 l 486 421 l 106 421 l 106 328 z "},"®":{"ha":1224,"x_min":0,"x_max":0,"o":"m 1114 494 b 611 997 1114 772 889 997 b 108 494 333 997 108 772 b 611 -8 108 217 333 -8 b 1114 494 889 -8 1114 217 z m 1035 494 b 611 65 1035 258 844 65 b 189 494 378 65 189 258 b 611 924 189 731 378 924 b 1035 494 844 924 1035 731 z m 822 219 l 690 454 b 808 606 758 475 808 525 b 635 771 808 699 731 771 l 447 771 l 447 219 l 524 219 l 524 444 l 607 444 l 733 219 z m 731 606 b 626 510 731 550 688 510 l 524 510 l 524 703 l 626 703 b 731 606 688 703 731 661 z "},"¯":{"ha":694,"x_min":0,"x_max":0,"o":"m 138 851 l 556 851 l 556 931 l 138 931 z "},"°":{"ha":643,"x_min":0,"x_max":0,"o":"m 550 774 b 322 1001 550 900 449 1001 b 93 774 196 1001 93 900 b 322 546 93 647 196 546 b 550 774 449 546 550 647 z m 465 774 b 322 626 465 690 404 626 b 178 774 240 626 178 690 b 321 921 178 857 239 921 b 465 774 403 921 465 857 z "},"±":{"ha":725,"x_min":0,"x_max":0,"o":"m 653 401 l 653 494 l 410 494 l 410 738 l 317 738 l 317 494 l 72 494 l 72 401 l 317 401 l 317 156 l 410 156 l 410 401 z m 653 0 l 653 93 l 72 93 l 72 0 z "},"²":{"ha":475,"x_min":0,"x_max":0,"o":"m 408 396 l 408 468 l 163 468 l 354 701 b 408 829 390 746 408 778 b 238 994 408 931 338 994 b 67 829 138 994 67 929 l 147 829 b 238 922 147 897 190 922 b 328 829 294 922 328 885 b 296 749 328 799 318 776 l 67 468 l 67 396 z "},"³":{"ha":494,"x_min":0,"x_max":0,"o":"m 428 563 b 343 701 428 636 396 679 b 418 829 390 724 418 765 b 247 994 418 928 347 994 b 75 835 154 994 81 935 l 154 835 b 247 922 158 889 193 922 b 339 828 297 922 339 890 b 244 733 339 771 308 733 l 232 733 l 232 664 l 244 664 b 349 563 314 664 349 625 b 249 461 349 499 306 461 b 147 554 197 461 150 489 l 67 554 b 249 389 71 440 154 389 b 428 563 347 389 428 449 z "},"´":{"ha":694,"x_min":0,"x_max":0,"o":"m 521 1038 l 401 1038 l 279 825 l 371 825 z "},"µ":{"ha":779,"x_min":0,"x_max":0,"o":"m 654 0 l 654 683 l 554 683 l 554 263 b 383 81 554 143 486 81 b 215 263 281 81 215 142 l 215 683 l 115 683 l 115 -306 l 215 -306 l 215 43 b 363 -8 251 10 301 -8 b 554 76 439 -8 506 21 l 554 0 z "},"¶":{"ha":838,"x_min":0,"x_max":0,"o":"m 694 -306 l 694 989 l 360 989 b 58 719 169 989 58 868 b 332 453 58 583 165 453 l 332 -306 l 432 -306 l 432 894 l 594 894 l 594 -306 z "},"·":{"ha":375,"x_min":0,"x_max":0,"o":"m 253 310 l 253 440 l 122 440 l 122 310 z "},"¸":{"ha":694,"x_min":0,"x_max":0,"o":"m 435 -93 l 342 -93 l 243 -300 l 353 -300 z "},"¹":{"ha":363,"x_min":0,"x_max":0,"o":"m 254 396 l 254 989 l 175 989 l 60 890 l 60 799 l 175 900 l 175 396 z "},"º":{"ha":632,"x_min":0,"x_max":0,"o":"m 538 715 b 471 932 538 799 526 875 b 315 994 433 969 382 994 b 160 932 249 994 197 969 b 93 715 104 875 93 799 b 160 499 93 631 104 556 b 315 438 197 461 249 438 b 471 499 382 438 433 461 b 538 715 526 556 538 631 z m 456 715 b 413 551 456 656 451 590 b 315 511 388 526 353 511 b 218 551 278 511 243 526 b 176 715 179 590 176 656 b 218 881 176 775 179 842 b 315 919 243 906 278 919 b 413 881 353 919 388 906 b 456 715 451 842 456 775 z "},"»":{"ha":769,"x_min":0,"x_max":0,"o":"m 714 372 l 422 664 l 422 539 l 589 372 l 422 204 l 422 81 z m 400 372 l 108 664 l 108 539 l 276 372 l 108 204 l 108 81 z "},"¼":{"ha":1079,"x_min":0,"x_max":0,"o":"m 1024 89 l 1024 163 l 958 163 l 958 308 l 881 308 l 881 163 l 729 163 l 938 593 l 851 593 l 642 163 l 642 89 l 881 89 l 881 0 l 958 0 l 958 89 z m 786 989 l 703 989 l 240 0 l 324 0 z m 254 396 l 254 989 l 175 989 l 60 890 l 60 799 l 175 900 l 175 396 z "},"½":{"ha":1097,"x_min":0,"x_max":0,"o":"m 1031 0 l 1031 72 l 786 72 l 976 306 b 1031 433 1013 350 1031 382 b 860 599 1031 535 960 599 b 689 433 760 599 689 533 l 769 433 b 860 526 769 501 813 526 b 950 433 917 526 950 489 b 918 353 950 403 940 381 l 689 72 l 689 0 z m 769 989 l 686 989 l 224 0 l 307 0 z m 254 396 l 254 989 l 175 989 l 60 890 l 60 799 l 175 900 l 175 396 z "},"¾":{"ha":1142,"x_min":0,"x_max":0,"o":"m 428 563 b 343 701 428 636 396 679 b 418 829 390 724 418 765 b 247 994 418 928 347 994 b 75 835 154 994 81 935 l 154 835 b 247 922 158 889 193 922 b 339 828 297 922 339 890 b 244 733 339 771 308 733 l 232 733 l 232 664 l 244 664 b 349 563 314 664 349 625 b 249 461 349 499 306 461 b 147 554 197 461 150 489 l 67 554 b 249 389 71 440 154 389 b 428 563 347 389 428 449 z m 1086 89 l 1086 163 l 1021 163 l 1021 308 l 943 308 l 943 163 l 790 163 l 1000 593 l 914 593 l 704 163 l 704 89 l 943 89 l 943 0 l 1021 0 l 1021 89 z m 860 989 l 776 989 l 313 0 l 396 0 z "},"¿":{"ha":690,"x_min":0,"x_max":0,"o":"m 585 -60 l 485 -60 b 325 -224 485 -147 424 -224 b 164 -60 232 -224 164 -153 b 210 58 164 -12 183 19 l 322 219 b 367 350 351 261 367 296 l 367 407 l 267 407 l 267 351 b 242 271 267 329 258 296 l 128 107 b 64 -60 92 54 64 6 b 325 -314 64 -208 179 -314 b 585 -60 475 -314 585 -201 z m 375 567 l 375 683 l 257 683 l 257 567 z "},"À":{"ha":849,"x_min":0,"x_max":0,"o":"m 832 0 l 469 989 l 381 989 l 17 0 l 129 0 l 208 224 l 640 224 l 719 0 z m 610 315 l 240 315 l 426 838 z m 488 1085 l 365 1297 l 246 1297 l 396 1085 z "},"Á":{"ha":849,"x_min":0,"x_max":0,"o":"m 832 0 l 469 989 l 381 989 l 17 0 l 129 0 l 208 224 l 640 224 l 719 0 z m 610 315 l 240 315 l 426 838 z m 593 1297 l 474 1297 l 351 1085 l 443 1085 z "},"Â":{"ha":849,"x_min":0,"x_max":0,"o":"m 832 0 l 469 989 l 381 989 l 17 0 l 129 0 l 208 224 l 640 224 l 719 0 z m 610 315 l 240 315 l 426 838 z m 640 1085 l 467 1297 l 372 1297 l 199 1085 l 294 1085 l 419 1229 l 544 1085 z "},"Ã":{"ha":849,"x_min":0,"x_max":0,"o":"m 832 0 l 469 989 l 381 989 l 17 0 l 129 0 l 208 224 l 640 224 l 719 0 z m 610 315 l 240 315 l 426 838 z m 638 1172 l 586 1224 b 504 1179 544 1182 525 1179 b 426 1207 476 1179 456 1189 b 328 1240 392 1229 368 1240 b 196 1169 294 1240 258 1232 l 247 1119 b 329 1164 288 1160 306 1164 b 407 1135 357 1164 381 1150 b 506 1103 440 1115 465 1103 b 638 1172 538 1103 574 1110 z "},"Ä":{"ha":849,"x_min":0,"x_max":0,"o":"m 832 0 l 469 989 l 381 989 l 17 0 l 129 0 l 208 224 l 640 224 l 719 0 z m 610 315 l 240 315 l 426 838 z m 622 1096 l 622 1219 l 522 1219 l 522 1096 z m 328 1096 l 328 1219 l 228 1219 l 228 1096 z "},"Å":{"ha":849,"x_min":0,"x_max":0,"o":"m 832 0 l 469 989 l 381 989 l 17 0 l 129 0 l 208 224 l 640 224 l 719 0 z m 610 315 l 240 315 l 426 838 z m 583 1204 b 419 1368 583 1296 510 1368 b 256 1204 329 1368 256 1294 b 419 1039 256 1114 329 1039 b 583 1204 510 1039 583 1114 z m 515 1204 b 419 1108 515 1151 472 1108 b 324 1204 367 1108 324 1151 b 419 1299 324 1257 367 1299 b 515 1204 472 1299 515 1257 z "},"Æ":{"ha":1281,"x_min":0,"x_max":0,"o":"m 1204 0 l 1204 94 l 696 94 l 696 449 l 1129 449 l 1129 543 l 696 543 l 696 894 l 1204 894 l 1204 989 l 533 989 l 11 0 l 126 0 l 249 235 l 592 235 l 592 0 z m 592 326 l 294 326 l 592 894 z "},"Ç":{"ha":885,"x_min":0,"x_max":0,"o":"m 794 286 l 689 286 b 451 86 663 165 575 86 b 281 156 386 86 324 111 b 211 494 218 219 211 288 b 281 833 211 701 218 769 b 451 903 324 878 386 903 b 686 703 575 903 660 824 l 794 703 b 451 997 761 889 629 997 b 199 894 354 997 265 961 b 106 494 106 801 106 704 b 199 94 106 285 106 188 b 451 -8 265 28 354 -8 b 794 286 628 -8 763 100 z m 514 -93 l 421 -93 l 322 -300 l 432 -300 z "},"È":{"ha":833,"x_min":0,"x_max":0,"o":"m 757 0 l 757 94 l 249 94 l 249 451 l 682 451 l 682 546 l 249 546 l 249 894 l 757 894 l 757 989 l 143 989 l 143 0 z m 503 1085 l 381 1297 l 261 1297 l 411 1085 z "},"É":{"ha":833,"x_min":0,"x_max":0,"o":"m 757 0 l 757 94 l 249 94 l 249 451 l 682 451 l 682 546 l 249 546 l 249 894 l 757 894 l 757 989 l 143 989 l 143 0 z m 608 1297 l 489 1297 l 367 1085 l 458 1085 z "},"Ê":{"ha":833,"x_min":0,"x_max":0,"o":"m 757 0 l 757 94 l 249 94 l 249 451 l 682 451 l 682 546 l 249 546 l 249 894 l 757 894 l 757 989 l 143 989 l 143 0 z m 656 1085 l 482 1297 l 388 1297 l 214 1085 l 310 1085 l 435 1229 l 560 1085 z "},"Ë":{"ha":833,"x_min":0,"x_max":0,"o":"m 757 0 l 757 94 l 249 94 l 249 451 l 682 451 l 682 546 l 249 546 l 249 894 l 757 894 l 757 989 l 143 989 l 143 0 z m 632 1096 l 632 1219 l 532 1219 l 532 1096 z m 338 1096 l 338 1219 l 238 1219 l 238 1096 z "},"Ì":{"ha":392,"x_min":0,"x_max":0,"o":"m 249 0 l 249 989 l 143 989 l 143 0 z m 249 1085 l 126 1297 l 7 1297 l 157 1085 z "},"Í":{"ha":392,"x_min":0,"x_max":0,"o":"m 249 0 l 249 989 l 143 989 l 143 0 z m 385 1297 l 265 1297 l 143 1085 l 235 1085 z "},"Î":{"ha":392,"x_min":0,"x_max":0,"o":"m 249 0 l 249 989 l 143 989 l 143 0 z m 415 1085 l 242 1297 l 147 1297 l -26 1085 l 69 1085 l 194 1229 l 319 1085 z "},"Ï":{"ha":392,"x_min":0,"x_max":0,"o":"m 249 0 l 249 989 l 143 989 l 143 0 z m 393 1096 l 393 1219 l 293 1219 l 293 1096 z m 99 1096 l 99 1219 l -1 1219 l -1 1096 z "},"Ð":{"ha":954,"x_min":0,"x_max":0,"o":"m 849 494 b 788 840 849 708 844 753 b 503 989 724 938 626 989 l 163 989 l 163 540 l 54 540 l 54 458 l 163 458 l 163 0 l 494 0 b 788 146 631 0 728 63 b 849 494 840 221 849 269 z m 743 489 b 700 196 743 297 740 257 b 483 93 654 128 579 93 l 269 93 l 269 458 l 493 458 l 493 540 l 269 540 l 269 896 l 483 896 b 693 796 576 896 640 868 b 743 489 740 731 743 675 z "},"Ñ":{"ha":1017,"x_min":0,"x_max":0,"o":"m 874 0 l 874 989 l 768 989 l 768 199 l 243 989 l 143 989 l 143 0 l 249 0 l 249 793 l 774 0 z m 726 1172 l 675 1224 b 593 1179 633 1182 614 1179 b 515 1207 565 1179 544 1189 b 417 1240 481 1229 457 1240 b 285 1169 383 1240 347 1232 l 336 1119 b 418 1164 376 1160 394 1164 b 496 1135 446 1164 469 1150 b 594 1103 529 1115 554 1103 b 726 1172 626 1103 663 1110 z "},"Ò":{"ha":903,"x_min":0,"x_max":0,"o":"m 797 494 b 704 894 797 704 797 801 b 451 997 638 961 550 997 b 199 894 353 997 265 961 b 106 494 106 801 106 704 b 199 94 106 285 106 188 b 451 -8 265 28 353 -8 b 704 94 550 -8 638 28 b 797 494 797 188 797 285 z m 692 494 b 622 157 692 288 685 221 b 451 86 579 113 517 86 b 281 157 386 86 324 113 b 211 494 218 221 211 288 b 281 832 211 701 218 768 b 451 903 324 876 386 903 b 622 832 517 903 579 876 b 692 494 685 768 692 701 z m 519 1085 l 397 1297 l 278 1297 l 428 1085 z "},"Ó":{"ha":903,"x_min":0,"x_max":0,"o":"m 797 494 b 704 894 797 704 797 801 b 451 997 638 961 550 997 b 199 894 353 997 265 961 b 106 494 106 801 106 704 b 199 94 106 285 106 188 b 451 -8 265 28 353 -8 b 704 94 550 -8 638 28 b 797 494 797 188 797 285 z m 692 494 b 622 157 692 288 685 221 b 451 86 579 113 517 86 b 281 157 386 86 324 113 b 211 494 218 221 211 288 b 281 832 211 701 218 768 b 451 903 324 876 386 903 b 622 832 517 903 579 876 b 692 494 685 768 692 701 z m 625 1297 l 506 1297 l 383 1085 l 475 1085 z "},"Ô":{"ha":903,"x_min":0,"x_max":0,"o":"m 797 494 b 704 894 797 704 797 801 b 451 997 638 961 550 997 b 199 894 353 997 265 961 b 106 494 106 801 106 704 b 199 94 106 285 106 188 b 451 -8 265 28 353 -8 b 704 94 550 -8 638 28 b 797 494 797 188 797 285 z m 692 494 b 622 157 692 288 685 221 b 451 86 579 113 517 86 b 281 157 386 86 324 113 b 211 494 218 221 211 288 b 281 832 211 701 218 768 b 451 903 324 876 386 903 b 622 832 517 903 579 876 b 692 494 685 768 692 701 z m 672 1085 l 499 1297 l 404 1297 l 231 1085 l 326 1085 l 451 1229 l 576 1085 z "},"Õ":{"ha":903,"x_min":0,"x_max":0,"o":"m 797 494 b 704 894 797 704 797 801 b 451 997 638 961 550 997 b 199 894 353 997 265 961 b 106 494 106 801 106 704 b 199 94 106 285 106 188 b 451 -8 265 28 353 -8 b 704 94 550 -8 638 28 b 797 494 797 188 797 285 z m 692 494 b 622 157 692 288 685 221 b 451 86 579 113 517 86 b 281 157 386 86 324 113 b 211 494 218 221 211 288 b 281 832 211 701 218 768 b 451 903 324 876 386 903 b 622 832 517 903 579 876 b 692 494 685 768 692 701 z m 669 1172 l 618 1224 b 536 1179 576 1182 557 1179 b 458 1207 508 1179 488 1189 b 360 1240 424 1229 400 1240 b 228 1169 326 1240 290 1232 l 279 1119 b 361 1164 319 1160 338 1164 b 439 1135 389 1164 413 1150 b 538 1103 472 1115 497 1103 b 669 1172 569 1103 606 1110 z "},"Ö":{"ha":903,"x_min":0,"x_max":0,"o":"m 797 494 b 704 894 797 704 797 801 b 451 997 638 961 550 997 b 199 894 353 997 265 961 b 106 494 106 801 106 704 b 199 94 106 285 106 188 b 451 -8 265 28 353 -8 b 704 94 550 -8 638 28 b 797 494 797 188 797 285 z m 692 494 b 622 157 692 288 685 221 b 451 86 579 113 517 86 b 281 157 386 86 324 113 b 211 494 218 221 211 288 b 281 832 211 701 218 768 b 451 903 324 876 386 903 b 622 832 517 903 579 876 b 692 494 685 768 692 701 z m 649 1096 l 649 1219 l 549 1219 l 549 1096 z m 354 1096 l 354 1219 l 254 1219 l 254 1096 z "},"×":{"ha":725,"x_min":0,"x_max":0,"o":"m 635 165 l 424 375 l 635 585 l 572 647 l 363 436 l 153 647 l 90 585 l 300 375 l 90 165 l 153 103 l 363 313 l 572 103 z "},"Ø":{"ha":906,"x_min":0,"x_max":0,"o":"m 797 494 b 704 894 797 704 797 801 b 693 906 700 899 697 903 l 763 1050 l 672 1050 l 625 954 b 451 997 574 983 515 997 b 199 894 353 997 265 961 b 106 494 106 801 106 704 b 199 94 106 285 106 188 l 210 83 l 140 -61 l 231 -61 l 276 36 b 451 -8 328 7 388 -8 b 704 94 550 -8 638 28 b 797 494 797 188 797 285 z m 585 863 l 260 182 b 211 494 217 240 211 314 b 281 832 211 701 218 768 b 451 903 324 876 386 903 b 585 863 500 903 546 888 z m 690 494 b 622 157 690 288 685 221 b 451 86 579 113 517 86 b 318 126 403 86 357 101 l 643 807 b 690 494 686 749 690 675 z "},"Ù":{"ha":949,"x_min":0,"x_max":0,"o":"m 819 326 l 819 989 l 714 989 l 714 335 b 474 86 714 185 618 86 b 235 335 329 86 235 185 l 235 989 l 129 989 l 129 326 b 474 -8 129 129 274 -8 b 819 326 674 -8 819 129 z m 542 1085 l 419 1297 l 300 1297 l 450 1085 z "},"Ú":{"ha":949,"x_min":0,"x_max":0,"o":"m 819 326 l 819 989 l 714 989 l 714 335 b 474 86 714 185 618 86 b 235 335 329 86 235 185 l 235 989 l 129 989 l 129 326 b 474 -8 129 129 274 -8 b 819 326 674 -8 819 129 z m 647 1297 l 528 1297 l 406 1085 l 497 1085 z "},"Û":{"ha":949,"x_min":0,"x_max":0,"o":"m 819 326 l 819 989 l 714 989 l 714 335 b 474 86 714 185 618 86 b 235 335 329 86 235 185 l 235 989 l 129 989 l 129 326 b 474 -8 129 129 274 -8 b 819 326 674 -8 819 129 z m 694 1085 l 521 1297 l 426 1297 l 253 1085 l 349 1085 l 474 1229 l 599 1085 z "},"Ü":{"ha":949,"x_min":0,"x_max":0,"o":"m 819 326 l 819 989 l 714 989 l 714 335 b 474 86 714 185 618 86 b 235 335 329 86 235 185 l 235 989 l 129 989 l 129 326 b 474 -8 129 129 274 -8 b 819 326 674 -8 819 129 z m 671 1096 l 671 1219 l 571 1219 l 571 1096 z m 376 1096 l 376 1219 l 276 1219 l 276 1096 z "},"Ý":{"ha":714,"x_min":0,"x_max":0,"o":"m 703 989 l 589 989 l 358 515 l 125 989 l 11 989 l 306 408 l 306 0 l 411 0 l 411 408 z m 531 1297 l 411 1297 l 289 1085 l 381 1085 z "},"Þ":{"ha":892,"x_min":0,"x_max":0,"o":"m 817 499 b 511 790 817 676 692 790 l 249 790 l 249 989 l 143 989 l 143 0 l 249 0 l 249 208 l 511 208 b 817 499 692 208 817 321 z m 711 499 b 501 303 711 368 625 303 l 249 303 l 249 694 l 501 694 b 711 499 625 694 711 629 z "},"ß":{"ha":772,"x_min":0,"x_max":0,"o":"m 672 196 l 672 436 b 585 603 672 525 651 567 b 672 768 640 639 672 692 b 404 999 672 928 551 999 b 125 728 233 999 125 901 l 125 0 l 226 0 l 226 724 b 399 911 226 835 275 911 b 529 871 458 911 500 899 b 572 767 556 846 572 807 b 450 640 572 689 522 640 l 400 640 l 400 557 l 461 557 b 543 528 496 557 524 547 b 572 442 564 507 572 482 l 572 207 b 538 114 572 164 560 132 b 456 86 514 94 496 86 l 400 86 l 400 0 l 475 0 b 618 50 539 0 581 15 b 672 196 653 82 672 133 z "},"à":{"ha":731,"x_min":0,"x_max":0,"o":"m 613 0 l 613 464 b 339 692 613 613 522 692 b 97 590 228 692 158 669 l 165 528 b 338 606 206 585 250 606 b 513 456 463 606 513 556 l 513 390 l 307 390 b 71 193 154 390 71 313 b 122 54 71 139 89 88 b 315 -8 165 10 221 -8 b 513 65 407 -8 457 10 l 513 0 z m 513 242 b 478 124 513 185 501 146 b 325 78 435 82 383 78 b 168 194 217 78 168 115 b 321 315 168 274 218 315 l 513 315 z m 418 825 l 296 1038 l 176 1038 l 326 825 z "},"á":{"ha":731,"x_min":0,"x_max":0,"o":"m 613 0 l 613 464 b 339 692 613 613 522 692 b 97 590 228 692 158 669 l 165 528 b 338 606 206 585 250 606 b 513 456 463 606 513 556 l 513 390 l 307 390 b 71 193 154 390 71 313 b 122 54 71 139 89 88 b 315 -8 165 10 221 -8 b 513 65 407 -8 457 10 l 513 0 z m 513 242 b 478 124 513 185 501 146 b 325 78 435 82 383 78 b 168 194 217 78 168 115 b 321 315 168 274 218 315 l 513 315 z m 524 1038 l 404 1038 l 282 825 l 374 825 z "},"â":{"ha":731,"x_min":0,"x_max":0,"o":"m 613 0 l 613 464 b 339 692 613 613 522 692 b 97 590 228 692 158 669 l 165 528 b 338 606 206 585 250 606 b 513 456 463 606 513 556 l 513 390 l 307 390 b 71 193 154 390 71 313 b 122 54 71 139 89 88 b 315 -8 165 10 221 -8 b 513 65 407 -8 457 10 l 513 0 z m 513 242 b 478 124 513 185 501 146 b 325 78 435 82 383 78 b 168 194 217 78 168 115 b 321 315 168 274 218 315 l 513 315 z m 571 825 l 397 1038 l 303 1038 l 129 825 l 225 825 l 350 969 l 475 825 z "},"ã":{"ha":731,"x_min":0,"x_max":0,"o":"m 613 0 l 613 464 b 339 692 613 613 522 692 b 97 590 228 692 158 669 l 165 528 b 338 606 206 585 250 606 b 513 456 463 606 513 556 l 513 390 l 307 390 b 71 193 154 390 71 313 b 122 54 71 139 89 88 b 315 -8 165 10 221 -8 b 513 65 407 -8 457 10 l 513 0 z m 513 242 b 478 124 513 185 501 146 b 325 78 435 82 383 78 b 168 194 217 78 168 115 b 321 315 168 274 218 315 l 513 315 z m 568 914 l 517 964 b 435 919 475 922 457 919 b 357 947 407 919 386 931 b 258 981 322 969 299 981 b 126 910 225 981 190 974 l 178 860 b 260 904 219 901 236 904 b 338 876 288 904 311 892 b 436 843 371 857 397 843 b 568 914 468 843 506 850 z "},"ä":{"ha":731,"x_min":0,"x_max":0,"o":"m 613 0 l 613 464 b 339 692 613 613 522 692 b 97 590 228 692 158 669 l 165 528 b 338 606 206 585 250 606 b 513 456 463 606 513 556 l 513 390 l 307 390 b 71 193 154 390 71 313 b 122 54 71 139 89 88 b 315 -8 165 10 221 -8 b 513 65 407 -8 457 10 l 513 0 z m 513 242 b 478 124 513 185 501 146 b 325 78 435 82 383 78 b 168 194 217 78 168 115 b 321 315 168 274 218 315 l 513 315 z m 547 836 l 547 960 l 447 960 l 447 836 z m 253 836 l 253 960 l 153 960 l 153 836 z "},"å":{"ha":731,"x_min":0,"x_max":0,"o":"m 613 0 l 613 464 b 339 692 613 613 522 692 b 97 590 228 692 158 669 l 165 528 b 338 606 206 585 250 606 b 513 456 463 606 513 556 l 513 390 l 307 390 b 71 193 154 390 71 313 b 122 54 71 139 89 88 b 315 -8 165 10 221 -8 b 513 65 407 -8 457 10 l 513 0 z m 513 242 b 478 124 513 185 501 146 b 325 78 435 82 383 78 b 168 194 217 78 168 115 b 321 315 168 274 218 315 l 513 315 z m 514 954 b 350 1118 514 1046 440 1118 b 186 954 260 1118 186 1044 b 350 789 186 864 260 789 b 514 954 440 789 514 864 z m 446 954 b 350 858 446 901 403 858 b 254 954 297 858 254 901 b 350 1049 254 1007 297 1049 b 446 954 403 1049 446 1007 z "},"æ":{"ha":1160,"x_min":0,"x_max":0,"o":"m 1074 315 l 1074 361 b 793 692 1074 564 969 692 b 579 585 700 692 626 654 b 339 692 542 656 463 692 b 97 590 228 692 158 669 l 165 528 b 338 606 206 585 250 606 b 513 456 463 606 513 556 l 513 390 l 307 390 b 71 193 154 390 71 313 b 122 54 71 139 89 88 b 315 -8 165 10 221 -8 b 565 110 433 -8 503 21 b 808 -8 615 29 701 -8 b 1061 97 925 -8 992 28 l 992 157 b 814 79 938 103 893 79 b 611 315 683 79 611 165 z m 513 242 b 478 124 513 185 501 146 b 325 78 435 82 383 78 b 168 194 217 78 168 115 b 321 315 168 274 218 315 l 513 315 z m 974 390 l 611 390 b 633 504 614 446 618 467 b 793 607 660 567 721 607 b 953 504 865 607 926 567 b 974 390 968 467 971 446 z "},"ç":{"ha":681,"x_min":0,"x_max":0,"o":"m 615 93 l 547 158 b 390 81 496 101 456 81 b 232 158 324 81 268 107 b 188 342 200 203 188 256 b 232 525 188 428 200 481 b 390 603 268 576 324 603 b 547 526 456 603 496 583 l 615 590 b 390 692 544 667 485 692 b 88 342 218 692 88 575 b 390 -8 88 108 218 -8 b 615 93 485 -8 544 17 z m 435 -93 l 342 -93 l 243 -300 l 353 -300 z "},"è":{"ha":736,"x_min":0,"x_max":0,"o":"m 649 315 l 649 361 b 368 692 649 564 544 692 b 88 342 194 692 88 563 b 386 -8 88 100 206 -8 b 636 97 503 -8 567 28 l 568 157 b 389 79 514 103 468 79 b 188 315 258 79 188 165 z m 549 390 l 188 390 b 208 504 190 446 193 467 b 368 607 235 567 296 607 b 528 504 440 607 501 567 b 549 390 543 467 546 446 z m 440 825 l 318 1038 l 199 1038 l 349 825 z "},"é":{"ha":736,"x_min":0,"x_max":0,"o":"m 649 315 l 649 361 b 368 692 649 564 544 692 b 88 342 194 692 88 563 b 386 -8 88 100 206 -8 b 636 97 503 -8 567 28 l 568 157 b 389 79 514 103 468 79 b 188 315 258 79 188 165 z m 549 390 l 188 390 b 208 504 190 446 193 467 b 368 607 235 567 296 607 b 528 504 440 607 501 567 b 549 390 543 467 546 446 z m 546 1038 l 426 1038 l 304 825 l 396 825 z "},"ê":{"ha":736,"x_min":0,"x_max":0,"o":"m 649 315 l 649 361 b 368 692 649 564 544 692 b 88 342 194 692 88 563 b 386 -8 88 100 206 -8 b 636 97 503 -8 567 28 l 568 157 b 389 79 514 103 468 79 b 188 315 258 79 188 165 z m 549 390 l 188 390 b 208 504 190 446 193 467 b 368 607 235 567 296 607 b 528 504 440 607 501 567 b 549 390 543 467 546 446 z m 593 825 l 419 1038 l 325 1038 l 151 825 l 247 825 l 372 969 l 497 825 z "},"ë":{"ha":736,"x_min":0,"x_max":0,"o":"m 649 315 l 649 361 b 368 692 649 564 544 692 b 88 342 194 692 88 563 b 386 -8 88 100 206 -8 b 636 97 503 -8 567 28 l 568 157 b 389 79 514 103 468 79 b 188 315 258 79 188 165 z m 549 390 l 188 390 b 208 504 190 446 193 467 b 368 607 235 567 296 607 b 528 504 440 607 501 567 b 549 390 543 467 546 446 z m 568 836 l 568 960 l 468 960 l 468 836 z m 274 836 l 274 960 l 174 960 l 174 836 z "},"ì":{"ha":351,"x_min":0,"x_max":0,"o":"m 225 0 l 225 683 l 125 683 l 125 0 z m 226 825 l 104 1038 l -15 1038 l 135 825 z "},"í":{"ha":351,"x_min":0,"x_max":0,"o":"m 225 0 l 225 683 l 125 683 l 125 0 z m 367 1038 l 247 1038 l 125 825 l 217 825 z "},"î":{"ha":351,"x_min":0,"x_max":0,"o":"m 225 0 l 225 683 l 125 683 l 125 0 z m 400 825 l 226 1038 l 132 1038 l -42 825 l 54 825 l 179 969 l 304 825 z "},"ï":{"ha":351,"x_min":0,"x_max":0,"o":"m 225 0 l 225 683 l 125 683 l 125 0 z m 374 836 l 374 960 l 274 960 l 274 836 z m 79 836 l 79 960 l -21 960 l -21 836 z "},"ð":{"ha":736,"x_min":0,"x_max":0,"o":"m 646 339 b 558 651 646 460 632 522 l 471 806 l 546 806 l 546 878 l 432 878 l 367 992 l 263 992 l 328 878 l 206 878 l 206 806 l 367 806 l 447 668 b 343 682 417 682 378 683 b 174 610 274 678 215 653 b 92 339 104 540 92 443 b 174 68 92 235 104 138 b 368 -8 219 21 285 -8 b 563 68 451 -8 517 21 b 646 339 632 138 646 235 z m 546 339 b 492 131 546 263 542 181 b 368 81 460 99 417 81 b 246 131 319 81 278 99 b 192 339 196 181 192 263 b 246 549 192 415 196 499 b 368 599 278 581 319 599 b 492 549 417 599 460 581 b 546 339 542 499 546 415 z "},"ñ":{"ha":781,"x_min":0,"x_max":0,"o":"m 663 0 l 663 438 b 592 628 663 517 640 581 b 417 692 550 669 490 692 b 225 608 340 692 274 664 l 225 683 l 125 683 l 125 0 l 225 0 l 225 421 b 394 603 225 540 292 603 b 563 421 497 603 563 542 l 563 0 z m 614 914 l 563 964 b 481 919 521 922 503 919 b 403 947 453 919 432 931 b 304 981 368 969 344 981 b 172 910 271 981 236 974 l 224 860 b 306 904 265 901 282 904 b 383 876 333 904 357 892 b 482 843 417 857 443 843 b 614 914 514 843 551 850 z "},"ò":{"ha":736,"x_min":0,"x_max":0,"o":"m 647 342 b 564 614 647 447 633 543 b 368 692 517 661 451 692 b 172 614 285 692 219 661 b 89 342 103 543 89 447 b 172 69 89 236 103 140 b 368 -8 219 22 285 -8 b 564 69 451 -8 517 22 b 647 342 633 140 647 236 z m 547 342 b 493 131 547 265 543 181 b 368 81 461 99 417 81 b 244 131 319 81 276 99 b 189 342 194 181 189 265 b 244 553 189 418 194 503 b 368 603 276 585 319 603 b 493 553 417 603 461 585 b 547 342 543 503 547 418 z m 422 825 l 300 1038 l 181 1038 l 331 825 z "},"ó":{"ha":736,"x_min":0,"x_max":0,"o":"m 647 342 b 564 614 647 447 633 543 b 368 692 517 661 451 692 b 172 614 285 692 219 661 b 89 342 103 543 89 447 b 172 69 89 236 103 140 b 368 -8 219 22 285 -8 b 564 69 451 -8 517 22 b 647 342 633 140 647 236 z m 547 342 b 493 131 547 265 543 181 b 368 81 461 99 417 81 b 244 131 319 81 276 99 b 189 342 194 181 189 265 b 244 553 189 418 194 503 b 368 603 276 585 319 603 b 493 553 417 603 461 585 b 547 342 543 503 547 418 z m 542 1038 l 422 1038 l 300 825 l 392 825 z "},"ô":{"ha":736,"x_min":0,"x_max":0,"o":"m 647 342 b 564 614 647 447 633 543 b 368 692 517 661 451 692 b 172 614 285 692 219 661 b 89 342 103 543 89 447 b 172 69 89 236 103 140 b 368 -8 219 22 285 -8 b 564 69 451 -8 517 22 b 647 342 633 140 647 236 z m 547 342 b 493 131 547 265 543 181 b 368 81 461 99 417 81 b 244 131 319 81 276 99 b 189 342 194 181 189 265 b 244 553 189 418 194 503 b 368 603 276 585 319 603 b 493 553 417 603 461 585 b 547 342 543 503 547 418 z m 589 825 l 415 1038 l 321 1038 l 147 825 l 243 825 l 368 969 l 493 825 z "},"õ":{"ha":736,"x_min":0,"x_max":0,"o":"m 647 342 b 564 614 647 447 633 543 b 368 692 517 661 451 692 b 172 614 285 692 219 661 b 89 342 103 543 89 447 b 172 69 89 236 103 140 b 368 -8 219 22 285 -8 b 564 69 451 -8 517 22 b 647 342 633 140 647 236 z m 547 342 b 493 131 547 265 543 181 b 368 81 461 99 417 81 b 244 131 319 81 276 99 b 189 342 194 181 189 265 b 244 553 189 418 194 503 b 368 603 276 585 319 603 b 493 553 417 603 461 585 b 547 342 543 503 547 418 z m 586 914 l 535 964 b 453 919 493 922 475 919 b 375 947 425 919 404 931 b 276 981 340 969 317 981 b 144 910 243 981 208 974 l 196 860 b 278 904 238 901 254 904 b 356 876 306 904 329 892 b 454 843 389 857 415 843 b 586 914 486 843 524 850 z "},"ö":{"ha":736,"x_min":0,"x_max":0,"o":"m 647 342 b 564 614 647 447 633 543 b 368 692 517 661 451 692 b 172 614 285 692 219 661 b 89 342 103 543 89 447 b 172 69 89 236 103 140 b 368 -8 219 22 285 -8 b 564 69 451 -8 517 22 b 647 342 633 140 647 236 z m 547 342 b 493 131 547 265 543 181 b 368 81 461 99 417 81 b 244 131 319 81 276 99 b 189 342 194 181 189 265 b 244 553 189 418 194 503 b 368 603 276 585 319 603 b 493 553 417 603 461 585 b 547 342 543 503 547 418 z m 565 836 l 565 960 l 465 960 l 465 836 z m 271 836 l 271 960 l 171 960 l 171 836 z "},"÷":{"ha":725,"x_min":0,"x_max":0,"o":"m 654 328 l 654 421 l 71 421 l 71 328 z m 422 68 l 422 188 l 303 188 l 303 68 z m 422 561 l 422 681 l 303 681 l 303 561 z "},"ø":{"ha":736,"x_min":0,"x_max":0,"o":"m 647 342 b 567 611 647 446 633 542 l 646 744 l 568 744 l 514 654 b 368 692 474 678 425 692 b 172 614 285 692 219 661 b 89 342 103 543 89 447 b 169 72 89 238 103 142 l 90 -61 l 169 -61 l 222 29 b 368 -8 263 6 311 -8 b 564 69 451 -8 517 22 b 647 342 633 140 647 236 z m 547 342 b 493 131 547 265 543 181 b 368 81 461 99 417 81 b 268 111 331 81 296 92 l 514 526 b 547 342 544 476 547 407 z m 468 574 l 224 157 b 189 342 193 207 189 276 b 244 553 189 418 194 503 b 368 603 276 585 319 603 b 468 574 406 603 440 593 z "},"ù":{"ha":781,"x_min":0,"x_max":0,"o":"m 656 0 l 656 683 l 556 683 l 556 263 b 385 81 556 143 488 81 b 218 263 282 81 218 142 l 218 683 l 118 683 l 118 247 b 188 56 118 168 139 103 b 364 -8 229 14 290 -8 b 557 76 440 -8 508 21 l 557 0 z m 454 825 l 332 1038 l 213 1038 l 363 825 z "},"ú":{"ha":781,"x_min":0,"x_max":0,"o":"m 656 0 l 656 683 l 556 683 l 556 263 b 385 81 556 143 488 81 b 218 263 282 81 218 142 l 218 683 l 118 683 l 118 247 b 188 56 118 168 139 103 b 364 -8 229 14 290 -8 b 557 76 440 -8 508 21 l 557 0 z m 560 1038 l 440 1038 l 318 825 l 410 825 z "},"û":{"ha":781,"x_min":0,"x_max":0,"o":"m 656 0 l 656 683 l 556 683 l 556 263 b 385 81 556 143 488 81 b 218 263 282 81 218 142 l 218 683 l 118 683 l 118 247 b 188 56 118 168 139 103 b 364 -8 229 14 290 -8 b 557 76 440 -8 508 21 l 557 0 z m 607 825 l 433 1038 l 339 1038 l 165 825 l 261 825 l 386 969 l 511 825 z "},"ü":{"ha":781,"x_min":0,"x_max":0,"o":"m 656 0 l 656 683 l 556 683 l 556 263 b 385 81 556 143 488 81 b 218 263 282 81 218 142 l 218 683 l 118 683 l 118 247 b 188 56 118 168 139 103 b 364 -8 229 14 290 -8 b 557 76 440 -8 508 21 l 557 0 z m 582 836 l 582 960 l 482 960 l 482 836 z m 288 836 l 288 960 l 188 960 l 188 836 z "},"ý":{"ha":618,"x_min":0,"x_max":0,"o":"m 606 683 l 497 683 l 311 135 l 124 683 l 15 683 l 261 14 l 213 -119 b 100 -204 190 -182 169 -204 l 69 -204 l 69 -293 l 113 -293 b 246 -246 161 -293 210 -281 b 294 -165 265 -228 281 -203 z m 485 1038 l 365 1038 l 243 825 l 335 825 z "},"þ":{"ha":758,"x_min":0,"x_max":0,"o":"m 668 342 b 585 632 668 449 654 563 b 418 692 549 668 488 692 b 225 604 343 692 281 675 l 225 989 l 125 989 l 125 -306 l 225 -306 l 225 81 b 418 -8 281 10 343 -8 b 585 51 488 -8 549 15 b 668 342 654 121 668 235 z m 568 342 b 397 81 568 208 546 81 b 225 342 249 81 225 208 b 397 603 225 475 249 603 b 568 342 546 603 568 475 z "},"ÿ":{"ha":618,"x_min":0,"x_max":0,"o":"m 606 683 l 497 683 l 311 135 l 124 683 l 15 683 l 261 14 l 213 -119 b 100 -204 190 -182 169 -204 l 69 -204 l 69 -293 l 113 -293 b 246 -246 161 -293 210 -281 b 294 -165 265 -228 281 -203 z m 508 836 l 508 960 l 408 960 l 408 836 z m 214 836 l 214 960 l 114 960 l 114 836 z "},"Ā":{"ha":849,"x_min":0,"x_max":0,"o":"m 832 0 l 469 989 l 381 989 l 17 0 l 129 0 l 208 224 l 640 224 l 719 0 z m 610 315 l 240 315 l 426 838 z m 214 1108 l 632 1108 l 632 1188 l 214 1188 z "},"ā":{"ha":731,"x_min":0,"x_max":0,"o":"m 613 0 l 613 464 b 339 692 613 613 522 692 b 97 590 228 692 158 669 l 165 528 b 338 606 206 585 250 606 b 513 456 463 606 513 556 l 513 390 l 307 390 b 71 193 154 390 71 313 b 122 54 71 139 89 88 b 315 -8 165 10 221 -8 b 513 65 407 -8 457 10 l 513 0 z m 513 242 b 478 124 513 185 501 146 b 325 78 435 82 383 78 b 168 194 217 78 168 115 b 321 315 168 274 218 315 l 513 315 z m 575 836 l 575 915 l 156 915 l 156 836 z "},"Ă":{"ha":849,"x_min":0,"x_max":0,"o":"m 832 0 l 469 989 l 381 989 l 17 0 l 129 0 l 208 224 l 640 224 l 719 0 z m 610 315 l 240 315 l 426 838 z m 656 1289 l 578 1289 b 426 1174 568 1215 511 1174 b 275 1289 342 1174 285 1215 l 197 1289 b 426 1096 208 1163 285 1096 b 656 1289 568 1096 644 1163 z "},"ă":{"ha":731,"x_min":0,"x_max":0,"o":"m 613 0 l 613 464 b 339 692 613 613 522 692 b 97 590 228 692 158 669 l 165 528 b 338 606 206 585 250 606 b 513 456 463 606 513 556 l 513 390 l 307 390 b 71 193 154 390 71 313 b 122 54 71 139 89 88 b 315 -8 165 10 221 -8 b 513 65 407 -8 457 10 l 513 0 z m 513 242 b 478 124 513 185 501 146 b 325 78 435 82 383 78 b 168 194 217 78 168 115 b 321 315 168 274 218 315 l 513 315 z m 568 985 l 490 985 b 339 869 481 911 424 869 b 188 985 254 869 197 911 l 110 985 b 339 792 121 858 197 792 b 568 985 481 792 557 858 z "},"Ą":{"ha":849,"x_min":0,"x_max":0,"o":"m 832 0 l 469 989 l 381 989 l 17 0 l 129 0 l 208 224 l 640 224 l 719 0 z m 610 315 l 240 315 l 426 838 z m 813 -93 l 719 -93 l 621 -300 l 731 -300 z "},"ą":{"ha":731,"x_min":0,"x_max":0,"o":"m 613 0 l 613 464 b 339 692 613 613 522 692 b 97 590 228 692 158 669 l 165 528 b 338 606 206 585 250 606 b 513 456 463 606 513 556 l 513 390 l 307 390 b 71 193 154 390 71 313 b 122 54 71 139 89 88 b 315 -8 165 10 221 -8 b 513 65 407 -8 457 10 l 513 0 z m 513 242 b 478 124 513 185 501 146 b 325 78 435 82 383 78 b 168 194 217 78 168 115 b 321 315 168 274 218 315 l 513 315 z m 606 -93 l 513 -93 l 414 -300 l 524 -300 z "},"Ć":{"ha":885,"x_min":0,"x_max":0,"o":"m 794 286 l 689 286 b 451 86 663 165 575 86 b 281 156 386 86 324 111 b 211 494 218 219 211 288 b 281 833 211 701 218 769 b 451 903 324 878 386 903 b 686 703 575 903 660 824 l 794 703 b 451 997 761 889 629 997 b 199 894 354 997 265 961 b 106 494 106 801 106 704 b 199 94 106 285 106 188 b 451 -8 265 28 354 -8 b 794 286 628 -8 763 100 z m 615 1297 l 496 1297 l 374 1085 l 465 1085 z "},"ć":{"ha":681,"x_min":0,"x_max":0,"o":"m 615 93 l 547 158 b 390 81 496 101 456 81 b 232 158 324 81 268 107 b 188 342 200 203 188 256 b 232 525 188 428 200 481 b 390 603 268 576 324 603 b 547 526 456 603 496 583 l 615 590 b 390 692 544 667 485 692 b 88 342 218 692 88 575 b 390 -8 88 108 218 -8 b 615 93 485 -8 544 17 z m 543 1038 l 424 1038 l 301 825 l 393 825 z "},"Ĉ":{"ha":885,"x_min":0,"x_max":0,"o":"m 794 286 l 689 286 b 451 86 663 165 575 86 b 281 156 386 86 324 111 b 211 494 218 219 211 288 b 281 833 211 701 218 769 b 451 903 324 878 386 903 b 686 703 575 903 660 824 l 794 703 b 451 997 761 889 629 997 b 199 894 354 997 265 961 b 106 494 106 801 106 704 b 199 94 106 285 106 188 b 451 -8 265 28 354 -8 b 794 286 628 -8 763 100 z m 672 1085 l 499 1297 l 404 1297 l 231 1085 l 326 1085 l 451 1229 l 576 1085 z "},"ĉ":{"ha":681,"x_min":0,"x_max":0,"o":"m 615 93 l 547 158 b 390 81 496 101 456 81 b 232 158 324 81 268 107 b 188 342 200 203 188 256 b 232 525 188 428 200 481 b 390 603 268 576 324 603 b 547 526 456 603 496 583 l 615 590 b 390 692 544 667 485 692 b 88 342 218 692 88 575 b 390 -8 88 108 218 -8 b 615 93 485 -8 544 17 z m 610 825 l 436 1038 l 342 1038 l 168 825 l 264 825 l 389 969 l 514 825 z "},"Ċ":{"ha":885,"x_min":0,"x_max":0,"o":"m 794 286 l 689 286 b 451 86 663 165 575 86 b 281 156 386 86 324 111 b 211 494 218 219 211 288 b 281 833 211 701 218 769 b 451 903 324 878 386 903 b 686 703 575 903 660 824 l 794 703 b 451 997 761 889 629 997 b 199 894 354 997 265 961 b 106 494 106 801 106 704 b 199 94 106 285 106 188 b 451 -8 265 28 354 -8 b 794 286 628 -8 763 100 z m 397 1107 l 501 1107 l 501 1213 l 397 1213 z "},"ċ":{"ha":681,"x_min":0,"x_max":0,"o":"m 615 93 l 547 158 b 390 81 496 101 456 81 b 232 158 324 81 268 107 b 188 342 200 203 188 256 b 232 525 188 428 200 481 b 390 603 268 576 324 603 b 547 526 456 603 496 583 l 615 590 b 390 692 544 667 485 692 b 88 342 218 692 88 575 b 390 -8 88 108 218 -8 b 615 93 485 -8 544 17 z m 336 847 l 440 847 l 440 954 l 336 954 z "},"Č":{"ha":885,"x_min":0,"x_max":0,"o":"m 794 286 l 689 286 b 451 86 663 165 575 86 b 281 156 386 86 324 111 b 211 494 218 219 211 288 b 281 833 211 701 218 769 b 451 903 324 878 386 903 b 686 703 575 903 660 824 l 794 703 b 451 997 761 889 629 997 b 199 894 354 997 265 961 b 106 494 106 801 106 704 b 199 94 106 285 106 188 b 451 -8 265 28 354 -8 b 794 286 628 -8 763 100 z m 663 1297 l 567 1297 l 442 1151 l 317 1297 l 221 1297 l 394 1085 l 489 1085 z "},"č":{"ha":681,"x_min":0,"x_max":0,"o":"m 615 93 l 547 158 b 390 81 496 101 456 81 b 232 158 324 81 268 107 b 188 342 200 203 188 256 b 232 525 188 428 200 481 b 390 603 268 576 324 603 b 547 526 456 603 496 583 l 615 590 b 390 692 544 667 485 692 b 88 342 218 692 88 575 b 390 -8 88 108 218 -8 b 615 93 485 -8 544 17 z m 611 1038 l 515 1038 l 390 892 l 265 1038 l 169 1038 l 343 825 l 438 825 z "},"Ď":{"ha":935,"x_min":0,"x_max":0,"o":"m 829 506 b 732 897 829 643 835 794 b 482 989 672 957 585 989 l 143 989 l 143 0 l 482 0 b 732 92 585 0 672 32 b 829 506 835 194 829 368 z m 724 506 b 658 167 724 385 726 238 b 464 94 607 114 540 94 l 249 94 l 249 894 l 464 894 b 658 822 540 894 607 875 b 724 506 726 751 724 626 z m 688 1297 l 592 1297 l 467 1151 l 342 1297 l 246 1297 l 419 1085 l 514 1085 z "},"ď":{"ha":757,"x_min":0,"x_max":0,"o":"m 632 0 l 632 989 l 532 989 l 532 604 b 339 692 476 675 414 692 b 172 632 269 692 208 668 b 89 342 103 563 89 449 b 172 51 89 235 103 121 b 339 -8 208 15 269 -8 b 533 82 414 -8 478 10 l 533 0 z m 532 342 b 361 81 532 208 510 81 b 189 342 213 81 189 208 b 361 603 189 475 213 603 b 532 342 510 603 532 475 z m 869 999 l 772 999 l 718 788 l 799 788 z "},"Đ":{"ha":954,"x_min":0,"x_max":0,"o":"m 849 494 b 788 840 849 708 844 753 b 503 989 724 938 626 989 l 163 989 l 163 540 l 54 540 l 54 458 l 163 458 l 163 0 l 494 0 b 788 146 631 0 728 63 b 849 494 840 221 849 269 z m 743 489 b 700 196 743 297 740 257 b 483 93 654 128 579 93 l 269 93 l 269 458 l 493 458 l 493 540 l 269 540 l 269 896 l 483 896 b 693 796 576 896 640 868 b 743 489 740 731 743 675 z "},"đ":{"ha":757,"x_min":0,"x_max":0,"o":"m 726 794 l 726 861 l 632 861 l 632 989 l 532 989 l 532 861 l 418 861 l 418 794 l 532 794 l 532 604 b 339 692 476 675 414 692 b 172 632 269 692 208 668 b 89 342 103 563 89 449 b 172 51 89 235 103 121 b 339 -8 208 15 269 -8 b 533 82 414 -8 478 10 l 533 0 l 632 0 l 632 794 z m 532 342 b 361 81 532 208 510 81 b 189 342 213 81 189 208 b 361 603 189 475 213 603 b 532 342 510 603 532 475 z "},"Ē":{"ha":833,"x_min":0,"x_max":0,"o":"m 757 0 l 757 94 l 249 94 l 249 451 l 682 451 l 682 546 l 249 546 l 249 894 l 757 894 l 757 989 l 143 989 l 143 0 z m 224 1108 l 642 1108 l 642 1188 l 224 1188 z "},"ē":{"ha":736,"x_min":0,"x_max":0,"o":"m 649 315 l 649 361 b 368 692 649 564 544 692 b 88 342 194 692 88 563 b 386 -8 88 100 206 -8 b 636 97 503 -8 567 28 l 568 157 b 389 79 514 103 468 79 b 188 315 258 79 188 165 z m 549 390 l 188 390 b 208 504 190 446 193 467 b 368 607 235 567 296 607 b 528 504 440 607 501 567 b 549 390 543 467 546 446 z m 576 836 l 576 915 l 157 915 l 157 836 z "},"Ė":{"ha":833,"x_min":0,"x_max":0,"o":"m 757 0 l 757 94 l 249 94 l 249 451 l 682 451 l 682 546 l 249 546 l 249 894 l 757 894 l 757 989 l 143 989 l 143 0 z m 381 1107 l 485 1107 l 485 1213 l 381 1213 z "},"ė":{"ha":736,"x_min":0,"x_max":0,"o":"m 649 315 l 649 361 b 368 692 649 564 544 692 b 88 342 194 692 88 563 b 386 -8 88 100 206 -8 b 636 97 503 -8 567 28 l 568 157 b 389 79 514 103 468 79 b 188 315 258 79 188 165 z m 549 390 l 188 390 b 208 504 190 446 193 467 b 368 607 235 567 296 607 b 528 504 440 607 501 567 b 549 390 543 467 546 446 z m 314 847 l 418 847 l 418 954 l 314 954 z "},"Ę":{"ha":833,"x_min":0,"x_max":0,"o":"m 757 0 l 757 94 l 249 94 l 249 451 l 682 451 l 682 546 l 249 546 l 249 894 l 757 894 l 757 989 l 143 989 l 143 0 z m 757 -93 l 664 -93 l 565 -300 l 675 -300 z "},"ę":{"ha":736,"x_min":0,"x_max":0,"o":"m 649 315 l 649 361 b 368 692 649 564 544 692 b 88 342 194 692 88 563 b 386 -8 88 100 206 -8 b 636 97 503 -8 567 28 l 568 157 b 389 79 514 103 468 79 b 188 315 258 79 188 165 z m 549 390 l 188 390 b 208 504 190 446 193 467 b 368 607 235 567 296 607 b 528 504 440 607 501 567 b 549 390 543 467 546 446 z m 513 -93 l 419 -93 l 321 -300 l 431 -300 z "},"Ě":{"ha":833,"x_min":0,"x_max":0,"o":"m 757 0 l 757 94 l 249 94 l 249 451 l 682 451 l 682 546 l 249 546 l 249 894 l 757 894 l 757 989 l 143 989 l 143 0 z m 653 1297 l 557 1297 l 432 1151 l 307 1297 l 211 1297 l 385 1085 l 479 1085 z "},"ě":{"ha":736,"x_min":0,"x_max":0,"o":"m 649 315 l 649 361 b 368 692 649 564 544 692 b 88 342 194 692 88 563 b 386 -8 88 100 206 -8 b 636 97 503 -8 567 28 l 568 157 b 389 79 514 103 468 79 b 188 315 258 79 188 165 z m 549 390 l 188 390 b 208 504 190 446 193 467 b 368 607 235 567 296 607 b 528 504 440 607 501 567 b 549 390 543 467 546 446 z m 589 1038 l 493 1038 l 368 892 l 243 1038 l 147 1038 l 321 825 l 415 825 z "},"Ĝ":{"ha":903,"x_min":0,"x_max":0,"o":"m 800 361 l 800 518 l 451 518 l 451 425 l 694 425 l 694 350 b 639 171 694 274 679 219 b 451 86 593 115 524 86 b 281 156 386 86 324 111 b 211 494 218 219 211 288 b 281 832 211 701 218 768 b 451 903 324 876 386 903 b 692 701 575 903 664 826 l 797 701 b 451 997 768 875 640 997 b 199 894 353 997 265 961 b 106 494 106 801 106 704 b 199 94 106 285 106 188 b 451 -8 265 28 354 -8 b 715 106 553 -8 646 31 b 800 361 776 171 800 247 z m 672 1085 l 499 1297 l 404 1297 l 231 1085 l 326 1085 l 451 1229 l 576 1085 z "},"ĝ":{"ha":754,"x_min":0,"x_max":0,"o":"m 629 -21 l 629 683 l 531 683 l 531 603 b 339 692 475 675 414 692 b 172 632 269 692 208 668 b 89 347 104 564 89 458 b 172 63 89 236 104 131 b 338 1 208 26 268 1 b 529 90 411 1 474 19 l 529 -17 b 342 -226 529 -133 474 -226 b 178 -158 263 -226 228 -203 l 113 -222 b 344 -314 185 -287 242 -314 b 629 -21 524 -314 629 -190 z m 529 347 b 360 92 529 219 508 92 b 189 347 211 92 189 219 b 360 603 189 475 211 603 b 529 347 508 603 529 475 z m 581 825 l 407 1038 l 313 1038 l 139 825 l 235 825 l 360 969 l 485 825 z "},"Ğ":{"ha":903,"x_min":0,"x_max":0,"o":"m 800 361 l 800 518 l 451 518 l 451 425 l 694 425 l 694 350 b 639 171 694 274 679 219 b 451 86 593 115 524 86 b 281 156 386 86 324 111 b 211 494 218 219 211 288 b 281 832 211 701 218 768 b 451 903 324 876 386 903 b 692 701 575 903 664 826 l 797 701 b 451 997 768 875 640 997 b 199 894 353 997 265 961 b 106 494 106 801 106 704 b 199 94 106 285 106 188 b 451 -8 265 28 354 -8 b 715 106 553 -8 646 31 b 800 361 776 171 800 247 z m 681 1289 l 603 1289 b 451 1174 593 1215 536 1174 b 300 1289 367 1174 310 1215 l 222 1289 b 451 1096 233 1163 310 1096 b 681 1289 593 1096 669 1163 z "},"ğ":{"ha":754,"x_min":0,"x_max":0,"o":"m 629 -21 l 629 683 l 531 683 l 531 603 b 339 692 475 675 414 692 b 172 632 269 692 208 668 b 89 347 104 564 89 458 b 172 63 89 236 104 131 b 338 1 208 26 268 1 b 529 90 411 1 474 19 l 529 -17 b 342 -226 529 -133 474 -226 b 178 -158 263 -226 228 -203 l 113 -222 b 344 -314 185 -287 242 -314 b 629 -21 524 -314 629 -190 z m 529 347 b 360 92 529 219 508 92 b 189 347 211 92 189 219 b 360 603 189 475 211 603 b 529 347 508 603 529 475 z m 589 985 l 511 985 b 360 869 501 911 444 869 b 208 985 275 869 218 911 l 131 985 b 360 792 142 858 218 792 b 589 985 501 792 578 858 z "},"Ġ":{"ha":903,"x_min":0,"x_max":0,"o":"m 800 361 l 800 518 l 451 518 l 451 425 l 694 425 l 694 350 b 639 171 694 274 679 219 b 451 86 593 115 524 86 b 281 156 386 86 324 111 b 211 494 218 219 211 288 b 281 832 211 701 218 768 b 451 903 324 876 386 903 b 692 701 575 903 664 826 l 797 701 b 451 997 768 875 640 997 b 199 894 353 997 265 961 b 106 494 106 801 106 704 b 199 94 106 285 106 188 b 451 -8 265 28 354 -8 b 715 106 553 -8 646 31 b 800 361 776 171 800 247 z m 397 1107 l 501 1107 l 501 1213 l 397 1213 z "},"ġ":{"ha":754,"x_min":0,"x_max":0,"o":"m 629 -21 l 629 683 l 531 683 l 531 603 b 339 692 475 675 414 692 b 172 632 269 692 208 668 b 89 347 104 564 89 458 b 172 63 89 236 104 131 b 338 1 208 26 268 1 b 529 90 411 1 474 19 l 529 -17 b 342 -226 529 -133 474 -226 b 178 -158 263 -226 228 -203 l 113 -222 b 344 -314 185 -287 242 -314 b 629 -21 524 -314 629 -190 z m 529 347 b 360 92 529 219 508 92 b 189 347 211 92 189 219 b 360 603 189 475 211 603 b 529 347 508 603 529 475 z m 306 847 l 410 847 l 410 954 l 306 954 z "},"Ģ":{"ha":903,"x_min":0,"x_max":0,"o":"m 800 361 l 800 518 l 451 518 l 451 425 l 694 425 l 694 350 b 639 171 694 274 679 219 b 451 86 593 115 524 86 b 281 156 386 86 324 111 b 211 494 218 219 211 288 b 281 832 211 701 218 768 b 451 903 324 876 386 903 b 692 701 575 903 664 826 l 797 701 b 451 997 768 875 640 997 b 199 894 353 997 265 961 b 106 494 106 801 106 704 b 199 94 106 285 106 188 b 451 -8 265 28 354 -8 b 715 106 553 -8 646 31 b 800 361 776 171 800 247 z m 457 -300 l 539 -93 l 447 -93 l 349 -300 z "},"ģ":{"ha":754,"x_min":0,"x_max":0,"o":"m 629 -21 l 629 683 l 531 683 l 531 603 b 339 692 475 675 414 692 b 172 632 269 692 208 668 b 89 347 104 564 89 458 b 172 63 89 236 104 131 b 338 1 208 26 268 1 b 529 90 411 1 474 19 l 529 -17 b 342 -226 529 -133 474 -226 b 178 -158 263 -226 228 -203 l 113 -222 b 344 -314 185 -287 242 -314 b 629 -21 524 -314 629 -190 z m 529 347 b 360 92 529 219 508 92 b 189 347 211 92 189 219 b 360 603 189 475 211 603 b 529 347 508 603 529 475 z m 550 1038 l 431 1038 l 308 825 l 400 825 z "},"Ĥ":{"ha":967,"x_min":0,"x_max":0,"o":"m 824 0 l 824 989 l 718 989 l 718 546 l 249 546 l 249 989 l 143 989 l 143 0 l 249 0 l 249 451 l 718 451 l 718 0 z m 704 1085 l 531 1297 l 436 1297 l 263 1085 l 358 1085 l 483 1229 l 608 1085 z "},"ĥ":{"ha":781,"x_min":0,"x_max":0,"o":"m 663 0 l 663 439 b 417 692 663 593 571 692 b 225 608 340 692 275 665 l 225 989 l 125 989 l 125 0 l 225 0 l 225 422 b 396 603 225 540 293 603 b 563 422 499 603 563 542 l 563 0 z m 397 1083 l 224 1296 l 129 1296 l -44 1083 l 51 1083 l 176 1228 l 301 1083 z "},"Ħ":{"ha":997,"x_min":0,"x_max":0,"o":"m 942 715 l 942 796 l 839 796 l 839 989 l 733 989 l 733 796 l 264 796 l 264 989 l 158 989 l 158 796 l 56 796 l 56 715 l 158 715 l 158 0 l 264 0 l 264 451 l 733 451 l 733 0 l 839 0 l 839 715 z m 733 546 l 264 546 l 264 715 l 733 715 z "},"ħ":{"ha":781,"x_min":0,"x_max":0,"o":"m 663 0 l 663 439 b 417 692 663 593 571 692 b 225 608 340 692 275 665 l 225 794 l 397 794 l 397 861 l 225 861 l 225 989 l 125 989 l 125 861 l 42 861 l 42 794 l 125 794 l 125 0 l 225 0 l 225 422 b 396 603 225 540 293 603 b 563 422 499 603 563 542 l 563 0 z "},"Ī":{"ha":392,"x_min":0,"x_max":0,"o":"m 249 0 l 249 989 l 143 989 l 143 0 z m -12 1108 l 406 1108 l 406 1188 l -12 1188 z "},"ī":{"ha":351,"x_min":0,"x_max":0,"o":"m 225 0 l 225 683 l 125 683 l 125 0 z m 386 836 l 386 915 l -33 915 l -33 836 z "},"Į":{"ha":392,"x_min":0,"x_max":0,"o":"m 249 0 l 249 989 l 143 989 l 143 0 z m 236 -93 l 143 -93 l 44 -300 l 154 -300 z "},"į":{"ha":351,"x_min":0,"x_max":0,"o":"m 225 0 l 225 683 l 125 683 l 125 0 z m 232 878 l 232 990 l 119 990 l 119 878 z m 219 -93 l 126 -93 l 28 -300 l 138 -300 z "},"İ":{"ha":392,"x_min":0,"x_max":0,"o":"m 249 0 l 249 989 l 143 989 l 143 0 z m 143 1107 l 247 1107 l 247 1213 l 143 1213 z "},"ı":{"ha":351,"x_min":0,"x_max":0,"o":"m 225 0 l 225 683 l 125 683 l 125 0 z "},"Ĵ":{"ha":696,"x_min":0,"x_max":0,"o":"m 567 300 l 567 989 l 461 989 l 461 314 b 258 86 461 168 388 86 b 103 151 176 86 139 115 l 32 81 b 258 -8 93 19 164 -8 b 567 300 439 -8 567 110 z m 735 1085 l 561 1297 l 467 1297 l 293 1085 l 389 1085 l 514 1229 l 639 1085 z "},"ĵ":{"ha":351,"x_min":0,"x_max":0,"o":"m 225 -124 l 225 679 l 125 679 l 125 -119 b 33 -219 125 -186 103 -219 l -21 -219 l -21 -307 l 51 -307 b 225 -124 171 -307 225 -228 z m 396 825 l 222 1038 l 128 1038 l -46 825 l 50 825 l 175 969 l 300 825 z "},"Ķ":{"ha":903,"x_min":0,"x_max":0,"o":"m 883 0 l 528 607 l 839 989 l 710 989 l 249 421 l 249 989 l 143 989 l 143 0 l 249 0 l 249 276 l 457 526 l 758 0 z m 456 -300 l 538 -93 l 446 -93 l 347 -300 z "},"ķ":{"ha":744,"x_min":0,"x_max":0,"o":"m 699 0 l 426 422 l 658 683 l 533 683 l 225 328 l 225 989 l 125 989 l 125 0 l 225 0 l 225 197 l 358 350 l 575 0 z m 376 -300 l 458 -93 l 367 -93 l 268 -300 z "},"Ĺ":{"ha":796,"x_min":0,"x_max":0,"o":"m 754 0 l 754 94 l 249 94 l 249 989 l 143 989 l 143 0 z m 444 1297 l 325 1297 l 203 1085 l 294 1085 z "},"ĺ":{"ha":413,"x_min":0,"x_max":0,"o":"m 368 0 l 368 86 l 314 86 b 222 186 244 86 222 119 l 222 989 l 122 989 l 122 182 b 296 0 122 78 176 0 z m 381 1297 l 261 1297 l 139 1085 l 231 1085 z "},"Ļ":{"ha":796,"x_min":0,"x_max":0,"o":"m 754 0 l 754 94 l 249 94 l 249 989 l 143 989 l 143 0 z m 401 -300 l 483 -93 l 392 -93 l 293 -300 z "},"ļ":{"ha":413,"x_min":0,"x_max":0,"o":"m 368 0 l 368 86 l 314 86 b 222 186 244 86 222 119 l 222 989 l 122 989 l 122 182 b 296 0 122 78 176 0 z m 211 -300 l 293 -93 l 201 -93 l 103 -300 z "},"Ľ":{"ha":796,"x_min":0,"x_max":0,"o":"m 754 0 l 754 94 l 249 94 l 249 989 l 143 989 l 143 0 z m 563 989 l 465 989 l 411 778 l 492 778 z "},"ľ":{"ha":413,"x_min":0,"x_max":0,"o":"m 368 0 l 368 86 l 314 86 b 222 186 244 86 222 119 l 222 989 l 122 989 l 122 182 b 296 0 122 78 176 0 z m 460 999 l 363 999 l 308 788 l 389 788 z "},"Ł":{"ha":808,"x_min":0,"x_max":0,"o":"m 767 0 l 767 94 l 263 94 l 263 469 l 476 606 l 476 697 l 263 561 l 263 989 l 156 989 l 156 494 l 54 431 l 54 338 l 156 401 l 156 0 z "},"ł":{"ha":438,"x_min":0,"x_max":0,"o":"m 386 0 l 386 86 l 331 86 b 239 186 261 86 239 119 l 239 536 l 351 606 l 351 692 l 239 622 l 239 989 l 139 989 l 139 561 l 51 507 l 51 421 l 139 475 l 139 182 b 314 0 139 78 194 0 z "},"Ń":{"ha":1017,"x_min":0,"x_max":0,"o":"m 874 0 l 874 989 l 768 989 l 768 199 l 243 989 l 143 989 l 143 0 l 249 0 l 249 793 l 774 0 z m 682 1297 l 563 1297 l 440 1085 l 532 1085 z "},"ń":{"ha":781,"x_min":0,"x_max":0,"o":"m 663 0 l 663 438 b 592 628 663 517 640 581 b 417 692 550 669 490 692 b 225 608 340 692 274 664 l 225 683 l 125 683 l 125 0 l 225 0 l 225 421 b 394 603 225 540 292 603 b 563 421 497 603 563 542 l 563 0 z m 564 1038 l 444 1038 l 322 825 l 414 825 z "},"Ņ":{"ha":1017,"x_min":0,"x_max":0,"o":"m 874 0 l 874 989 l 768 989 l 768 199 l 243 989 l 143 989 l 143 0 l 249 0 l 249 793 l 774 0 z m 499 -300 l 581 -93 l 489 -93 l 390 -300 z "},"ņ":{"ha":781,"x_min":0,"x_max":0,"o":"m 663 0 l 663 438 b 592 628 663 517 640 581 b 417 692 550 669 490 692 b 225 608 340 692 274 664 l 225 683 l 125 683 l 125 0 l 225 0 l 225 421 b 394 603 225 540 292 603 b 563 421 497 603 563 542 l 563 0 z m 394 -300 l 476 -93 l 385 -93 l 286 -300 z "},"Ň":{"ha":1017,"x_min":0,"x_max":0,"o":"m 874 0 l 874 989 l 768 989 l 768 199 l 243 989 l 143 989 l 143 0 l 249 0 l 249 793 l 774 0 z m 729 1297 l 633 1297 l 508 1151 l 383 1297 l 288 1297 l 461 1085 l 556 1085 z "},"ň":{"ha":781,"x_min":0,"x_max":0,"o":"m 663 0 l 663 438 b 592 628 663 517 640 581 b 417 692 550 669 490 692 b 225 608 340 692 274 664 l 225 683 l 125 683 l 125 0 l 225 0 l 225 421 b 394 603 225 540 292 603 b 563 421 497 603 563 542 l 563 0 z m 611 1038 l 515 1038 l 390 892 l 265 1038 l 169 1038 l 343 825 l 438 825 z "},"Ō":{"ha":903,"x_min":0,"x_max":0,"o":"m 797 494 b 704 894 797 704 797 801 b 451 997 638 961 550 997 b 199 894 353 997 265 961 b 106 494 106 801 106 704 b 199 94 106 285 106 188 b 451 -8 265 28 353 -8 b 704 94 550 -8 638 28 b 797 494 797 188 797 285 z m 692 494 b 622 157 692 288 685 221 b 451 86 579 113 517 86 b 281 157 386 86 324 113 b 211 494 218 221 211 288 b 281 832 211 701 218 768 b 451 903 324 876 386 903 b 622 832 517 903 579 876 b 692 494 685 768 692 701 z m 240 1108 l 658 1108 l 658 1188 l 240 1188 z "},"ō":{"ha":736,"x_min":0,"x_max":0,"o":"m 647 342 b 564 614 647 447 633 543 b 368 692 517 661 451 692 b 172 614 285 692 219 661 b 89 342 103 543 89 447 b 172 69 89 236 103 140 b 368 -8 219 22 285 -8 b 564 69 451 -8 517 22 b 647 342 633 140 647 236 z m 547 342 b 493 131 547 265 543 181 b 368 81 461 99 417 81 b 244 131 319 81 276 99 b 189 342 194 181 189 265 b 244 553 189 418 194 503 b 368 603 276 585 319 603 b 493 553 417 603 461 585 b 547 342 543 503 547 418 z m 578 836 l 578 915 l 158 915 l 158 836 z "},"Ő":{"ha":903,"x_min":0,"x_max":0,"o":"m 797 494 b 704 894 797 704 797 801 b 451 997 638 961 550 997 b 199 894 353 997 265 961 b 106 494 106 801 106 704 b 199 94 106 285 106 188 b 451 -8 265 28 353 -8 b 704 94 550 -8 638 28 b 797 494 797 188 797 285 z m 692 494 b 622 157 692 288 685 221 b 451 86 579 113 517 86 b 281 157 386 86 324 113 b 211 494 218 221 211 288 b 281 832 211 701 218 768 b 451 903 324 876 386 903 b 622 832 517 903 579 876 b 692 494 685 768 692 701 z m 526 1297 l 408 1297 l 285 1085 l 376 1085 z m 753 1297 l 635 1297 l 511 1085 l 601 1085 z "},"ő":{"ha":736,"x_min":0,"x_max":0,"o":"m 647 342 b 564 614 647 447 633 543 b 368 692 517 661 451 692 b 172 614 285 692 219 661 b 89 342 103 543 89 447 b 172 69 89 236 103 140 b 368 -8 219 22 285 -8 b 564 69 451 -8 517 22 b 647 342 633 140 647 236 z m 547 342 b 493 131 547 265 543 181 b 368 81 461 99 417 81 b 244 131 319 81 276 99 b 189 342 194 181 189 265 b 244 553 189 418 194 503 b 368 603 276 585 319 603 b 493 553 417 603 461 585 b 547 342 543 503 547 418 z m 443 1038 l 325 1038 l 201 825 l 293 825 z m 669 1038 l 551 1038 l 428 825 l 518 825 z "},"Œ":{"ha":1374,"x_min":0,"x_max":0,"o":"m 1296 0 l 1296 93 l 796 93 l 796 454 l 1219 454 l 1219 543 l 797 543 l 797 896 l 1293 896 l 1293 989 l 690 989 l 690 886 b 450 997 629 961 547 997 b 199 894 351 997 265 961 b 106 494 107 803 106 704 b 199 94 106 285 107 186 b 450 -8 265 28 351 -8 b 690 103 540 -8 629 28 l 690 0 z m 690 494 b 622 157 690 288 685 221 b 451 86 579 113 517 86 b 281 157 386 86 324 113 b 211 494 218 221 211 288 b 281 832 211 701 218 768 b 451 903 324 876 386 903 b 622 832 517 903 579 876 b 690 494 685 768 690 701 z "},"œ":{"ha":1196,"x_min":0,"x_max":0,"o":"m 1108 315 l 1108 361 b 828 692 1108 564 1004 692 b 601 560 725 692 647 646 b 368 692 558 643 471 692 b 172 614 285 692 219 661 b 89 342 103 543 89 447 b 172 69 89 236 103 140 b 368 -8 219 22 285 -8 b 600 124 471 -8 557 40 b 846 -8 649 36 733 -8 b 1096 97 963 -8 1026 28 l 1028 157 b 849 79 974 103 928 79 b 647 315 718 79 647 165 z m 547 342 b 493 131 547 265 543 181 b 368 81 461 99 417 81 b 244 131 319 81 276 99 b 189 342 194 181 189 265 b 244 553 189 418 194 503 b 368 603 276 585 319 603 b 493 553 417 603 461 585 b 547 342 543 503 547 418 z m 1010 390 l 647 390 b 668 504 650 446 653 467 b 828 607 694 567 756 607 b 988 504 900 607 961 567 b 1010 390 1003 467 1007 446 z "},"Ŕ":{"ha":911,"x_min":0,"x_max":0,"o":"m 835 0 l 600 449 b 815 714 728 475 815 569 b 522 989 815 885 694 989 l 143 989 l 143 0 l 249 0 l 249 439 l 486 439 l 711 0 z m 710 713 b 513 532 710 592 628 532 l 249 532 l 249 894 l 513 894 b 710 713 628 894 710 833 z m 629 1297 l 510 1297 l 388 1085 l 479 1085 z "},"ŕ":{"ha":585,"x_min":0,"x_max":0,"o":"m 581 628 b 417 692 532 676 482 692 b 225 600 338 692 263 657 l 225 683 l 125 683 l 125 0 l 225 0 l 225 419 b 389 603 225 524 289 603 b 507 553 442 603 469 590 z m 467 1038 l 347 1038 l 225 825 l 317 825 z "},"Ŗ":{"ha":911,"x_min":0,"x_max":0,"o":"m 835 0 l 600 449 b 815 714 728 475 815 569 b 522 989 815 885 694 989 l 143 989 l 143 0 l 249 0 l 249 439 l 486 439 l 711 0 z m 710 713 b 513 532 710 592 628 532 l 249 532 l 249 894 l 513 894 b 710 713 628 894 710 833 z m 460 -300 l 542 -93 l 450 -93 l 351 -300 z "},"ŗ":{"ha":585,"x_min":0,"x_max":0,"o":"m 581 628 b 417 692 532 676 482 692 b 225 600 338 692 263 657 l 225 683 l 125 683 l 125 0 l 225 0 l 225 419 b 389 603 225 524 289 603 b 507 553 442 603 469 590 z m 189 -300 l 271 -93 l 179 -93 l 81 -300 z "},"Ř":{"ha":911,"x_min":0,"x_max":0,"o":"m 835 0 l 600 449 b 815 714 728 475 815 569 b 522 989 815 885 694 989 l 143 989 l 143 0 l 249 0 l 249 439 l 486 439 l 711 0 z m 710 713 b 513 532 710 592 628 532 l 249 532 l 249 894 l 513 894 b 710 713 628 894 710 833 z m 676 1297 l 581 1297 l 456 1151 l 331 1297 l 235 1297 l 408 1085 l 503 1085 z "},"ř":{"ha":585,"x_min":0,"x_max":0,"o":"m 581 628 b 417 692 532 676 482 692 b 225 600 338 692 263 657 l 225 683 l 125 683 l 125 0 l 225 0 l 225 419 b 389 603 225 524 289 603 b 507 553 442 603 469 590 z m 542 1038 l 446 1038 l 321 892 l 196 1038 l 100 1038 l 274 825 l 368 825 z "},"Ś":{"ha":817,"x_min":0,"x_max":0,"o":"m 739 272 b 656 468 739 354 710 422 b 475 538 614 504 568 524 l 367 554 b 233 608 315 563 264 582 b 189 722 203 635 189 674 b 397 906 189 832 265 906 b 628 821 501 906 567 876 l 696 889 b 401 997 611 965 528 997 b 85 718 206 997 85 886 b 160 533 85 639 110 578 b 342 458 203 496 264 471 l 457 440 b 586 393 529 429 554 421 b 633 269 618 365 633 321 b 400 86 633 154 544 86 b 131 194 289 86 213 113 l 58 122 b 397 -8 151 29 249 -8 b 739 272 603 -8 739 99 z m 582 1297 l 463 1297 l 340 1085 l 432 1085 z "},"ś":{"ha":689,"x_min":0,"x_max":0,"o":"m 618 200 b 417 385 618 328 536 374 l 307 394 b 188 494 221 401 188 436 b 340 607 188 564 240 607 b 522 553 411 607 474 590 l 588 618 b 342 692 526 668 439 692 b 90 492 196 692 90 617 b 294 308 90 379 161 319 l 407 299 b 521 199 486 292 521 258 b 339 78 521 118 451 78 b 126 157 254 78 181 100 l 60 90 b 340 -8 135 18 225 -8 b 618 200 506 -8 618 68 z m 518 1038 l 399 1038 l 276 825 l 368 825 z "},"Ŝ":{"ha":817,"x_min":0,"x_max":0,"o":"m 739 272 b 656 468 739 354 710 422 b 475 538 614 504 568 524 l 367 554 b 233 608 315 563 264 582 b 189 722 203 635 189 674 b 397 906 189 832 265 906 b 628 821 501 906 567 876 l 696 889 b 401 997 611 965 528 997 b 85 718 206 997 85 886 b 160 533 85 639 110 578 b 342 458 203 496 264 471 l 457 440 b 586 393 529 429 554 421 b 633 269 618 365 633 321 b 400 86 633 154 544 86 b 131 194 289 86 213 113 l 58 122 b 397 -8 151 29 249 -8 b 739 272 603 -8 739 99 z m 622 1085 l 449 1297 l 354 1297 l 181 1085 l 276 1085 l 401 1229 l 526 1085 z "},"ŝ":{"ha":689,"x_min":0,"x_max":0,"o":"m 618 200 b 417 385 618 328 536 374 l 307 394 b 188 494 221 401 188 436 b 340 607 188 564 240 607 b 522 553 411 607 474 590 l 588 618 b 342 692 526 668 439 692 b 90 492 196 692 90 617 b 294 308 90 379 161 319 l 407 299 b 521 199 486 292 521 258 b 339 78 521 118 451 78 b 126 157 254 78 181 100 l 60 90 b 340 -8 135 18 225 -8 b 618 200 506 -8 618 68 z m 563 825 l 389 1038 l 294 1038 l 121 825 l 217 825 l 342 969 l 467 825 z "},"Ş":{"ha":817,"x_min":0,"x_max":0,"o":"m 739 272 b 656 468 739 354 710 422 b 475 538 614 504 568 524 l 367 554 b 233 608 315 563 264 582 b 189 722 203 635 189 674 b 397 906 189 832 265 906 b 628 821 501 906 567 876 l 696 889 b 401 997 611 965 528 997 b 85 718 206 997 85 886 b 160 533 85 639 110 578 b 342 458 203 496 264 471 l 457 440 b 586 393 529 429 554 421 b 633 269 618 365 633 321 b 400 86 633 154 544 86 b 131 194 289 86 213 113 l 58 122 b 397 -8 151 29 249 -8 b 739 272 603 -8 739 99 z m 496 -93 l 403 -93 l 304 -300 l 414 -300 z "},"ş":{"ha":689,"x_min":0,"x_max":0,"o":"m 618 200 b 417 385 618 328 536 374 l 307 394 b 188 494 221 401 188 436 b 340 607 188 564 240 607 b 522 553 411 607 474 590 l 588 618 b 342 692 526 668 439 692 b 90 492 196 692 90 617 b 294 308 90 379 161 319 l 407 299 b 521 199 486 292 521 258 b 339 78 521 118 451 78 b 126 157 254 78 181 100 l 60 90 b 340 -8 135 18 225 -8 b 618 200 506 -8 618 68 z m 432 -93 l 339 -93 l 240 -300 l 350 -300 z "},"Š":{"ha":817,"x_min":0,"x_max":0,"o":"m 739 272 b 656 468 739 354 710 422 b 475 538 614 504 568 524 l 367 554 b 233 608 315 563 264 582 b 189 722 203 635 189 674 b 397 906 189 832 265 906 b 628 821 501 906 567 876 l 696 889 b 401 997 611 965 528 997 b 85 718 206 997 85 886 b 160 533 85 639 110 578 b 342 458 203 496 264 471 l 457 440 b 586 393 529 429 554 421 b 633 269 618 365 633 321 b 400 86 633 154 544 86 b 131 194 289 86 213 113 l 58 122 b 397 -8 151 29 249 -8 b 739 272 603 -8 739 99 z m 622 1297 l 526 1297 l 401 1151 l 276 1297 l 181 1297 l 354 1085 l 449 1085 z "},"š":{"ha":689,"x_min":0,"x_max":0,"o":"m 618 200 b 417 385 618 328 536 374 l 307 394 b 188 494 221 401 188 436 b 340 607 188 564 240 607 b 522 553 411 607 474 590 l 588 618 b 342 692 526 668 439 692 b 90 492 196 692 90 617 b 294 308 90 379 161 319 l 407 299 b 521 199 486 292 521 258 b 339 78 521 118 451 78 b 126 157 254 78 181 100 l 60 90 b 340 -8 135 18 225 -8 b 618 200 506 -8 618 68 z m 563 1038 l 467 1038 l 342 892 l 217 1038 l 121 1038 l 294 825 l 389 825 z "},"Ţ":{"ha":761,"x_min":0,"x_max":0,"o":"m 719 894 l 719 989 l 42 989 l 42 894 l 328 894 l 328 0 l 433 0 l 433 894 z m 386 -300 l 468 -93 l 376 -93 l 278 -300 z "},"ţ":{"ha":461,"x_min":0,"x_max":0,"o":"m 388 0 l 388 86 l 335 86 b 242 186 271 86 242 124 l 242 603 l 388 603 l 388 679 l 242 679 l 242 893 l 142 893 l 142 679 l 56 679 l 56 603 l 142 603 l 142 183 b 317 0 142 82 200 0 z m 235 -300 l 317 -93 l 225 -93 l 126 -300 z "},"Ť":{"ha":761,"x_min":0,"x_max":0,"o":"m 719 894 l 719 989 l 42 989 l 42 894 l 328 894 l 328 0 l 433 0 l 433 894 z m 601 1297 l 506 1297 l 381 1151 l 256 1297 l 160 1297 l 333 1085 l 428 1085 z "},"ť":{"ha":461,"x_min":0,"x_max":0,"o":"m 388 0 l 388 86 l 335 86 b 242 186 271 86 242 124 l 242 603 l 388 603 l 388 679 l 242 679 l 242 893 l 142 893 l 142 679 l 56 679 l 56 603 l 142 603 l 142 183 b 317 0 142 82 200 0 z m 467 999 l 369 999 l 315 788 l 396 788 z "},"Ū":{"ha":949,"x_min":0,"x_max":0,"o":"m 819 326 l 819 989 l 714 989 l 714 335 b 474 86 714 185 618 86 b 235 335 329 86 235 185 l 235 989 l 129 989 l 129 326 b 474 -8 129 129 274 -8 b 819 326 674 -8 819 129 z m 264 1108 l 682 1108 l 682 1188 l 264 1188 z "},"ū":{"ha":781,"x_min":0,"x_max":0,"o":"m 656 0 l 656 683 l 556 683 l 556 263 b 385 81 556 143 488 81 b 218 263 282 81 218 142 l 218 683 l 118 683 l 118 247 b 188 56 118 168 139 103 b 364 -8 229 14 290 -8 b 557 76 440 -8 508 21 l 557 0 z m 599 836 l 599 915 l 179 915 l 179 836 z "},"Ŭ":{"ha":949,"x_min":0,"x_max":0,"o":"m 819 326 l 819 989 l 714 989 l 714 335 b 474 86 714 185 618 86 b 235 335 329 86 235 185 l 235 989 l 129 989 l 129 326 b 474 -8 129 129 274 -8 b 819 326 674 -8 819 129 z m 703 1289 l 625 1289 b 474 1174 615 1215 558 1174 b 322 1289 389 1174 332 1215 l 244 1289 b 474 1096 256 1163 332 1096 b 703 1289 615 1096 692 1163 z "},"ŭ":{"ha":781,"x_min":0,"x_max":0,"o":"m 656 0 l 656 683 l 556 683 l 556 263 b 385 81 556 143 488 81 b 218 263 282 81 218 142 l 218 683 l 118 683 l 118 247 b 188 56 118 168 139 103 b 364 -8 229 14 290 -8 b 557 76 440 -8 508 21 l 557 0 z m 614 1013 l 536 1013 b 385 897 526 939 469 897 b 233 1013 300 897 243 939 l 156 1013 b 385 819 167 886 243 819 b 614 1013 526 819 603 886 z "},"Ů":{"ha":949,"x_min":0,"x_max":0,"o":"m 819 326 l 819 989 l 714 989 l 714 335 b 474 86 714 185 618 86 b 235 335 329 86 235 185 l 235 989 l 129 989 l 129 326 b 474 -8 129 129 274 -8 b 819 326 674 -8 819 129 z m 638 1214 b 474 1378 638 1306 564 1378 b 310 1214 383 1378 310 1304 b 474 1049 310 1124 383 1049 b 638 1214 564 1049 638 1124 z m 569 1214 b 474 1118 569 1161 526 1118 b 378 1214 421 1118 378 1161 b 474 1308 378 1267 421 1308 b 569 1214 526 1308 569 1267 z "},"ů":{"ha":781,"x_min":0,"x_max":0,"o":"m 656 0 l 656 683 l 556 683 l 556 263 b 385 81 556 143 488 81 b 218 263 282 81 218 142 l 218 683 l 118 683 l 118 247 b 188 56 118 168 139 103 b 364 -8 229 14 290 -8 b 557 76 440 -8 508 21 l 557 0 z m 554 954 b 390 1118 554 1046 481 1118 b 226 954 300 1118 226 1044 b 390 789 226 864 300 789 b 554 954 481 789 554 864 z m 486 954 b 390 858 486 901 443 858 b 294 954 338 858 294 901 b 390 1049 294 1007 338 1049 b 486 954 443 1049 486 1007 z "},"Ű":{"ha":949,"x_min":0,"x_max":0,"o":"m 819 326 l 819 989 l 714 989 l 714 335 b 474 86 714 185 618 86 b 235 335 329 86 235 185 l 235 989 l 129 989 l 129 326 b 474 -8 129 129 274 -8 b 819 326 674 -8 819 129 z m 549 1297 l 431 1297 l 307 1085 l 399 1085 z m 775 1297 l 657 1297 l 533 1085 l 624 1085 z "},"ű":{"ha":781,"x_min":0,"x_max":0,"o":"m 656 0 l 656 683 l 556 683 l 556 263 b 385 81 556 143 488 81 b 218 263 282 81 218 142 l 218 683 l 118 683 l 118 247 b 188 56 118 168 139 103 b 364 -8 229 14 290 -8 b 557 76 440 -8 508 21 l 557 0 z m 465 1038 l 347 1038 l 224 825 l 315 825 z m 692 1038 l 574 1038 l 450 825 l 540 825 z "},"Ų":{"ha":949,"x_min":0,"x_max":0,"o":"m 819 326 l 819 989 l 714 989 l 714 335 b 474 86 714 185 618 86 b 235 335 329 86 235 185 l 235 989 l 129 989 l 129 326 b 474 -8 129 129 274 -8 b 819 326 674 -8 819 129 z m 664 -93 l 571 -93 l 472 -300 l 582 -300 z "},"ų":{"ha":781,"x_min":0,"x_max":0,"o":"m 656 0 l 656 683 l 556 683 l 556 263 b 385 81 556 143 488 81 b 218 263 282 81 218 142 l 218 683 l 118 683 l 118 247 b 188 56 118 168 139 103 b 364 -8 229 14 290 -8 b 557 76 440 -8 508 21 l 557 0 z m 650 -93 l 557 -93 l 458 -300 l 568 -300 z "},"Ÿ":{"ha":714,"x_min":0,"x_max":0,"o":"m 703 989 l 589 989 l 358 515 l 125 989 l 11 989 l 306 408 l 306 0 l 411 0 l 411 408 z m 554 1096 l 554 1219 l 454 1219 l 454 1096 z m 260 1096 l 260 1219 l 160 1219 l 160 1096 z "},"Ź":{"ha":772,"x_min":0,"x_max":0,"o":"m 693 0 l 693 94 l 194 94 l 693 900 l 693 989 l 99 989 l 99 894 l 574 894 l 79 100 l 79 0 z m 560 1297 l 440 1297 l 318 1085 l 410 1085 z "},"ź":{"ha":638,"x_min":0,"x_max":0,"o":"m 565 0 l 565 89 l 183 89 l 565 599 l 565 683 l 90 683 l 90 594 l 450 594 l 69 86 l 69 0 z m 493 1038 l 374 1038 l 251 825 l 343 825 z "},"Ż":{"ha":772,"x_min":0,"x_max":0,"o":"m 693 0 l 693 94 l 194 94 l 693 900 l 693 989 l 99 989 l 99 894 l 574 894 l 79 100 l 79 0 z m 332 1107 l 436 1107 l 436 1213 l 332 1213 z "},"ż":{"ha":638,"x_min":0,"x_max":0,"o":"m 565 0 l 565 89 l 183 89 l 565 599 l 565 683 l 90 683 l 90 594 l 450 594 l 69 86 l 69 0 z m 267 847 l 371 847 l 371 954 l 267 954 z "},"Ž":{"ha":772,"x_min":0,"x_max":0,"o":"m 693 0 l 693 94 l 194 94 l 693 900 l 693 989 l 99 989 l 99 894 l 574 894 l 79 100 l 79 0 z m 615 1297 l 519 1297 l 394 1151 l 269 1297 l 174 1297 l 347 1085 l 442 1085 z "},"ž":{"ha":638,"x_min":0,"x_max":0,"o":"m 565 0 l 565 89 l 183 89 l 565 599 l 565 683 l 90 683 l 90 594 l 450 594 l 69 86 l 69 0 z m 549 1038 l 453 1038 l 328 892 l 203 1038 l 107 1038 l 281 825 l 375 825 z "},"ƒ":{"ha":560,"x_min":0,"x_max":0,"o":"m 518 906 l 518 992 l 446 992 b 239 808 329 992 257 910 l 192 533 l 42 533 l 42 458 l 178 458 l 43 -306 l 143 -306 l 278 458 l 438 458 l 438 533 l 292 533 l 339 806 b 449 906 350 868 385 906 z "},"Ș":{"ha":817,"x_min":0,"x_max":0,"o":"m 739 272 b 656 468 739 354 710 422 b 475 538 614 504 568 524 l 367 554 b 233 608 315 563 264 582 b 189 722 203 635 189 674 b 397 906 189 832 265 906 b 628 821 501 906 567 876 l 696 889 b 401 997 611 965 528 997 b 85 718 206 997 85 886 b 160 533 85 639 110 578 b 342 458 203 496 264 471 l 457 440 b 586 393 529 429 554 421 b 633 269 618 365 633 321 b 400 86 633 154 544 86 b 131 194 289 86 213 113 l 58 122 b 397 -8 151 29 249 -8 b 739 272 603 -8 739 99 z m 393 -300 l 475 -93 l 383 -93 l 285 -300 z "},"ș":{"ha":689,"x_min":0,"x_max":0,"o":"m 618 200 b 417 385 618 328 536 374 l 307 394 b 188 494 221 401 188 436 b 340 607 188 564 240 607 b 522 553 411 607 474 590 l 588 618 b 342 692 526 668 439 692 b 90 492 196 692 90 617 b 294 308 90 379 161 319 l 407 299 b 521 199 486 292 521 258 b 339 78 521 118 451 78 b 126 157 254 78 181 100 l 60 90 b 340 -8 135 18 225 -8 b 618 200 506 -8 618 68 z m 332 -300 l 414 -93 l 322 -93 l 224 -300 z "},"Ț":{"ha":761,"x_min":0,"x_max":0,"o":"m 719 894 l 719 989 l 42 989 l 42 894 l 328 894 l 328 0 l 433 0 l 433 894 z m 393 -300 l 475 -93 l 383 -93 l 285 -300 z "},"ț":{"ha":461,"x_min":0,"x_max":0,"o":"m 388 0 l 388 86 l 335 86 b 242 186 271 86 242 124 l 242 603 l 388 603 l 388 679 l 242 679 l 242 893 l 142 893 l 142 679 l 56 679 l 56 603 l 142 603 l 142 183 b 317 0 142 82 200 0 z m 243 -300 l 325 -93 l 233 -93 l 135 -300 z "},"ȷ":{"ha":351,"x_min":0,"x_max":0,"o":"m 225 -124 l 225 679 l 125 679 l 125 -119 b 33 -219 125 -186 103 -219 l -21 -219 l -21 -307 l 51 -307 b 225 -124 171 -307 225 -228 z "},"ˆ":{"ha":694,"x_min":0,"x_max":0,"o":"m 568 825 l 394 1038 l 300 1038 l 126 825 l 222 825 l 347 969 l 472 825 z "},"ˇ":{"ha":694,"x_min":0,"x_max":0,"o":"m 568 1038 l 472 1038 l 347 892 l 222 1038 l 126 1038 l 300 825 l 394 825 z "},"˘":{"ha":694,"x_min":0,"x_max":0,"o":"m 576 1013 l 499 1013 b 347 897 489 939 432 897 b 196 1013 263 897 206 939 l 118 1013 b 347 819 129 886 206 819 b 576 1013 489 819 565 886 z "},"˙":{"ha":694,"x_min":0,"x_max":0,"o":"m 294 847 l 399 847 l 399 954 l 294 954 z "},"˚":{"ha":694,"x_min":0,"x_max":0,"o":"m 511 954 b 347 1118 511 1046 438 1118 b 183 954 257 1118 183 1044 b 347 789 183 864 257 789 b 511 954 438 789 511 864 z m 443 954 b 347 858 443 901 400 858 b 251 954 294 858 251 901 b 347 1049 251 1007 294 1049 b 443 954 400 1049 443 1007 z "},"˛":{"ha":694,"x_min":0,"x_max":0,"o":"m 513 -93 l 419 -93 l 321 -300 l 431 -300 z "},"˜":{"ha":736,"x_min":0,"x_max":0,"o":"m 586 914 l 535 964 b 453 919 493 922 475 919 b 375 947 425 919 404 931 b 276 981 340 969 317 981 b 144 910 243 981 208 974 l 196 860 b 278 904 238 901 254 904 b 356 876 306 904 329 892 b 454 843 389 857 415 843 b 586 914 486 843 524 850 z "},"˝":{"ha":694,"x_min":0,"x_max":0,"o":"m 422 1038 l 304 1038 l 181 825 l 272 825 z m 649 1038 l 531 1038 l 407 825 l 497 825 z "},"΄":{"ha":354,"x_min":0,"x_max":0,"o":"m 229 851 l 229 989 l 124 989 l 124 799 z "},"΅":{"ha":678,"x_min":0,"x_max":0,"o":"m 392 851 l 392 989 l 286 989 l 286 799 z m 553 818 l 553 943 l 453 943 l 453 818 z m 224 818 l 224 943 l 125 943 l 125 818 z "},"Ά":{"ha":849,"x_min":0,"x_max":0,"o":"m 832 0 l 469 989 l 381 989 l 17 0 l 129 0 l 208 224 l 640 224 l 719 0 z m 610 315 l 240 315 l 426 838 z m 108 851 l 108 989 l 3 989 l 3 799 z "},"·":{"ha":375,"x_min":0,"x_max":0,"o":"m 253 310 l 253 440 l 122 440 l 122 310 z "},"Έ":{"ha":833,"x_min":0,"x_max":0,"o":"m 757 0 l 757 94 l 249 94 l 249 451 l 682 451 l 682 546 l 249 546 l 249 894 l 757 894 l 757 989 l 143 989 l 143 0 z m 25 851 l 25 989 l -81 989 l -81 799 z "},"Ή":{"ha":967,"x_min":0,"x_max":0,"o":"m 824 0 l 824 989 l 718 989 l 718 546 l 249 546 l 249 989 l 143 989 l 143 0 l 249 0 l 249 451 l 718 451 l 718 0 z m 25 851 l 25 989 l -81 989 l -81 799 z "},"Ί":{"ha":392,"x_min":0,"x_max":0,"o":"m 249 0 l 249 989 l 143 989 l 143 0 z m 25 851 l 25 989 l -81 989 l -81 799 z "},"Ό":{"ha":903,"x_min":0,"x_max":0,"o":"m 797 494 b 704 894 797 704 797 801 b 451 997 638 961 550 997 b 199 894 353 997 265 961 b 106 494 106 801 106 704 b 199 94 106 285 106 188 b 451 -8 265 28 353 -8 b 704 94 550 -8 638 28 b 797 494 797 188 797 285 z m 692 494 b 622 157 692 288 685 221 b 451 86 579 113 517 86 b 281 157 386 86 324 113 b 211 494 218 221 211 288 b 281 832 211 701 218 768 b 451 903 324 876 386 903 b 622 832 517 903 579 876 b 692 494 685 768 692 701 z m 53 851 l 53 989 l -53 989 l -53 799 z "},"Ύ":{"ha":714,"x_min":0,"x_max":0,"o":"m 703 989 l 589 989 l 358 515 l 125 989 l 11 989 l 306 408 l 306 0 l 411 0 l 411 408 z m -44 851 l -44 989 l -150 989 l -150 799 z "},"Ώ":{"ha":903,"x_min":0,"x_max":0,"o":"m 797 0 l 797 93 l 682 93 b 760 186 719 124 743 153 b 797 494 800 264 797 381 b 704 894 797 704 797 801 b 451 997 638 961 550 997 b 199 894 353 997 265 961 b 106 494 106 801 106 704 b 143 186 106 381 103 264 b 219 93 160 153 182 124 l 106 93 l 106 0 l 376 0 l 376 89 b 249 194 321 115 281 143 b 211 492 217 246 211 338 b 281 832 211 699 219 769 b 451 903 325 876 386 903 b 622 832 517 903 578 876 b 690 492 683 769 690 699 b 654 194 690 338 686 246 b 526 89 622 143 582 115 l 526 0 z m 53 851 l 53 989 l -53 989 l -53 799 z "},"ΐ":{"ha":413,"x_min":0,"x_max":0,"o":"m 368 0 l 368 86 l 314 86 b 222 186 244 86 222 119 l 222 683 l 122 683 l 122 182 b 296 0 122 76 176 0 z m 228 851 l 228 989 l 122 989 l 122 799 z m 389 818 l 389 943 l 289 943 l 289 818 z m 60 818 l 60 943 l -39 943 l -39 818 z "},"Α":{"ha":849,"x_min":0,"x_max":0,"o":"m 832 0 l 469 989 l 381 989 l 17 0 l 129 0 l 208 224 l 640 224 l 719 0 z m 610 315 l 240 315 l 426 838 z "},"Β":{"ha":928,"x_min":0,"x_max":0,"o":"m 822 274 b 661 508 822 392 756 474 b 807 725 744 539 807 621 b 515 989 807 890 688 989 l 143 989 l 143 0 l 528 0 b 822 274 703 0 822 94 z m 717 276 b 518 94 717 165 640 94 l 249 94 l 249 457 l 518 457 b 717 276 640 457 717 388 z m 701 724 b 507 551 701 606 617 551 l 249 551 l 249 894 l 507 894 b 701 724 617 894 701 842 z "},"Γ":{"ha":763,"x_min":0,"x_max":0,"o":"m 735 894 l 735 989 l 143 989 l 143 0 l 249 0 l 249 894 z "},"Δ":{"ha":838,"x_min":0,"x_max":0,"o":"m 825 0 l 463 989 l 375 989 l 11 0 z m 688 92 l 150 92 l 419 838 z "},"Ε":{"ha":833,"x_min":0,"x_max":0,"o":"m 757 0 l 757 94 l 249 94 l 249 451 l 682 451 l 682 546 l 249 546 l 249 894 l 757 894 l 757 989 l 143 989 l 143 0 z "},"Ζ":{"ha":772,"x_min":0,"x_max":0,"o":"m 693 0 l 693 94 l 194 94 l 693 900 l 693 989 l 99 989 l 99 894 l 574 894 l 79 100 l 79 0 z "},"Η":{"ha":967,"x_min":0,"x_max":0,"o":"m 824 0 l 824 989 l 718 989 l 718 546 l 249 546 l 249 989 l 143 989 l 143 0 l 249 0 l 249 451 l 718 451 l 718 0 z "},"Θ":{"ha":903,"x_min":0,"x_max":0,"o":"m 797 494 b 704 894 797 704 797 801 b 451 997 638 961 550 997 b 199 894 353 997 265 961 b 106 494 106 801 106 704 b 199 94 106 285 106 188 b 451 -8 265 28 353 -8 b 704 94 550 -8 638 28 b 797 494 797 188 797 285 z m 692 450 b 622 157 690 279 679 215 b 451 86 579 113 517 86 b 281 157 386 86 324 113 b 211 450 224 215 213 279 z m 692 543 l 211 543 b 281 832 213 711 224 774 b 451 903 324 876 386 903 b 622 832 517 903 579 876 b 692 543 679 774 690 711 z "},"Ι":{"ha":392,"x_min":0,"x_max":0,"o":"m 249 0 l 249 989 l 143 989 l 143 0 z "},"Κ":{"ha":903,"x_min":0,"x_max":0,"o":"m 883 0 l 528 607 l 839 989 l 710 989 l 249 421 l 249 989 l 143 989 l 143 0 l 249 0 l 249 276 l 457 526 l 758 0 z "},"Λ":{"ha":831,"x_min":0,"x_max":0,"o":"m 789 0 l 464 989 l 367 989 l 42 0 l 153 0 l 417 839 l 678 0 z "},"Μ":{"ha":1133,"x_min":0,"x_max":0,"o":"m 990 0 l 990 989 l 885 989 l 571 288 l 249 989 l 143 989 l 143 0 l 249 0 l 249 751 l 524 156 l 614 156 l 885 751 l 885 0 z "},"Ν":{"ha":1017,"x_min":0,"x_max":0,"o":"m 874 0 l 874 989 l 768 989 l 768 199 l 243 989 l 143 989 l 143 0 l 249 0 l 249 793 l 774 0 z "},"Ξ":{"ha":796,"x_min":0,"x_max":0,"o":"m 719 0 l 719 94 l 450 94 l 450 451 l 644 451 l 644 546 l 450 546 l 450 894 l 719 894 l 719 989 l 76 989 l 76 894 l 344 894 l 344 546 l 151 546 l 151 451 l 344 451 l 344 94 l 76 94 l 76 0 z "},"Ο":{"ha":903,"x_min":0,"x_max":0,"o":"m 797 494 b 704 894 797 704 797 801 b 451 997 638 961 550 997 b 199 894 353 997 265 961 b 106 494 106 801 106 704 b 199 94 106 285 106 188 b 451 -8 265 28 353 -8 b 704 94 550 -8 638 28 b 797 494 797 188 797 285 z m 692 494 b 622 157 692 288 685 221 b 451 86 579 113 517 86 b 281 157 386 86 324 113 b 211 494 218 221 211 288 b 281 832 211 701 218 768 b 451 903 324 876 386 903 b 622 832 517 903 579 876 b 692 494 685 768 692 701 z "},"Π":{"ha":946,"x_min":0,"x_max":0,"o":"m 803 0 l 803 989 l 143 989 l 143 0 l 249 0 l 249 894 l 697 894 l 697 0 z "},"Ρ":{"ha":875,"x_min":0,"x_max":0,"o":"m 817 699 b 511 989 817 876 692 989 l 143 989 l 143 0 l 249 0 l 249 407 l 511 407 b 817 699 692 407 817 521 z m 711 699 b 501 501 711 568 625 501 l 249 501 l 249 894 l 501 894 b 711 699 625 894 711 829 z "},"Σ":{"ha":774,"x_min":0,"x_max":0,"o":"m 694 894 l 694 989 l 100 989 l 100 903 l 339 529 l 79 99 l 79 0 l 693 0 l 693 94 l 194 94 l 457 532 l 224 894 z "},"Τ":{"ha":761,"x_min":0,"x_max":0,"o":"m 719 894 l 719 989 l 42 989 l 42 894 l 328 894 l 328 0 l 433 0 l 433 894 z "},"Υ":{"ha":714,"x_min":0,"x_max":0,"o":"m 703 989 l 589 989 l 358 515 l 125 989 l 11 989 l 306 408 l 306 0 l 411 0 l 411 408 z "},"Φ":{"ha":1017,"x_min":0,"x_max":0,"o":"m 931 501 b 840 810 931 614 925 725 b 561 917 760 890 672 917 l 561 989 l 456 989 l 456 917 b 176 810 344 917 257 890 b 86 501 92 725 86 614 b 176 193 86 389 92 278 b 456 86 257 113 344 86 l 456 0 l 561 0 l 561 86 b 840 193 672 86 760 113 b 931 501 925 278 931 389 z m 825 501 b 760 254 825 415 824 321 b 561 181 704 196 639 181 l 561 822 b 760 749 639 822 704 806 b 825 501 824 682 825 588 z m 456 181 b 258 254 378 181 314 196 b 192 501 194 321 192 415 b 258 749 192 588 194 682 b 456 822 314 806 378 822 z "},"Χ":{"ha":765,"x_min":0,"x_max":0,"o":"m 744 0 l 439 507 l 724 989 l 601 989 l 382 599 l 163 989 l 40 989 l 324 507 l 21 0 l 140 0 l 382 415 l 622 0 z "},"Ψ":{"ha":938,"x_min":0,"x_max":0,"o":"m 865 514 l 865 989 l 760 989 l 760 514 b 696 350 760 432 736 392 b 525 281 653 306 590 281 l 522 281 l 522 989 l 417 989 l 417 281 l 413 281 b 242 350 347 281 285 306 b 178 514 201 392 178 432 l 178 989 l 72 989 l 72 514 b 160 289 72 414 97 351 b 413 186 226 222 314 186 l 417 186 l 417 0 l 522 0 l 522 186 l 525 186 b 778 289 624 186 711 222 b 865 514 840 351 865 414 z "},"Ω":{"ha":903,"x_min":0,"x_max":0,"o":"m 797 0 l 797 93 l 682 93 b 760 186 719 124 743 153 b 797 494 800 264 797 381 b 704 894 797 704 797 801 b 451 997 638 961 550 997 b 199 894 353 997 265 961 b 106 494 106 801 106 704 b 143 186 106 381 103 264 b 219 93 160 153 182 124 l 106 93 l 106 0 l 376 0 l 376 89 b 249 194 321 115 281 143 b 211 492 217 246 211 338 b 281 832 211 699 219 769 b 451 903 325 876 386 903 b 622 832 517 903 578 876 b 690 492 683 769 690 699 b 654 194 690 338 686 246 b 526 89 622 143 582 115 l 526 0 z "},"Ϊ":{"ha":392,"x_min":0,"x_max":0,"o":"m 249 0 l 249 989 l 143 989 l 143 0 z m 396 1096 l 396 1219 l 296 1219 l 296 1096 z m 101 1096 l 101 1219 l 1 1219 l 1 1096 z "},"Ϋ":{"ha":714,"x_min":0,"x_max":0,"o":"m 703 989 l 589 989 l 358 515 l 125 989 l 11 989 l 306 408 l 306 0 l 411 0 l 411 408 z m 554 1096 l 554 1219 l 454 1219 l 454 1096 z m 260 1096 l 260 1219 l 160 1219 l 160 1096 z "},"ά":{"ha":757,"x_min":0,"x_max":0,"o":"m 632 0 l 632 683 l 532 683 l 532 604 b 339 692 475 675 415 692 b 172 632 268 692 208 668 b 89 342 103 563 89 447 b 172 51 89 236 103 121 b 339 -8 208 15 268 -8 b 533 82 415 -8 476 10 l 533 0 z m 532 342 b 361 81 532 208 510 81 b 189 342 213 81 189 208 b 361 603 189 475 213 603 b 532 342 510 603 532 475 z m 422 851 l 422 989 l 317 989 l 317 799 z "},"έ":{"ha":685,"x_min":0,"x_max":0,"o":"m 625 101 l 556 163 b 338 78 482 94 401 78 b 190 193 256 78 190 125 b 331 308 190 253 224 308 l 449 308 l 449 388 l 328 388 b 201 496 244 388 201 431 b 346 607 201 563 275 607 b 546 526 425 607 485 582 l 608 593 b 342 692 531 667 460 692 b 99 499 218 692 99 622 b 197 350 99 424 138 374 b 86 189 129 322 86 274 b 333 -8 86 57 204 -8 b 625 101 443 -8 533 15 z m 408 851 l 408 989 l 303 989 l 303 799 z "},"ή":{"ha":781,"x_min":0,"x_max":0,"o":"m 663 0 l 663 438 b 592 628 663 517 640 581 b 417 692 550 669 490 692 b 225 608 340 692 274 664 l 225 683 l 125 683 l 125 0 l 225 0 l 225 421 b 394 603 225 540 292 603 b 563 421 497 603 563 542 l 563 0 z m 450 851 l 450 989 l 344 989 l 344 799 z "},"ί":{"ha":413,"x_min":0,"x_max":0,"o":"m 368 0 l 368 86 l 314 86 b 222 186 244 86 222 119 l 222 683 l 122 683 l 122 182 b 296 0 122 76 176 0 z m 228 851 l 228 989 l 122 989 l 122 799 z "},"ΰ":{"ha":724,"x_min":0,"x_max":0,"o":"m 629 340 l 629 683 l 529 683 l 529 340 b 481 133 529 269 533 186 b 361 81 446 99 411 81 b 242 133 311 81 276 99 b 193 340 189 186 193 269 l 193 683 l 94 683 l 94 340 b 174 69 94 244 99 144 b 361 -8 225 18 282 -8 b 550 69 440 -8 499 18 b 629 340 625 144 629 244 z m 414 851 l 414 989 l 308 989 l 308 799 z m 575 818 l 575 943 l 475 943 l 475 818 z m 246 818 l 246 943 l 147 943 l 147 818 z "},"α":{"ha":757,"x_min":0,"x_max":0,"o":"m 632 0 l 632 683 l 532 683 l 532 604 b 339 692 475 675 415 692 b 172 632 268 692 208 668 b 89 342 103 563 89 447 b 172 51 89 236 103 121 b 339 -8 208 15 268 -8 b 533 82 415 -8 476 10 l 533 0 z m 532 342 b 361 81 532 208 510 81 b 189 342 213 81 189 208 b 361 603 189 475 213 603 b 532 342 510 603 532 475 z "},"β":{"ha":768,"x_min":0,"x_max":0,"o":"m 701 281 b 515 536 701 443 628 518 b 650 753 617 564 650 665 b 390 989 650 910 543 989 b 125 740 233 989 125 883 l 125 0 l 224 0 l 224 82 b 442 -8 285 7 353 -8 b 701 281 589 -8 701 126 z m 604 285 b 411 78 604 186 549 78 b 225 285 278 78 225 182 l 225 714 b 393 907 225 825 276 907 b 554 739 482 907 554 861 b 381 564 554 672 540 564 l 296 564 l 296 485 l 378 485 b 604 285 496 485 604 460 z "},"γ":{"ha":621,"x_min":0,"x_max":0,"o":"m 604 683 l 497 683 l 311 131 l 124 683 l 17 683 l 261 7 l 261 -306 l 360 -306 l 360 7 z "},"δ":{"ha":738,"x_min":0,"x_max":0,"o":"m 649 351 b 507 703 649 478 622 596 l 288 906 l 589 906 l 589 989 l 164 989 l 164 906 l 432 663 b 353 678 408 674 379 678 b 172 604 278 678 218 651 b 89 342 107 538 89 439 b 175 67 89 238 107 136 b 367 -8 222 18 286 -8 b 563 67 451 -8 515 18 b 649 351 632 138 649 244 z m 547 342 b 496 133 547 267 543 185 b 368 81 464 99 422 81 b 242 135 314 81 274 100 b 189 342 194 186 189 269 b 244 549 189 417 196 499 b 372 600 276 582 319 600 b 496 546 424 600 465 581 b 547 342 540 496 547 415 z "},"ε":{"ha":685,"x_min":0,"x_max":0,"o":"m 625 101 l 556 163 b 338 78 482 94 401 78 b 190 193 256 78 190 125 b 331 308 190 253 224 308 l 449 308 l 449 388 l 328 388 b 201 496 244 388 201 431 b 346 607 201 563 275 607 b 546 526 425 607 485 582 l 608 593 b 342 692 531 667 460 692 b 99 499 218 692 99 622 b 197 350 99 424 138 374 b 86 189 129 322 86 274 b 333 -8 86 57 204 -8 b 625 101 443 -8 533 15 z "},"ζ":{"ha":653,"x_min":0,"x_max":0,"o":"m 603 -62 b 413 92 603 50 518 92 l 358 92 b 178 183 243 92 178 108 b 379 419 178 269 247 310 b 590 594 379 419 585 589 l 590 683 l 114 683 l 114 594 l 436 594 b 165 368 399 572 165 368 b 72 182 97 311 72 256 b 342 0 72 43 165 0 l 408 0 b 513 -69 478 0 513 -18 b 413 -144 513 -125 469 -144 l 413 -222 b 603 -62 557 -222 603 -144 z "},"η":{"ha":781,"x_min":0,"x_max":0,"o":"m 663 0 l 663 438 b 592 628 663 517 640 581 b 417 692 550 669 490 692 b 225 608 340 692 274 664 l 225 683 l 125 683 l 125 0 l 225 0 l 225 421 b 394 603 225 540 292 603 b 563 421 497 603 563 542 l 563 0 z "},"θ":{"ha":767,"x_min":0,"x_max":0,"o":"m 669 494 b 575 919 669 629 676 817 b 383 997 528 967 467 997 b 193 919 301 997 240 967 b 97 494 92 817 97 629 b 193 69 97 360 92 172 b 383 -8 240 22 301 -8 b 575 69 467 -8 528 22 b 669 494 676 172 669 360 z m 569 481 b 503 131 569 381 574 201 b 383 79 471 99 432 79 b 264 131 335 79 296 99 b 196 481 193 201 196 381 z m 569 568 l 197 568 b 264 858 199 668 206 800 b 383 908 296 890 335 908 b 503 858 432 908 471 890 b 569 568 560 801 568 668 z "},"ι":{"ha":413,"x_min":0,"x_max":0,"o":"m 368 0 l 368 86 l 314 86 b 222 186 244 86 222 119 l 222 683 l 122 683 l 122 182 b 296 0 122 76 176 0 z "},"κ":{"ha":744,"x_min":0,"x_max":0,"o":"m 699 0 l 426 422 l 657 683 l 533 683 l 225 328 l 225 683 l 125 683 l 125 0 l 225 0 l 225 199 l 358 350 l 575 0 z "},"λ":{"ha":665,"x_min":0,"x_max":0,"o":"m 676 0 l 676 86 l 644 86 b 551 167 600 86 569 111 l 319 871 b 143 992 289 964 232 992 l 111 992 l 111 906 l 136 906 b 236 833 196 906 218 890 l 288 671 l 22 0 l 131 0 l 332 546 l 333 547 l 468 128 b 518 43 481 89 499 61 b 638 0 553 11 590 0 z "},"μ":{"ha":779,"x_min":0,"x_max":0,"o":"m 654 0 l 654 683 l 554 683 l 554 263 b 383 81 554 143 486 81 b 215 263 281 81 215 142 l 215 683 l 115 683 l 115 -306 l 215 -306 l 215 43 b 363 -8 251 10 301 -8 b 554 76 439 -8 506 21 l 554 0 z "},"ν":{"ha":621,"x_min":0,"x_max":0,"o":"m 604 683 l 497 683 l 311 135 l 124 683 l 17 683 l 267 0 l 354 0 z "},"ξ":{"ha":683,"x_min":0,"x_max":0,"o":"m 656 854 b 397 972 578 940 489 972 b 122 713 236 972 122 865 b 256 515 122 618 176 539 b 83 265 156 485 83 393 b 365 0 83 107 203 0 l 442 0 b 544 -69 511 0 544 -18 b 446 -144 544 -125 503 -144 l 446 -222 b 636 -62 590 -222 636 -144 b 469 89 636 42 560 89 l 396 89 b 188 269 283 89 188 138 b 397 468 188 408 307 468 l 561 468 l 561 556 l 394 556 b 225 713 288 556 225 607 b 397 886 225 819 292 886 b 592 792 476 886 536 850 z "},"ο":{"ha":736,"x_min":0,"x_max":0,"o":"m 647 342 b 564 614 647 447 633 543 b 368 692 517 661 451 692 b 172 614 285 692 219 661 b 89 342 103 543 89 447 b 172 69 89 236 103 140 b 368 -8 219 22 285 -8 b 564 69 451 -8 517 22 b 647 342 633 140 647 236 z m 547 342 b 493 131 547 265 543 181 b 368 81 461 99 417 81 b 244 131 319 81 276 99 b 189 342 194 181 189 265 b 244 553 189 418 194 503 b 368 603 276 585 319 603 b 493 553 417 603 461 585 b 547 342 543 503 547 418 z "},"π":{"ha":821,"x_min":0,"x_max":0,"o":"m 681 0 l 681 683 l 140 683 l 140 0 l 238 0 l 238 593 l 585 593 l 585 0 z "},"ρ":{"ha":718,"x_min":0,"x_max":0,"o":"m 629 340 b 560 604 629 463 611 542 b 357 692 519 653 457 692 b 169 618 267 692 210 658 b 89 382 113 561 89 489 l 89 -306 l 189 -306 l 189 78 b 369 -8 249 11 303 -8 b 538 51 442 -8 500 15 b 629 340 608 119 629 233 z m 529 342 b 358 82 529 215 506 82 b 224 153 289 82 251 110 b 189 346 193 201 189 274 b 238 549 189 436 199 501 b 358 601 263 581 301 601 b 488 546 418 601 463 579 b 529 342 522 499 529 432 z "},"ς":{"ha":681,"x_min":0,"x_max":0,"o":"m 615 590 b 390 692 546 667 485 692 b 88 342 217 692 88 575 b 400 0 88 114 210 1 b 515 -69 457 0 515 -4 b 415 -144 515 -125 472 -144 l 415 -222 b 607 -62 560 -222 607 -144 b 401 90 607 54 510 89 b 231 168 326 92 271 110 b 188 342 200 213 188 264 b 232 525 188 429 200 481 b 390 603 268 576 324 603 b 547 526 454 603 496 583 z "},"σ":{"ha":758,"x_min":0,"x_max":0,"o":"m 675 594 l 675 683 l 367 683 b 169 607 278 683 214 653 b 89 342 106 540 89 460 b 169 72 89 222 107 138 b 367 -8 214 26 278 -8 b 565 72 457 -8 521 26 b 647 342 629 139 647 222 b 550 594 647 453 615 549 z m 549 342 b 496 136 549 254 539 185 b 367 81 465 103 418 81 b 239 136 315 81 269 103 b 189 342 196 185 189 254 b 240 543 189 429 197 494 b 367 597 271 576 315 597 b 496 544 418 597 465 578 b 549 342 539 496 549 429 z "},"τ":{"ha":525,"x_min":0,"x_max":0,"o":"m 481 594 l 481 683 l 44 683 l 44 594 l 213 594 l 213 0 l 313 0 l 313 594 z "},"υ":{"ha":724,"x_min":0,"x_max":0,"o":"m 629 340 l 629 683 l 529 683 l 529 340 b 481 133 529 269 533 186 b 361 81 446 99 411 81 b 242 133 311 81 276 99 b 193 340 189 186 193 269 l 193 683 l 94 683 l 94 340 b 174 69 94 244 99 144 b 361 -8 225 18 282 -8 b 550 69 440 -8 499 18 b 629 340 625 144 629 244 z "},"φ":{"ha":915,"x_min":0,"x_max":0,"o":"m 826 347 b 522 683 826 571 742 683 l 407 683 l 407 81 b 189 340 218 88 189 207 b 300 599 189 440 208 540 l 269 682 b 89 344 146 617 89 504 b 407 -8 89 151 161 -6 l 407 -306 l 507 -306 l 507 -8 b 826 347 754 -8 826 128 z m 725 351 b 507 81 725 204 708 86 l 507 594 b 725 351 700 594 725 496 z "},"χ":{"ha":664,"x_min":0,"x_max":0,"o":"m 618 0 l 386 349 l 608 683 l 488 683 l 333 431 l 176 683 l 56 683 l 278 349 l 46 0 l 167 0 l 333 265 l 497 0 z "},"ψ":{"ha":890,"x_min":0,"x_max":0,"o":"m 796 342 l 796 683 l 694 683 l 694 342 b 494 85 694 178 663 90 l 494 683 l 393 683 l 393 85 b 194 342 226 90 194 178 l 194 683 l 94 683 l 94 342 b 393 -7 94 118 169 -1 l 393 -306 l 494 -306 l 494 -7 b 796 342 718 -1 796 119 z "},"ω":{"ha":1004,"x_min":0,"x_max":0,"o":"m 915 336 b 844 596 915 428 890 542 b 667 692 813 633 757 686 l 667 600 b 778 526 713 596 758 558 b 815 336 804 482 815 447 b 783 143 815 285 815 200 b 678 81 763 107 726 81 b 563 190 610 81 576 131 b 553 326 551 238 553 290 l 553 501 l 451 501 l 451 326 b 440 190 451 290 451 238 b 326 81 425 132 393 81 b 221 143 278 81 242 107 b 188 336 189 200 188 285 b 226 526 188 447 200 482 b 336 600 246 558 290 596 l 336 692 b 158 596 246 686 190 633 b 89 336 113 542 89 428 b 138 93 89 250 100 158 b 326 -8 174 31 235 -8 b 501 121 415 -8 474 50 b 678 -8 529 50 589 -8 b 867 93 769 -8 831 31 b 915 336 904 158 915 250 z "},"ϊ":{"ha":413,"x_min":0,"x_max":0,"o":"m 368 0 l 368 86 l 314 86 b 222 186 244 86 222 119 l 222 683 l 122 683 l 122 182 b 296 0 122 76 176 0 z m 374 836 l 374 960 l 274 960 l 274 836 z m 79 836 l 79 960 l -21 960 l -21 836 z "},"ϋ":{"ha":724,"x_min":0,"x_max":0,"o":"m 629 340 l 629 683 l 529 683 l 529 340 b 481 133 529 269 533 186 b 361 81 446 99 411 81 b 242 133 311 81 276 99 b 193 340 189 186 193 269 l 193 683 l 94 683 l 94 340 b 174 69 94 244 99 144 b 361 -8 225 18 282 -8 b 550 69 440 -8 499 18 b 629 340 625 144 629 244 z m 565 836 l 565 960 l 465 960 l 465 836 z m 271 836 l 271 960 l 171 960 l 171 836 z "},"ό":{"ha":736,"x_min":0,"x_max":0,"o":"m 647 342 b 564 614 647 447 633 543 b 368 692 517 661 451 692 b 172 614 285 692 219 661 b 89 342 103 543 89 447 b 172 69 89 236 103 140 b 368 -8 219 22 285 -8 b 564 69 451 -8 517 22 b 647 342 633 140 647 236 z m 547 342 b 493 131 547 265 543 181 b 368 81 461 99 417 81 b 244 131 319 81 276 99 b 189 342 194 181 189 265 b 244 553 189 418 194 503 b 368 603 276 585 319 603 b 493 553 417 603 461 585 b 547 342 543 503 547 418 z m 422 851 l 422 989 l 317 989 l 317 799 z "},"ύ":{"ha":724,"x_min":0,"x_max":0,"o":"m 629 340 l 629 683 l 529 683 l 529 340 b 481 133 529 269 533 186 b 361 81 446 99 411 81 b 242 133 311 81 276 99 b 193 340 189 186 193 269 l 193 683 l 94 683 l 94 340 b 174 69 94 244 99 144 b 361 -8 225 18 282 -8 b 550 69 440 -8 499 18 b 629 340 625 144 629 244 z m 408 851 l 408 989 l 303 989 l 303 799 z "},"ώ":{"ha":1004,"x_min":0,"x_max":0,"o":"m 915 336 b 844 596 915 428 890 542 b 667 692 813 633 757 686 l 667 600 b 778 526 713 596 758 558 b 815 336 804 482 815 447 b 783 143 815 285 815 200 b 678 81 763 107 726 81 b 563 190 610 81 576 131 b 553 326 551 238 553 290 l 553 501 l 451 501 l 451 326 b 440 190 451 290 451 238 b 326 81 425 132 393 81 b 221 143 278 81 242 107 b 188 336 189 200 188 285 b 226 526 188 447 200 482 b 336 600 246 558 290 596 l 336 692 b 158 596 246 686 190 633 b 89 336 113 542 89 428 b 138 93 89 250 100 158 b 326 -8 174 31 235 -8 b 501 121 415 -8 474 50 b 678 -8 529 50 589 -8 b 867 93 769 -8 831 31 b 915 336 904 158 915 250 z m 547 851 l 547 989 l 442 989 l 442 799 z "},"ϐ":{"ha":768,"x_min":0,"x_max":0,"o":"m 701 281 b 515 536 701 443 628 518 b 650 753 617 564 650 665 b 390 989 650 910 543 989 b 125 740 233 989 125 883 l 125 -306 l 225 -306 l 225 81 b 442 -8 286 6 353 -8 b 701 281 589 -8 701 126 z m 604 285 b 411 78 604 186 549 78 b 225 285 278 78 225 182 l 225 714 b 393 907 225 825 276 907 b 554 739 482 907 554 861 b 381 564 554 672 540 564 l 296 564 l 296 485 l 378 485 b 604 285 496 485 604 460 z "},"Ё":{"ha":833,"x_min":0,"x_max":0,"o":"m 757 0 l 757 94 l 249 94 l 249 451 l 682 451 l 682 546 l 249 546 l 249 894 l 757 894 l 757 989 l 143 989 l 143 0 z m 632 1096 l 632 1219 l 532 1219 l 532 1096 z m 338 1096 l 338 1219 l 238 1219 l 238 1096 z "},"Ђ":{"ha":1033,"x_min":0,"x_max":0,"o":"m 385 511 l 596 511 b 806 315 728 511 806 439 l 806 289 b 596 92 806 165 728 92 l 550 92 l 550 0 l 607 0 b 911 289 790 0 911 115 l 911 315 b 607 604 911 489 790 604 l 385 604 l 385 894 l 713 894 l 713 989 l 36 989 l 36 894 l 279 894 l 279 0 l 385 0 z "},"Ѓ":{"ha":790,"x_min":0,"x_max":0,"o":"m 747 894 l 747 989 l 153 989 l 153 0 l 258 0 l 258 894 z m 613 1297 l 493 1297 l 371 1085 l 463 1085 z "},"Є":{"ha":885,"x_min":0,"x_max":0,"o":"m 690 286 b 451 85 663 164 575 85 b 279 156 385 85 325 110 b 210 451 221 214 211 279 l 585 451 l 585 544 l 211 544 b 279 833 211 711 222 775 b 451 904 325 879 385 904 b 688 703 575 904 661 825 l 794 703 b 451 997 761 889 629 997 b 199 894 354 997 265 961 b 106 494 106 801 106 704 b 199 94 106 285 106 188 b 451 -8 265 28 354 -8 b 794 286 628 -8 761 100 z "},"Ѕ":{"ha":817,"x_min":0,"x_max":0,"o":"m 739 272 b 656 468 739 354 710 422 b 475 538 614 504 568 524 l 367 554 b 233 608 315 563 264 582 b 189 722 203 635 189 674 b 397 906 189 832 265 906 b 628 821 501 906 567 876 l 696 889 b 401 997 611 965 528 997 b 85 718 206 997 85 886 b 160 533 85 639 110 578 b 342 458 203 496 264 471 l 457 440 b 586 393 529 429 554 421 b 633 269 618 365 633 321 b 400 86 633 154 544 86 b 131 194 289 86 213 113 l 58 122 b 397 -8 151 29 249 -8 b 739 272 603 -8 739 99 z "},"І":{"ha":392,"x_min":0,"x_max":0,"o":"m 249 0 l 249 989 l 143 989 l 143 0 z "},"Ї":{"ha":392,"x_min":0,"x_max":0,"o":"m 249 0 l 249 989 l 143 989 l 143 0 z m 394 1096 l 394 1219 l 294 1219 l 294 1096 z m 100 1096 l 100 1219 l 0 1219 l 0 1096 z "},"Ј":{"ha":696,"x_min":0,"x_max":0,"o":"m 567 300 l 567 989 l 461 989 l 461 314 b 258 86 461 168 388 86 b 103 151 176 86 139 115 l 32 81 b 258 -8 93 19 164 -8 b 567 300 439 -8 567 110 z "},"Љ":{"ha":1424,"x_min":0,"x_max":0,"o":"m 1263 290 b 1053 94 1263 167 1185 94 l 797 94 l 797 488 l 1053 488 b 1263 290 1185 488 1263 415 z m 253 989 l 253 588 b 43 94 253 176 165 94 l 17 94 l 17 0 l 67 0 b 356 556 256 0 356 139 l 356 894 l 692 894 l 692 0 l 1064 0 b 1368 290 1247 0 1368 117 b 1064 582 1368 465 1247 582 l 797 582 l 797 989 z "},"Њ":{"ha":1449,"x_min":0,"x_max":0,"o":"m 1393 290 b 1089 582 1393 465 1272 582 l 822 582 l 822 989 l 717 989 l 717 582 l 249 582 l 249 989 l 143 989 l 143 0 l 249 0 l 249 488 l 717 488 l 717 0 l 1089 0 b 1393 290 1272 0 1393 117 z m 1288 290 b 1078 94 1288 167 1210 94 l 822 94 l 822 488 l 1078 488 b 1288 290 1210 488 1288 415 z "},"Ћ":{"ha":1033,"x_min":0,"x_max":0,"o":"m 911 0 l 911 315 b 607 604 911 489 790 604 l 385 604 l 385 894 l 713 894 l 713 989 l 36 989 l 36 894 l 279 894 l 279 0 l 385 0 l 385 511 l 596 511 b 806 315 728 511 806 439 l 806 0 z "},"Ќ":{"ha":847,"x_min":0,"x_max":0,"o":"m 254 0 l 254 515 l 708 0 l 849 0 l 378 519 l 811 989 l 678 989 l 254 518 l 254 989 l 149 989 l 149 0 z m 629 1297 l 510 1297 l 388 1085 l 479 1085 z "},"Ў":{"ha":758,"x_min":0,"x_max":0,"o":"m 596 1226 l 507 1226 b 393 1124 501 1158 461 1124 b 279 1226 325 1124 285 1158 l 190 1226 b 393 1051 199 1103 278 1051 b 596 1226 508 1051 588 1103 z m 746 989 l 633 989 l 393 404 l 126 989 l 14 989 l 340 286 l 300 193 b 169 94 271 125 238 94 l 107 94 l 107 0 l 193 0 b 388 154 292 0 349 64 z "},"Џ":{"ha":967,"x_min":0,"x_max":0,"o":"m 822 0 l 822 989 l 717 989 l 717 94 l 249 94 l 249 989 l 143 989 l 143 0 l 432 0 l 432 -239 l 536 -239 l 536 0 z "},"А":{"ha":849,"x_min":0,"x_max":0,"o":"m 832 0 l 469 989 l 381 989 l 17 0 l 129 0 l 208 224 l 640 224 l 719 0 z m 610 315 l 240 315 l 426 838 z "},"Б":{"ha":911,"x_min":0,"x_max":0,"o":"m 821 290 b 517 582 821 465 701 582 l 249 582 l 249 894 l 760 894 l 760 989 l 143 989 l 143 0 l 517 0 b 821 290 701 0 821 117 z m 715 290 b 507 94 715 167 639 94 l 249 94 l 249 488 l 507 488 b 715 290 639 488 715 415 z "},"В":{"ha":928,"x_min":0,"x_max":0,"o":"m 822 271 b 749 454 822 346 797 407 b 661 508 725 478 707 489 b 735 554 699 525 714 533 b 807 729 782 599 807 658 b 515 989 807 885 690 989 l 143 989 l 143 0 l 528 0 b 822 271 711 0 822 103 z m 701 724 b 507 551 701 615 629 551 l 249 551 l 249 894 l 507 894 b 701 724 629 894 701 831 z m 717 276 b 518 94 717 165 640 94 l 249 94 l 249 457 l 518 457 b 717 276 640 457 717 388 z "},"Г":{"ha":790,"x_min":0,"x_max":0,"o":"m 747 894 l 747 989 l 153 989 l 153 0 l 258 0 l 258 894 z "},"Д":{"ha":964,"x_min":0,"x_max":0,"o":"m 36 94 l 36 -239 l 140 -239 l 140 0 l 803 0 l 803 -239 l 907 -239 l 907 94 l 789 94 l 789 989 l 249 989 l 249 656 b 124 94 249 414 214 236 z m 242 94 b 349 590 321 233 349 407 l 349 894 l 683 894 l 683 94 z "},"Е":{"ha":833,"x_min":0,"x_max":0,"o":"m 757 0 l 757 94 l 249 94 l 249 451 l 682 451 l 682 546 l 249 546 l 249 894 l 757 894 l 757 989 l 143 989 l 143 0 z "},"Ж":{"ha":1250,"x_min":0,"x_max":0,"o":"m 138 0 l 572 515 l 572 0 l 678 0 l 678 515 l 1113 0 l 1251 0 l 799 519 l 1214 989 l 1081 989 l 678 518 l 678 989 l 572 989 l 572 518 l 168 989 l 35 989 l 451 519 l -1 0 z "},"З":{"ha":856,"x_min":0,"x_max":0,"o":"m 421 -8 b 750 272 608 -8 750 100 b 592 510 750 393 694 472 b 735 735 686 553 735 628 b 429 997 735 896 606 997 b 86 703 250 997 118 889 l 192 703 b 428 906 219 825 304 906 b 629 731 550 906 629 843 b 447 551 629 615 563 551 l 318 551 l 318 460 l 443 460 b 644 275 572 460 644 399 b 426 85 644 157 551 85 b 189 286 303 85 215 164 l 85 286 b 421 -8 117 100 250 -8 z "},"И":{"ha":994,"x_min":0,"x_max":0,"o":"m 851 0 l 851 989 l 751 989 l 249 183 l 249 989 l 143 989 l 143 0 l 243 0 l 746 807 l 746 0 z "},"Й":{"ha":994,"x_min":0,"x_max":0,"o":"m 851 0 l 851 989 l 751 989 l 249 183 l 249 989 l 143 989 l 143 0 l 243 0 l 746 807 l 746 0 z m 700 1226 l 611 1226 b 497 1124 606 1158 565 1124 b 383 1226 429 1124 389 1158 l 294 1226 b 497 1051 303 1103 382 1051 b 700 1226 613 1051 692 1103 z "},"К":{"ha":847,"x_min":0,"x_max":0,"o":"m 254 0 l 254 515 l 708 0 l 849 0 l 378 519 l 811 989 l 678 989 l 254 518 l 254 989 l 149 989 l 149 0 z "},"Л":{"ha":940,"x_min":0,"x_max":0,"o":"m 797 0 l 797 989 l 253 989 l 253 588 b 43 94 253 176 165 94 l 17 94 l 17 0 l 67 0 b 356 556 256 0 356 139 l 356 894 l 692 894 l 692 0 z "},"М":{"ha":1133,"x_min":0,"x_max":0,"o":"m 990 0 l 990 989 l 885 989 l 571 288 l 249 989 l 143 989 l 143 0 l 249 0 l 249 751 l 524 156 l 614 156 l 885 751 l 885 0 z "},"Н":{"ha":967,"x_min":0,"x_max":0,"o":"m 824 0 l 824 989 l 718 989 l 718 546 l 249 546 l 249 989 l 143 989 l 143 0 l 249 0 l 249 451 l 718 451 l 718 0 z "},"О":{"ha":903,"x_min":0,"x_max":0,"o":"m 797 563 b 704 894 797 683 790 808 b 451 997 638 961 549 997 b 199 894 354 997 265 961 b 106 571 114 810 106 689 l 106 494 b 199 94 106 297 108 185 b 451 -8 265 28 353 -8 b 704 94 550 -8 638 28 b 797 494 794 185 797 297 z m 692 446 b 622 157 692 332 690 225 b 451 86 576 111 517 86 b 281 157 386 86 326 111 b 211 425 217 221 211 318 l 211 524 b 281 832 211 660 211 763 b 451 903 326 878 388 903 b 622 832 515 903 576 878 b 692 547 688 767 692 664 z "},"П":{"ha":967,"x_min":0,"x_max":0,"o":"m 822 0 l 822 989 l 143 989 l 143 0 l 249 0 l 249 894 l 717 894 l 717 0 z "},"Р":{"ha":875,"x_min":0,"x_max":0,"o":"m 817 699 b 511 989 817 872 694 989 l 143 989 l 143 0 l 249 0 l 249 407 l 511 407 b 817 699 694 407 817 524 z m 711 699 b 501 501 711 575 633 501 l 249 501 l 249 894 l 501 894 b 711 699 633 894 711 822 z "},"С":{"ha":885,"x_min":0,"x_max":0,"o":"m 794 286 l 689 286 b 451 86 663 165 575 86 b 281 156 386 86 324 111 b 211 494 218 219 211 288 b 281 833 211 701 218 769 b 451 903 324 878 386 903 b 686 703 575 903 660 824 l 794 703 b 451 997 761 889 629 997 b 199 894 354 997 265 961 b 106 494 106 801 106 704 b 199 94 106 285 106 188 b 451 -8 265 28 354 -8 b 794 286 628 -8 763 100 z "},"Т":{"ha":761,"x_min":0,"x_max":0,"o":"m 719 894 l 719 989 l 42 989 l 42 894 l 328 894 l 328 0 l 433 0 l 433 894 z "},"У":{"ha":758,"x_min":0,"x_max":0,"o":"m 746 989 l 633 989 l 393 404 l 126 989 l 14 989 l 340 286 l 300 193 b 169 94 271 125 238 94 l 107 94 l 107 0 l 193 0 b 388 154 292 0 349 64 z "},"Ф":{"ha":1082,"x_min":0,"x_max":0,"o":"m 594 842 b 900 526 832 836 900 719 b 594 213 900 333 825 218 z m 489 213 b 182 526 257 218 182 333 b 489 842 182 719 250 836 z m 594 -6 l 594 122 b 1006 531 886 132 1006 272 b 594 932 1006 789 881 922 l 594 1025 l 489 1025 l 489 932 b 76 531 203 922 76 789 b 489 122 76 272 197 132 l 489 -6 z "},"Х":{"ha":765,"x_min":0,"x_max":0,"o":"m 744 0 l 439 507 l 724 989 l 601 989 l 382 599 l 163 989 l 40 989 l 324 507 l 21 0 l 140 0 l 382 415 l 622 0 z "},"Ц":{"ha":997,"x_min":0,"x_max":0,"o":"m 940 -239 l 940 94 l 822 94 l 822 989 l 717 989 l 717 94 l 249 94 l 249 989 l 143 989 l 143 0 l 836 0 l 836 -239 z "},"Ч":{"ha":896,"x_min":0,"x_max":0,"o":"m 753 0 l 753 989 l 647 989 l 647 496 b 394 461 585 483 465 461 b 211 633 303 461 211 490 l 211 989 l 106 989 l 106 614 b 368 367 106 428 233 367 b 647 404 457 367 586 392 l 647 0 z "},"Ш":{"ha":1385,"x_min":0,"x_max":0,"o":"m 1242 0 l 1242 989 l 1136 989 l 1136 94 l 746 94 l 746 989 l 639 989 l 639 94 l 249 94 l 249 989 l 143 989 l 143 0 z "},"Щ":{"ha":1415,"x_min":0,"x_max":0,"o":"m 1358 -239 l 1358 94 l 1242 94 l 1242 989 l 1136 989 l 1136 94 l 746 94 l 746 989 l 639 989 l 639 94 l 249 94 l 249 989 l 143 989 l 143 0 l 1254 0 l 1254 -239 z "},"Ъ":{"ha":1010,"x_min":0,"x_max":0,"o":"m 954 290 b 650 582 954 465 833 582 l 385 582 l 385 989 l 42 989 l 42 894 l 278 894 l 278 0 l 650 0 b 954 290 833 0 954 117 z m 849 290 b 640 94 849 167 771 94 l 385 94 l 385 488 l 640 488 b 849 290 771 488 849 415 z "},"Ы":{"ha":1200,"x_min":0,"x_max":0,"o":"m 1057 0 l 1057 989 l 951 989 l 951 0 z m 819 290 b 514 582 819 465 699 582 l 249 582 l 249 989 l 143 989 l 143 0 l 514 0 b 819 290 697 0 819 117 z m 713 290 b 504 94 713 167 636 94 l 249 94 l 249 488 l 504 488 b 713 290 636 488 713 415 z "},"Ь":{"ha":875,"x_min":0,"x_max":0,"o":"m 819 290 b 514 582 819 465 699 582 l 249 582 l 249 989 l 143 989 l 143 0 l 514 0 b 819 290 697 0 819 117 z m 713 290 b 504 94 713 167 636 94 l 249 94 l 249 488 l 504 488 b 713 290 636 488 713 415 z "},"Э":{"ha":885,"x_min":0,"x_max":0,"o":"m 90 286 b 433 -8 124 100 257 -8 b 686 94 531 -8 619 28 b 779 494 779 188 779 285 b 686 894 779 704 779 801 b 433 997 619 961 531 997 b 90 703 256 997 124 889 l 197 703 b 433 904 224 825 310 904 b 606 833 500 904 560 879 b 674 544 663 775 674 711 l 300 544 l 300 451 l 675 451 b 606 156 674 279 664 214 b 433 85 560 110 500 85 b 194 286 310 85 222 164 z "},"Ю":{"ha":1254,"x_min":0,"x_max":0,"o":"m 1150 494 l 1150 583 b 1057 894 1150 707 1136 814 b 804 997 990 961 900 997 b 551 894 707 997 618 961 b 458 546 464 807 460 703 l 249 546 l 249 989 l 143 989 l 143 0 l 249 0 l 249 451 l 458 451 b 551 94 458 271 469 178 b 804 -8 618 28 707 -8 b 1057 94 901 -8 990 28 b 1150 494 1143 182 1150 274 z m 1043 478 b 975 157 1043 324 1043 226 b 804 86 931 111 869 86 b 633 157 738 86 678 113 b 564 454 579 214 564 276 l 564 503 b 633 833 564 683 571 769 b 804 903 676 878 738 903 b 975 833 869 903 931 878 b 1043 521 1031 775 1043 711 z "},"Я":{"ha":910,"x_min":0,"x_max":0,"o":"m 417 407 l 661 407 l 661 0 l 767 0 l 767 989 l 399 989 b 93 699 215 989 93 875 b 306 422 93 557 175 454 l 78 0 l 201 0 z m 661 501 l 408 501 b 199 699 276 501 199 575 b 408 896 199 822 276 896 l 661 896 z "},"а":{"ha":731,"x_min":0,"x_max":0,"o":"m 613 0 l 613 464 b 336 692 613 615 519 692 b 183 664 271 692 222 683 b 97 590 150 647 133 632 l 165 528 b 228 585 190 561 204 574 b 333 606 256 599 289 606 b 513 456 458 606 513 560 l 513 390 l 307 390 b 71 193 160 390 71 317 b 314 -8 71 63 156 -8 b 435 10 367 -8 403 -4 b 513 65 463 21 479 33 l 513 0 z m 513 242 b 333 78 513 125 461 78 b 168 194 218 78 168 113 b 321 315 168 275 219 315 l 513 315 z "},"б":{"ha":740,"x_min":0,"x_max":0,"o":"m 379 81 b 256 131 332 81 286 99 b 197 339 217 171 197 228 b 254 550 197 447 218 511 b 379 603 286 583 331 603 b 503 550 426 603 472 582 b 556 336 542 510 556 446 b 501 131 556 229 539 171 b 379 81 471 99 425 81 z m 379 -8 b 571 67 456 -8 525 19 b 654 343 631 126 654 207 b 565 626 654 468 626 569 b 394 688 522 667 464 688 b 189 586 306 688 222 647 b 265 838 189 701 201 782 b 603 906 344 906 511 894 l 603 996 b 194 900 465 986 294 996 b 99 476 108 819 99 746 b 124 174 99 378 100 249 b 379 -8 160 60 253 -8 z "},"в":{"ha":749,"x_min":0,"x_max":0,"o":"m 656 189 b 536 354 656 272 610 326 b 644 504 606 379 644 431 b 443 683 644 613 564 683 l 126 683 l 126 0 l 451 0 b 656 189 579 0 656 72 z m 546 496 b 425 393 546 431 504 393 l 225 393 l 225 597 l 425 597 b 546 496 503 597 546 561 z m 557 199 b 433 86 557 131 511 86 l 225 86 l 225 311 l 433 311 b 557 199 511 311 557 267 z "},"г":{"ha":579,"x_min":0,"x_max":0,"o":"m 564 597 l 564 683 l 131 683 l 131 0 l 231 0 l 231 597 z "},"д":{"ha":772,"x_min":0,"x_max":0,"o":"m 726 -204 l 726 86 l 625 86 l 625 683 l 196 683 l 196 553 b 106 86 196 304 157 200 l 25 86 l 25 -204 l 121 -204 l 121 0 l 629 0 l 629 -204 z m 525 86 l 214 86 b 292 468 258 188 290 288 l 292 597 l 525 597 z "},"е":{"ha":736,"x_min":0,"x_max":0,"o":"m 649 315 l 649 361 b 368 692 649 565 542 692 b 88 346 194 692 88 561 b 389 -8 88 114 192 -8 b 521 15 439 -8 483 0 b 636 97 563 32 586 49 l 568 157 b 482 96 531 121 513 108 b 394 79 457 86 426 79 b 208 192 301 79 240 115 b 188 315 194 225 190 253 z m 549 390 l 188 390 b 208 504 190 451 194 474 b 368 607 236 568 296 607 b 536 481 449 607 513 560 b 549 390 544 456 546 443 z "},"ж":{"ha":993,"x_min":0,"x_max":0,"o":"m 135 0 l 447 353 l 447 0 l 546 0 l 546 353 l 858 0 l 985 0 l 664 361 l 957 683 l 836 683 l 546 356 l 546 683 l 447 683 l 447 356 l 158 683 l 36 683 l 329 361 l 8 0 z "},"з":{"ha":669,"x_min":0,"x_max":0,"o":"m 576 193 b 457 354 576 271 529 332 b 565 507 526 379 565 439 b 324 692 565 626 458 692 b 74 618 229 692 149 672 l 131 551 b 314 608 186 590 246 608 b 468 504 407 608 468 574 b 340 394 468 433 415 394 l 239 394 l 239 311 l 339 311 b 479 197 422 311 479 274 b 307 79 479 122 389 79 b 107 156 222 79 168 99 l 44 90 b 318 -7 125 17 208 -7 b 576 193 456 -7 576 69 z "},"и":{"ha":801,"x_min":0,"x_max":0,"o":"m 676 0 l 676 683 l 576 683 l 225 157 l 225 683 l 126 683 l 126 0 l 225 0 l 576 529 l 576 0 z "},"й":{"ha":801,"x_min":0,"x_max":0,"o":"m 604 978 l 515 978 b 401 874 510 908 469 874 b 288 978 333 874 293 908 l 199 978 b 401 803 207 853 286 803 b 604 978 517 803 596 853 z m 676 0 l 676 683 l 576 683 l 225 157 l 225 683 l 126 683 l 126 0 l 225 0 l 576 529 l 576 0 z "},"к":{"ha":692,"x_min":0,"x_max":0,"o":"m 231 0 l 231 353 l 554 0 l 683 0 l 349 361 l 656 683 l 532 683 l 231 356 l 231 683 l 131 683 l 131 0 z "},"л":{"ha":758,"x_min":0,"x_max":0,"o":"m 633 0 l 633 683 l 196 683 l 196 390 b 51 86 196 106 113 86 l 29 86 l 29 0 l 75 0 b 292 361 200 0 292 75 l 292 597 l 533 597 l 533 0 z "},"м":{"ha":911,"x_min":0,"x_max":0,"o":"m 785 0 l 785 683 l 686 683 l 457 224 l 225 683 l 126 683 l 126 0 l 225 0 l 225 486 l 418 108 l 494 108 l 685 486 l 685 0 z "},"н":{"ha":781,"x_min":0,"x_max":0,"o":"m 656 0 l 656 683 l 556 683 l 556 396 l 225 396 l 225 683 l 126 683 l 126 0 l 225 0 l 225 310 l 556 310 l 556 0 z "},"о":{"ha":736,"x_min":0,"x_max":0,"o":"m 647 346 b 564 614 647 474 622 556 b 368 692 514 664 444 692 b 172 614 290 692 222 664 b 89 342 114 554 89 474 b 172 69 89 210 114 129 b 368 -8 222 19 290 -8 b 564 69 446 -8 514 19 b 647 346 624 131 647 210 z m 547 338 b 493 131 547 229 532 171 b 368 81 463 99 417 81 b 244 131 319 81 275 99 b 189 342 204 172 189 231 b 244 553 189 453 204 513 b 368 603 275 585 321 603 b 493 553 417 603 463 585 b 547 338 533 513 547 454 z "},"п":{"ha":781,"x_min":0,"x_max":0,"o":"m 656 0 l 656 683 l 126 683 l 126 0 l 225 0 l 225 597 l 556 597 l 556 0 z "},"р":{"ha":757,"x_min":0,"x_max":0,"o":"m 668 340 b 413 692 668 582 589 692 b 303 669 369 692 333 685 b 225 603 274 654 257 640 l 225 683 l 125 683 l 125 -306 l 225 -306 l 225 81 b 304 14 258 42 275 28 b 414 -8 336 -1 372 -8 b 668 340 588 -8 668 103 z m 568 340 b 397 81 568 158 517 81 b 225 342 276 81 225 158 b 396 603 225 524 276 603 b 568 340 518 603 568 526 z "},"с":{"ha":681,"x_min":0,"x_max":0,"o":"m 615 93 l 547 158 b 467 94 511 121 494 107 b 392 81 444 85 421 81 b 188 342 257 81 188 169 b 393 603 188 514 258 603 b 469 588 422 603 447 597 b 547 526 496 576 513 563 l 615 590 b 510 671 569 638 547 654 b 394 692 476 685 439 692 b 88 342 203 692 88 560 b 394 -8 88 124 203 -8 b 510 13 439 -8 476 -1 b 615 93 547 29 569 46 z "},"т":{"ha":588,"x_min":0,"x_max":0,"o":"m 574 597 l 574 683 l 15 683 l 15 597 l 250 597 l 250 0 l 350 0 l 350 597 z "},"у":{"ha":621,"x_min":0,"x_max":0,"o":"m 606 683 l 497 683 l 311 135 l 124 683 l 15 683 l 261 14 l 213 -119 b 100 -204 188 -187 165 -204 l 69 -204 l 69 -293 l 113 -293 b 294 -165 206 -293 263 -253 z "},"ф":{"ha":958,"x_min":0,"x_max":0,"o":"m 875 343 b 529 692 875 567 746 681 l 529 989 l 429 989 l 429 692 b 83 343 213 681 83 567 b 429 -8 83 118 214 3 l 429 -306 l 529 -306 l 529 -8 b 875 343 744 3 875 118 z m 775 342 b 528 81 775 185 692 85 l 528 603 b 775 342 706 597 775 490 z m 431 81 b 183 342 267 85 183 185 b 431 603 183 490 254 597 z "},"х":{"ha":664,"x_min":0,"x_max":0,"o":"m 618 0 l 386 349 l 608 683 l 488 683 l 333 431 l 176 683 l 56 683 l 278 349 l 46 0 l 167 0 l 333 265 l 497 0 z "},"ц":{"ha":804,"x_min":0,"x_max":0,"o":"m 758 -204 l 758 86 l 656 86 l 656 683 l 556 683 l 556 86 l 225 86 l 225 683 l 126 683 l 126 0 l 661 0 l 661 -204 z "},"ч":{"ha":726,"x_min":0,"x_max":0,"o":"m 601 0 l 601 683 l 501 683 l 501 353 b 315 331 454 343 386 331 b 197 453 239 331 197 363 l 197 683 l 97 683 l 97 435 b 296 240 97 300 176 240 b 501 267 375 240 450 256 l 501 0 z "},"ш":{"ha":1113,"x_min":0,"x_max":0,"o":"m 986 0 l 986 683 l 886 683 l 886 86 l 606 86 l 606 683 l 506 683 l 506 86 l 225 86 l 225 683 l 126 683 l 126 0 z "},"щ":{"ha":1133,"x_min":0,"x_max":0,"o":"m 1089 -204 l 1089 86 l 986 86 l 986 683 l 886 683 l 886 86 l 606 86 l 606 683 l 506 683 l 506 86 l 225 86 l 225 683 l 126 683 l 126 0 l 992 0 l 992 -204 z "},"ъ":{"ha":782,"x_min":0,"x_max":0,"o":"m 726 206 b 510 413 726 331 640 413 l 304 413 l 304 683 l 15 683 l 15 597 l 206 597 l 206 0 l 510 0 b 726 206 640 0 726 82 z m 626 206 b 499 86 626 129 582 86 l 304 86 l 304 325 l 499 325 b 626 206 582 325 626 282 z "},"ы":{"ha":997,"x_min":0,"x_max":0,"o":"m 857 0 l 857 683 l 757 683 l 757 0 z m 647 206 b 431 413 647 331 561 413 l 225 413 l 225 683 l 126 683 l 126 0 l 431 0 b 647 206 561 0 647 82 z m 547 206 b 419 86 547 129 503 86 l 225 86 l 225 325 l 419 325 b 547 206 503 325 547 282 z "},"ь":{"ha":703,"x_min":0,"x_max":0,"o":"m 647 206 b 431 413 647 331 561 413 l 225 413 l 225 683 l 126 683 l 126 0 l 431 0 b 647 206 561 0 647 82 z m 547 206 b 419 86 547 129 503 86 l 225 86 l 225 325 l 419 325 b 547 206 503 325 547 282 z "},"э":{"ha":681,"x_min":0,"x_max":0,"o":"m 592 343 b 286 692 592 561 478 692 b 65 590 186 692 133 661 l 132 526 b 288 604 179 576 219 604 b 492 390 419 604 483 513 l 213 390 l 213 315 l 493 315 b 289 79 490 186 432 79 b 132 157 219 79 181 106 l 65 93 b 286 -8 133 22 186 -8 b 592 343 478 -8 592 122 z "},"ю":{"ha":1011,"x_min":0,"x_max":0,"o":"m 922 346 b 851 600 922 460 899 542 b 643 692 803 660 732 692 b 454 621 568 692 503 667 b 365 393 400 569 371 497 l 225 393 l 225 683 l 126 683 l 126 0 l 225 0 l 225 308 l 365 308 b 456 63 368 194 397 117 b 643 -8 503 17 568 -8 b 839 69 721 -8 790 19 b 922 346 899 129 922 210 z m 822 340 b 771 135 822 235 808 176 b 643 81 739 100 693 81 b 515 135 593 81 547 100 b 464 343 476 178 464 233 b 517 550 464 451 478 508 b 643 603 547 585 593 603 b 769 550 693 603 739 585 b 822 340 808 507 822 451 z "},"я":{"ha":732,"x_min":0,"x_max":0,"o":"m 507 350 l 314 350 b 178 475 226 350 178 396 b 314 601 178 556 226 601 l 507 601 z m 194 0 l 343 268 l 507 268 l 507 0 l 606 0 l 606 683 l 294 683 b 79 479 165 683 79 601 b 239 281 79 375 142 300 l 79 0 z "},"ё":{"ha":736,"x_min":0,"x_max":0,"o":"m 649 315 l 649 361 b 368 692 649 565 542 692 b 88 346 194 692 88 561 b 389 -8 88 114 192 -8 b 521 15 439 -8 483 0 b 636 97 563 32 586 49 l 568 157 b 482 96 531 121 513 108 b 394 79 457 86 426 79 b 208 192 301 79 240 115 b 188 315 194 225 190 253 z m 549 390 l 188 390 b 208 504 190 451 194 474 b 368 607 236 568 296 607 b 536 481 449 607 513 560 b 549 390 544 456 546 443 z m 569 836 l 569 960 l 469 960 l 469 836 z m 275 836 l 275 960 l 175 960 l 175 836 z "},"ђ":{"ha":781,"x_min":0,"x_max":0,"o":"m 663 -97 l 663 431 b 424 685 663 586 574 685 b 225 600 340 685 283 658 l 225 781 l 569 781 l 569 856 l 225 856 l 225 989 l 126 989 l 126 856 l 46 856 l 46 781 l 126 781 l 126 0 l 225 0 l 225 414 b 401 596 225 528 294 596 b 563 414 508 596 563 531 l 563 -93 b 443 -221 563 -164 519 -221 l 393 -221 l 393 -307 l 460 -307 b 663 -97 603 -307 663 -210 z "},"ѓ":{"ha":579,"x_min":0,"x_max":0,"o":"m 564 597 l 564 683 l 131 683 l 131 0 l 231 0 l 231 597 z m 479 1038 l 360 1038 l 238 825 l 329 825 z "},"є":{"ha":681,"x_min":0,"x_max":0,"o":"m 615 93 l 549 157 b 392 79 500 106 461 79 b 188 315 247 79 190 186 l 479 315 l 479 390 l 189 390 b 392 604 197 513 261 604 b 549 526 461 604 500 576 l 615 590 b 393 692 546 661 494 692 b 88 343 203 692 88 561 b 393 -8 88 122 201 -8 b 615 93 494 -8 547 22 z "},"ѕ":{"ha":689,"x_min":0,"x_max":0,"o":"m 618 200 b 417 385 618 328 536 374 l 307 394 b 188 494 221 401 188 436 b 340 607 188 564 240 607 b 522 553 411 607 474 590 l 588 618 b 342 692 526 668 439 692 b 90 492 196 692 90 617 b 294 308 90 379 161 319 l 407 299 b 521 199 486 292 521 258 b 339 78 521 118 451 78 b 126 157 254 78 181 100 l 60 90 b 340 -8 135 18 225 -8 b 618 200 506 -8 618 68 z "},"і":{"ha":351,"x_min":0,"x_max":0,"o":"m 232 878 l 232 990 l 119 990 l 119 878 z m 225 0 l 225 683 l 125 683 l 125 0 z "},"ї":{"ha":351,"x_min":0,"x_max":0,"o":"m 225 0 l 225 683 l 125 683 l 125 0 z m 374 836 l 374 960 l 274 960 l 274 836 z m 79 836 l 79 960 l -21 960 l -21 836 z "},"ј":{"ha":351,"x_min":0,"x_max":0,"o":"m 232 878 l 232 990 l 119 990 l 119 878 z m 225 -124 l 225 679 l 125 679 l 125 -119 b 33 -219 125 -186 103 -219 l -21 -219 l -21 -307 l 51 -307 b 225 -124 171 -307 225 -228 z "},"љ":{"ha":1113,"x_min":0,"x_max":0,"o":"m 957 206 b 829 86 957 129 913 86 l 635 86 l 635 325 l 829 325 b 957 206 913 325 957 282 z m 196 683 l 196 390 b 51 86 196 106 113 86 l 29 86 l 29 0 l 75 0 b 292 361 200 0 292 75 l 292 597 l 536 597 l 536 0 l 840 0 b 1057 206 971 0 1057 82 b 840 413 1057 331 971 413 l 635 413 l 635 683 z "},"њ":{"ha":1133,"x_min":0,"x_max":0,"o":"m 1078 206 b 861 413 1078 331 992 413 l 656 413 l 656 683 l 556 683 l 556 413 l 225 413 l 225 683 l 126 683 l 126 0 l 225 0 l 225 325 l 556 325 l 556 0 l 861 0 b 1078 206 992 0 1078 82 z m 978 206 b 850 86 978 129 933 86 l 656 86 l 656 325 l 850 325 b 978 206 933 325 978 282 z "},"ћ":{"ha":781,"x_min":0,"x_max":0,"o":"m 663 0 l 663 431 b 418 685 663 586 568 685 b 225 600 335 685 283 658 l 225 781 l 569 781 l 569 856 l 225 856 l 225 989 l 126 989 l 126 856 l 46 856 l 46 781 l 126 781 l 126 0 l 225 0 l 225 414 b 396 596 225 528 289 596 b 563 414 503 596 563 531 l 563 0 z "},"ќ":{"ha":692,"x_min":0,"x_max":0,"o":"m 231 0 l 231 353 l 554 0 l 683 0 l 349 361 l 656 683 l 532 683 l 231 356 l 231 683 l 131 683 l 131 0 z m 538 1038 l 418 1038 l 296 825 l 388 825 z "},"ў":{"ha":621,"x_min":0,"x_max":0,"o":"m 514 978 l 425 978 b 311 874 419 908 379 874 b 197 978 243 874 203 908 l 108 978 b 311 803 117 853 196 803 b 514 978 426 803 506 853 z m 606 683 l 497 683 l 311 135 l 124 683 l 15 683 l 261 14 l 213 -119 b 100 -204 188 -187 165 -204 l 69 -204 l 69 -293 l 113 -293 b 294 -165 206 -293 263 -253 z "},"џ":{"ha":782,"x_min":0,"x_max":0,"o":"m 656 0 l 656 683 l 556 683 l 556 86 l 225 86 l 225 683 l 126 683 l 126 0 l 342 0 l 342 -204 l 439 -204 l 439 0 z "},"Ґ":{"ha":790,"x_min":0,"x_max":0,"o":"m 747 894 l 747 1228 l 643 1228 l 643 989 l 153 989 l 153 0 l 258 0 l 258 894 z "},"ґ":{"ha":579,"x_min":0,"x_max":0,"o":"m 564 597 l 564 881 l 467 881 l 467 683 l 131 683 l 131 0 l 231 0 l 231 597 z "},"–":{"ha":725,"x_min":0,"x_max":0,"o":"m 653 328 l 653 421 l 72 421 l 72 328 z "},"—":{"ha":1269,"x_min":0,"x_max":0,"o":"m 1164 328 l 1164 422 l 106 422 l 106 328 z "},"―":{"ha":1269,"x_min":0,"x_max":0,"o":"m 1164 328 l 1164 422 l 106 422 l 106 328 z "},"‘":{"ha":365,"x_min":0,"x_max":0,"o":"m 243 872 l 243 1099 l 122 989 l 122 872 z "},"’":{"ha":365,"x_min":0,"x_max":0,"o":"m 243 872 l 243 989 l 122 989 l 122 763 z "},"‚":{"ha":365,"x_min":0,"x_max":0,"o":"m 243 0 l 243 117 l 122 117 l 122 -110 z "},"“":{"ha":603,"x_min":0,"x_max":0,"o":"m 481 872 l 481 1099 l 358 989 l 358 872 z m 243 872 l 243 1099 l 122 989 l 122 872 z "},"”":{"ha":603,"x_min":0,"x_max":0,"o":"m 481 872 l 481 989 l 358 989 l 358 763 z m 243 872 l 243 989 l 122 989 l 122 763 z "},"„":{"ha":603,"x_min":0,"x_max":0,"o":"m 481 0 l 481 117 l 358 117 l 358 -110 z m 243 0 l 243 117 l 122 117 l 122 -110 z "},"†":{"ha":840,"x_min":0,"x_max":0,"o":"m 738 618 l 738 707 l 468 707 l 468 989 l 368 989 l 368 707 l 103 707 l 103 618 l 368 618 l 368 0 l 468 0 l 468 618 z "},"‡":{"ha":840,"x_min":0,"x_max":0,"o":"m 738 -22 l 738 67 l 468 67 l 468 618 l 738 618 l 738 707 l 468 707 l 468 989 l 368 989 l 368 707 l 103 707 l 103 618 l 368 618 l 368 67 l 103 67 l 103 -22 l 368 -22 l 368 -306 l 468 -306 l 468 -22 z "},"•":{"ha":739,"x_min":0,"x_max":0,"o":"m 596 464 b 369 690 596 589 494 690 b 143 464 244 690 143 589 b 369 238 143 339 244 238 b 596 464 494 238 596 339 z "},"…":{"ha":1051,"x_min":0,"x_max":0,"o":"m 929 0 l 929 128 l 801 128 l 801 0 z m 250 0 l 250 128 l 122 128 l 122 0 z m 589 0 l 589 128 l 461 128 l 461 0 z "},"‰":{"ha":1638,"x_min":0,"x_max":0,"o":"m 1549 178 l 1549 324 b 1361 511 1549 438 1468 511 b 1174 324 1253 511 1174 438 l 1174 178 b 1361 -10 1174 64 1253 -10 b 1549 178 1468 -10 1549 64 z m 1068 178 l 1068 324 b 881 511 1068 438 988 511 b 693 324 772 511 693 438 l 693 178 b 881 -10 693 64 772 -10 b 1068 178 988 -10 1068 64 z m 465 665 l 465 811 b 278 999 465 925 385 999 b 90 811 169 999 90 925 l 90 665 b 278 479 90 553 169 479 b 465 665 385 479 465 553 z m 853 989 l 769 989 l 306 0 l 389 0 z m 989 181 b 881 60 989 107 956 60 b 772 181 804 60 772 106 l 772 321 b 881 442 772 396 804 442 b 989 321 956 442 989 394 z m 1469 181 b 1361 60 1469 107 1436 60 b 1253 181 1285 60 1253 106 l 1253 321 b 1361 442 1253 396 1285 442 b 1469 321 1436 442 1469 394 z m 386 668 b 278 549 386 594 353 549 b 169 668 203 549 169 593 l 169 808 b 278 929 169 883 201 929 b 386 808 353 929 386 882 z "},"‹":{"ha":456,"x_min":0,"x_max":0,"o":"m 347 81 l 347 204 l 181 372 l 347 539 l 347 664 l 56 372 z "},"›":{"ha":456,"x_min":0,"x_max":0,"o":"m 400 372 l 108 664 l 108 539 l 276 372 l 108 204 l 108 81 z "},"⁄":{"ha":257,"x_min":0,"x_max":0,"o":"m 401 989 l 318 989 l -144 0 l -61 0 z "},"€":{"ha":942,"x_min":0,"x_max":0,"o":"m 844 286 l 740 286 b 501 86 714 165 625 86 b 331 156 435 86 375 111 b 265 361 283 203 269 254 l 569 361 l 569 431 l 263 431 l 263 567 l 569 567 l 569 635 l 265 635 b 331 833 271 736 285 786 b 501 903 375 878 435 903 b 738 703 625 903 711 824 l 844 703 b 501 997 811 889 679 997 b 250 894 404 997 317 961 b 158 635 182 826 164 751 l 65 635 l 65 567 l 157 567 l 157 431 l 65 431 l 65 361 l 158 361 b 250 94 164 240 181 164 b 501 -8 317 28 404 -8 b 844 286 678 -8 811 100 z "},"№":{"ha":1315,"x_min":0,"x_max":0,"o":"m 768 0 l 768 989 l 669 989 l 669 193 l 206 989 l 113 989 l 113 0 l 211 0 l 211 797 l 675 0 z m 1233 374 l 1233 453 l 860 453 l 860 374 z m 1153 751 b 1121 611 1153 699 1151 640 b 1049 582 1104 593 1078 582 b 975 611 1018 582 993 593 b 943 751 946 640 943 699 b 975 892 943 804 946 863 b 1049 921 993 910 1018 921 b 1121 892 1078 921 1104 910 b 1153 751 1151 863 1153 804 z m 1238 750 b 1181 943 1238 826 1228 896 b 1049 994 1150 975 1104 994 b 915 943 992 994 947 975 b 858 750 868 896 858 826 b 915 557 858 674 868 604 b 1049 506 947 525 992 506 b 1181 557 1104 506 1150 525 b 1238 750 1228 604 1238 674 z "},"™":{"ha":1165,"x_min":0,"x_max":0,"o":"m 1085 396 l 1085 989 l 1006 989 l 825 629 l 644 989 l 564 989 l 564 396 l 644 396 l 644 824 l 786 543 l 864 543 l 1006 824 l 1006 396 z m 460 915 l 460 989 l 50 989 l 50 915 l 214 915 l 214 396 l 294 396 l 294 915 z "},"Ω":{"ha":903,"x_min":0,"x_max":0,"o":"m 797 0 l 797 93 l 682 93 b 760 186 719 124 743 153 b 797 494 800 264 797 381 b 704 894 797 704 797 801 b 451 997 638 961 550 997 b 199 894 353 997 265 961 b 106 494 106 801 106 704 b 143 186 106 381 103 264 b 219 93 160 153 182 124 l 106 93 l 106 0 l 376 0 l 376 89 b 249 194 321 115 281 143 b 211 492 217 246 211 338 b 281 832 211 699 219 769 b 451 903 325 876 386 903 b 622 832 517 903 578 876 b 690 492 683 769 690 699 b 654 194 690 338 686 246 b 526 89 622 143 582 115 l 526 0 z "},"←":{"ha":1426,"x_min":0,"x_max":0,"o":"m 632 -181 l 763 -181 l 256 325 l 1351 325 l 1351 422 l 256 422 l 763 928 l 632 928 l 78 374 z "},"↑":{"ha":1426,"x_min":0,"x_max":0,"o":"m 160 456 l 160 325 l 665 832 l 665 -264 l 763 -264 l 763 832 l 1268 325 l 1268 456 l 714 1010 z "},"→":{"ha":1426,"x_min":0,"x_max":0,"o":"m 667 -181 l 797 -181 l 1351 374 l 797 928 l 667 928 l 1174 422 l 78 422 l 78 325 l 1174 325 z "},"↓":{"ha":1426,"x_min":0,"x_max":0,"o":"m 1268 289 l 1268 419 l 763 -87 l 763 1008 l 665 1008 l 665 -87 l 160 419 l 160 289 l 714 -265 z "},"↖":{"ha":1426,"x_min":0,"x_max":0,"o":"m 263 39 l 356 -53 l 356 663 l 1129 -112 l 1199 -43 l 424 732 l 1139 732 l 1047 824 l 263 824 z "},"↗":{"ha":1426,"x_min":0,"x_max":0,"o":"m 414 824 l 322 731 l 1038 731 l 263 -43 l 332 -112 l 1107 663 l 1107 -53 l 1199 39 l 1199 824 z "},"↘":{"ha":1426,"x_min":0,"x_max":0,"o":"m 1169 -93 l 1169 690 l 1078 785 l 1079 67 l 304 842 l 235 772 l 1010 -3 l 294 -1 l 386 -93 z "},"↙":{"ha":1426,"x_min":0,"x_max":0,"o":"m 1192 772 l 1122 842 l 347 67 l 349 785 l 257 690 l 257 -93 l 1040 -93 l 1132 -1 l 417 -3 z "},"∂":{"ha":756,"x_min":0,"x_max":0,"o":"m 629 339 l 629 697 b 344 997 629 875 531 997 b 114 906 242 997 186 971 l 178 842 b 342 911 228 886 263 911 b 529 704 475 911 529 814 l 529 607 b 351 688 476 672 418 688 b 171 614 271 688 208 653 b 92 339 104 546 92 451 b 171 68 92 235 104 138 b 361 -8 215 21 281 -8 b 550 68 442 -8 506 21 b 629 339 617 138 629 235 z m 529 339 b 478 131 529 263 525 181 b 361 81 447 99 407 81 b 243 131 315 81 274 99 b 192 339 196 181 192 263 b 243 549 192 415 196 499 b 361 599 274 581 315 599 b 478 549 407 599 447 581 b 529 339 525 499 529 415 z "},"∆":{"ha":838,"x_min":0,"x_max":0,"o":"m 825 0 l 463 989 l 375 989 l 11 0 z m 688 92 l 150 92 l 419 838 z "},"∏":{"ha":967,"x_min":0,"x_max":0,"o":"m 824 -306 l 824 1056 l 143 1056 l 143 -306 l 249 -306 l 249 961 l 718 961 l 718 -306 z "},"∑":{"ha":765,"x_min":0,"x_max":0,"o":"m 694 -306 l 694 -211 l 200 -211 l 453 344 l 453 440 l 203 961 l 693 961 l 693 1056 l 81 1056 l 81 967 l 360 393 l 79 -215 l 79 -306 z "},"−":{"ha":725,"x_min":0,"x_max":0,"o":"m 653 328 l 653 421 l 72 421 l 72 328 z "},"∙":{"ha":375,"x_min":0,"x_max":0,"o":"m 253 310 l 253 440 l 122 440 l 122 310 z "},"√":{"ha":781,"x_min":0,"x_max":0,"o":"m 739 894 l 739 989 l 536 989 l 281 189 l 121 683 l 11 683 l 238 0 l 322 0 l 615 894 z "},"∞":{"ha":1122,"x_min":0,"x_max":0,"o":"m 1028 371 b 808 593 1028 496 942 593 b 561 446 711 593 643 546 b 315 593 479 546 407 593 b 93 371 182 593 93 496 b 315 149 93 246 182 149 b 561 294 410 149 479 194 b 808 150 643 194 711 150 b 1028 371 942 150 1028 246 z m 497 369 b 318 240 433 292 386 240 b 189 369 243 240 189 292 b 318 500 189 447 243 500 b 497 369 386 500 433 447 z m 932 369 b 804 240 932 292 879 240 b 624 369 736 240 688 292 b 804 499 688 447 736 499 b 932 369 879 499 932 447 z "},"∤":{"ha":375,"x_min":0,"x_max":0,"o":"m 253 310 l 253 440 l 122 440 l 122 310 z "},"∧":{"ha":375,"x_min":0,"x_max":0,"o":"m 253 310 l 253 440 l 122 440 l 122 310 z "},"∫":{"ha":517,"x_min":0,"x_max":0,"o":"m 464 907 l 464 993 l 396 993 b 207 799 276 993 207 917 l 207 -110 b 106 -217 207 -178 174 -217 l 51 -217 l 51 -303 l 121 -303 b 310 -108 240 -303 310 -226 l 310 800 b 411 907 310 868 343 907 z "},"≈":{"ha":749,"x_min":0,"x_max":0,"o":"m 681 263 l 618 325 b 501 263 564 271 540 263 b 394 296 464 263 433 278 b 247 339 342 319 296 339 b 68 244 185 339 146 322 l 131 182 b 247 244 185 236 208 244 b 354 211 285 244 315 229 b 501 168 407 188 453 168 b 681 263 564 168 603 185 z m 681 508 l 618 571 b 501 510 564 517 540 510 b 393 542 464 510 432 524 b 247 586 340 565 296 586 b 68 490 185 586 146 568 l 129 429 b 246 490 183 483 207 490 b 354 458 283 490 315 476 b 501 414 407 435 453 414 b 681 508 564 414 603 431 z "},"≠":{"ha":746,"x_min":0,"x_max":0,"o":"m 674 210 l 674 301 l 363 301 l 499 444 l 674 444 l 674 538 l 581 538 l 674 635 l 611 692 l 467 538 l 72 538 l 72 444 l 385 444 l 247 301 l 72 301 l 72 210 l 165 210 l 72 111 l 136 56 l 279 210 z "},"≤":{"ha":725,"x_min":0,"x_max":0,"o":"m 592 186 l 592 293 l 244 464 l 592 636 l 592 743 l 132 510 l 132 419 z m 592 -22 l 592 85 l 132 318 l 132 211 z "},"≥":{"ha":725,"x_min":0,"x_max":0,"o":"m 592 419 l 592 510 l 132 743 l 132 636 l 479 464 l 132 293 l 132 186 z m 592 211 l 592 318 l 132 85 l 132 -22 z "},"⋅":{"ha":375,"x_min":0,"x_max":0,"o":"m 253 310 l 253 440 l 122 440 l 122 310 z "},"◊":{"ha":901,"x_min":0,"x_max":0,"o":"m 808 489 l 451 994 l 93 489 l 451 -17 z m 696 489 l 451 135 l 206 489 l 451 840 z "},"ﬁ":{"ha":781,"x_min":0,"x_max":0,"o":"m 392 603 l 392 679 l 246 679 l 246 806 b 338 906 246 868 274 906 l 392 906 l 392 992 l 319 992 b 146 808 203 992 146 910 l 146 679 l 58 679 l 58 603 l 146 603 l 146 0 l 246 0 l 246 603 z m 654 0 l 654 679 l 554 679 l 554 0 z m 661 888 l 661 990 l 547 990 l 547 888 z "},"ﬂ":{"ha":836,"x_min":0,"x_max":0,"o":"m 392 603 l 392 679 l 246 679 l 246 806 b 338 906 246 868 274 906 l 392 906 l 392 992 l 319 992 b 146 808 203 992 146 910 l 146 679 l 58 679 l 58 603 l 146 603 l 146 0 l 246 0 l 246 603 z m 796 0 l 796 86 l 740 86 b 649 186 671 86 649 119 l 649 989 l 549 989 l 549 182 b 724 0 549 78 604 0 z "}}}
